{
classes = (
{
code = "W Wacute Wcircumflex Wdieresis Wgrave";
name = public.kern2.W;
},
{
code = "a aacute abreve acircumflex adieresis agrave amacron aogonek aring atilde";
name = public.kern1.a;
},
{
code = "Y Yacute Ycircumflex Ydieresis Ygrave Ymacron";
name = public.kern2.Y;
},
{
code = "b bdotaccent eth";
name = public.kern1.b;
},
{
code = "c cacute ccaron ccedilla ccircumflex cdotaccent";
name = public.kern1.c;
},
{
code = "e eacute ebreve ecaron ecircumflex edieresis edotaccent egrave emacron eogonek";
name = public.kern1.e;
},
{
code = "eng kgreenlandic n nacute ncaron ncommaaccent ntilde";
name = public.kern1.eng;
},
{
code = "";
name = public.kern2._empty_lu.0_st.0_cl.0;
},
{
code = "f fdotaccent";
name = public.kern1.f;
},
{
code = "h hbar hcircumflex";
name = public.kern1.h;
},
{
code = "a aacute abreve acircumflex adieresis agrave amacron aogonek aring atilde";
name = public.kern2.a;
},
{
code = "k kcommaaccent";
name = public.kern1.k;
},
{
code = "comma ellipsis period";
name = public.kern1.comma;
},
{
code = "c cacute ccaron ccedilla ccircumflex cdotaccent";
name = public.kern2.c;
},
{
code = "m mdotaccent";
name = public.kern1.m;
},
{
code = "d dcaron dcroat ddotaccent";
name = public.kern2.d;
},
{
code = "e eacute ebreve ecaron ecircumflex edieresis edotaccent egrave emacron eogonek";
name = public.kern2.e;
},
{
code = "o oacute obreve ocircumflex odieresis ograve ohungarumlaut omacron oslash otilde";
name = public.kern1.o;
},
{
code = "f fdotaccent";
name = public.kern2.f;
},
{
code = "p pdotaccent";
name = public.kern1.p;
},
{
code = "g gbreve gcircumflex gcommaaccent gdotaccent";
name = public.kern2.g;
},
{
code = "r racute rcaron rcommaaccent";
name = public.kern1.r;
},
{
code = "s sacute scaron scedilla scircumflex scommaaccent";
name = public.kern1.s;
},
{
code = "l lacute lcaron lcommaaccent ldot lslash";
name = public.kern2.l;
},
{
code = "quotedblleft quoteleft reversequotedblleft reversequoteleft";
name = public.kern1.quotedblleft;
},

glyphs = (
{
glyphname = A;
lastChange = "2015-06-21 14:11:14 +0000";
layers = (
{
layerId = "B9198381-BC0C-4069-9423-397854D57297";
name = Bold;
paths = (
{
closed = 1;
nodes = (
"248 780 LINE",
"-40 0 LINE",
"164 0 LINE",
"215 158 LINE",
"377 158 LINE",
"389 0 LINE",
"592 0 LINE",
"508 780 LINE"
);
},
{
closed = 1;
nodes = (
"349 560 LINE",
"366 322 LINE",
"270 322 LINE"
);
}
);
width = 650;
},
{
layerId = "77865E0F-7A14-4552-9F9F-E712627EBCD5";
name = Light;
paths = (
{
closed = 1;
nodes = (
"340 790 LINE",
"-14 0 LINE",
"8 0 LINE",
"110 230 LINE",
"444 230 LINE",
"486 0 LINE",
"506 0 LINE",
"360 790 LINE"
);
},
{
closed = 1;
nodes = (
"347 760 LINE",
"440 250 LINE",
"119 250 LINE"
);
}
);
width = 590;
}
);
unicode = 0041;
},
{
glyphname = Agrave;
lastChange = "2015-06-21 14:11:14 +0000";
layers = (
{
layerId = "B9198381-BC0C-4069-9423-397854D57297";
name = Bold;
paths = (
{
closed = 1;
nodes = (
"248 780 LINE",
"-40 0 LINE",
"164 0 LINE",
"215 158 LINE",
"377 158 LINE",
"389 0 LINE",
"592 0 LINE",
"508 780 LINE"
);
},
{
closed = 1;
nodes = (
"246 950 LINE",
"295 840 LINE",
"477 840 LINE",
"439 950 LINE"
);
},
{
closed = 1;
nodes = (
"349 560 LINE",
"366 322 LINE",
"270 322 LINE"
);
}
);
width = 650;
},
{
layerId = "77865E0F-7A14-4552-9F9F-E712627EBCD5";
name = Light;
paths = (
{
closed = 1;
nodes = (
"340 790 LINE",
"-14 0 LINE",
"8 0 LINE",
"110 230 LINE",
"444 230 LINE",
"486 0 LINE",
"506 0 LINE",
"360 790 LINE"
);
},
{
closed = 1;
nodes = (
"347 760 LINE",
"440 250 LINE",
"119 250 LINE"
);
},
{
closed = 1;
nodes = (
"298 950 LINE",
"345 840 LINE",
"367 840 LINE",
"320 950 LINE"
);
}
);
width = 590;
}
);
unicode = 00C0;
},
{
glyphname = Aacute;
lastChange = "2015-06-21 14:11:14 +0000";
layers = (
{
layerId = "B9198381-BC0C-4069-9423-397854D57297";
name = Bold;
paths = (
{
closed = 1;
nodes = (
"248 780 LINE",
"-40 0 LINE",
"164 0 LINE",
"215 158 LINE",
"377 158 LINE",
"389 0 LINE",
"592 0 LINE",
"508 780 LINE"
);
},
{
closed = 1;
nodes = (
"363 950 LINE",
"295 840 LINE",
"477 840 LINE",
"556 950 LINE"
);
},
{
closed = 1;
nodes = (
"349 560 LINE",
"366 322 LINE",
"270 322 LINE"
);
}
);
width = 650;
},
{
layerId = "77865E0F-7A14-4552-9F9F-E712627EBCD5";
name = Light;
paths = (
{
closed = 1;
nodes = (
"340 790 LINE",
"-14 0 LINE",
"8 0 LINE",
"110 230 LINE",
"444 230 LINE",
"486 0 LINE",
"506 0 LINE",
"360 790 LINE"
);
},
{
closed = 1;
nodes = (
"347 760 LINE",
"440 250 LINE",
"119 250 LINE"
);
},
{
closed = 1;
nodes = (
"422 950 LINE",
"345 840 LINE",
"367 840 LINE",
"444 950 LINE"
);
}
);
width = 590;
}
);
unicode = 00C1;
},
{
glyphname = Acircumflex;
lastChange = "2015-06-21 14:11:14 +0000";
layers = (
{
layerId = "B9198381-BC0C-4069-9423-397854D57297";
name = Bold;
paths = (
{
closed = 1;
nodes = (
"248 780 LINE",
"-40 0 LINE",
"164 0 LINE",
"215 158 LINE",
"377 158 LINE",
"389 0 LINE",
"592 0 LINE",
"508 780 LINE"
);
},
{
closed = 1;
nodes = (
"326 840 LINE",
"391 879 LINE",
"446 840 LINE",
"611 840 LINE",
"496 950 LINE",
"306 950 LINE",
"161 840 LINE"
);
},
{
closed = 1;
nodes = (
"349 560 LINE",
"366 322 LINE",
"270 322 LINE"
);
}
);
width = 650;
},
{
layerId = "77865E0F-7A14-4552-9F9F-E712627EBCD5";
name = Light;
paths = (
{
closed = 1;
nodes = (
"340 790 LINE",
"-14 0 LINE",
"8 0 LINE",
"110 230 LINE",
"444 230 LINE",
"486 0 LINE",
"506 0 LINE",
"360 790 LINE"
);
},
{
closed = 1;
nodes = (
"347 760 LINE",
"440 250 LINE",
"119 250 LINE"
);
},
{
closed = 1;
nodes = (
"271 840 LINE",
"370 935 LINE",
"443 840 LINE",
"466 840 LINE",
"381 950 LINE",
"361 950 LINE",
"246 840 LINE"
);
}
);
width = 590;
}
);
unicode = 00C2;
},
{
glyphname = Atilde;
lastChange = "2015-06-21 14:11:14 +0000";
layers = (
{
layerId = "B9198381-BC0C-4069-9423-397854D57297";
name = Bold;
paths = (
{
closed = 1;
nodes = (
"248 780 LINE",
"-40 0 LINE",
"164 0 LINE",
"215 158 LINE",
"377 158 LINE",
"389 0 LINE",
"592 0 LINE",
"508 780 LINE"
);
},
{
closed = 1;
nodes = (
"501 950 LINE",
"498 927 OFFCURVE",
"482 920 OFFCURVE",
"464 920 CURVE SMOOTH",
"427 920 OFFCURVE",
"383 966 OFFCURVE",
"318 966 CURVE SMOOTH",
"262 966 OFFCURVE",
"204 935 OFFCURVE",
"191 840 CURVE",
"286 840 LINE",
"289 863 OFFCURVE",
"305 870 OFFCURVE",
"323 870 CURVE SMOOTH",
"360 870 OFFCURVE",
"404 824 OFFCURVE",
"469 824 CURVE SMOOTH",
"525 824 OFFCURVE",
"583 855 OFFCURVE",
"596 950 CURVE"
);
},
{
closed = 1;
nodes = (
"349 560 LINE",
"366 322 LINE",
"270 322 LINE"
);
}
);
width = 650;
},
{
layerId = "77865E0F-7A14-4552-9F9F-E712627EBCD5";
name = Light;
paths = (
{
closed = 1;
nodes = (
"340 790 LINE",
"-14 0 LINE",
"8 0 LINE",
"110 230 LINE",
"444 230 LINE",
"486 0 LINE",
"506 0 LINE",
"360 790 LINE"
);
},
{
closed = 1;
nodes = (
"347 760 LINE",
"440 250 LINE",
"119 250 LINE"
);
},
{
closed = 1;
nodes = (
"485 927 LINE",
"479 882 OFFCURVE",
"454 875 OFFCURVE",
"431 875 CURVE SMOOTH",
"384 875 OFFCURVE",
"348 933 OFFCURVE",
"296 933 CURVE SMOOTH",
"266 933 OFFCURVE",
"231 918 OFFCURVE",
"224 863 CURVE",
"242 863 LINE",
"248 908 OFFCURVE",
"273 915 OFFCURVE",
"296 915 CURVE SMOOTH",
"343 915 OFFCURVE",
"379 857 OFFCURVE",
"431 857 CURVE SMOOTH",
"461 857 OFFCURVE",
"496 872 OFFCURVE",
"503 927 CURVE"
);
}
);
width = 590;
}
);
unicode = 00C3;
},
{
glyphname = Adieresis;
lastChange = "2015-06-21 14:11:14 +0000";
layers = (
{
layerId = "B9198381-BC0C-4069-9423-397854D57297";
name = Bold;
paths = (
{
closed = 1;
nodes = (
"248 780 LINE",
"-40 0 LINE",
"164 0 LINE",
"215 158 LINE",
"377 158 LINE",
"389 0 LINE",
"592 0 LINE",
"508 780 LINE"
);
},
{
closed = 1;
nodes = (
"386 950 LINE",
"236 950 LINE",
"221 840 LINE",
"371 840 LINE"
);
},
{
closed = 1;
nodes = (
"566 950 LINE",
"416 950 LINE",
"401 840 LINE",
"551 840 LINE"
);
},
{
closed = 1;
nodes = (
"349 560 LINE",
"366 322 LINE",
"270 322 LINE"
);
}
);
width = 650;
},
{
layerId = "77865E0F-7A14-4552-9F9F-E712627EBCD5";
name = Light;
paths = (
{
closed = 1;
nodes = (
"340 790 LINE",
"-14 0 LINE",
"8 0 LINE",
"110 230 LINE",
"444 230 LINE",
"486 0 LINE",
"506 0 LINE",
"360 790 LINE"
);
},
{
closed = 1;
nodes = (
"347 760 LINE",
"440 250 LINE",
"119 250 LINE"
);
},
{
closed = 1;
nodes = (
"316 915 LINE",
"276 915 LINE",
"271 875 LINE",
"311 875 LINE"
);
},
{
closed = 1;
nodes = (
"456 915 LINE",
"416 915 LINE",
"411 875 LINE",
"451 875 LINE"
);
}
);
width = 590;
}
);
unicode = 00C4;
},
{
glyphname = Aring;
lastChange = "2015-06-21 14:11:14 +0000";
layers = (
{
layerId = "B9198381-BC0C-4069-9423-397854D57297";
name = Bold;
paths = (
{
closed = 1;
nodes = (
"248 780 LINE",
"-40 0 LINE",
"164 0 LINE",
"215 158 LINE",
"377 158 LINE",
"389 0 LINE",
"592 0 LINE",
"508 780 LINE",
"459 780 LINE",
"482 802 OFFCURVE",
"497 832 OFFCURVE",
"497 868 CURVE SMOOTH",
"497 923 OFFCURVE",
"456 964 OFFCURVE",
"399 964 CURVE SMOOTH",
"332 964 OFFCURVE",
"276 912 OFFCURVE",
"276 842 CURVE SMOOTH",
"276 818 OFFCURVE",
"284 796 OFFCURVE",
"297 780 CURVE"
);
},
{
closed = 1;
nodes = (
"349 560 LINE",
"366 322 LINE",
"270 322 LINE"
);
},
{
closed = 1;
nodes = (
"393 904 CURVE SMOOTH",
"418 904 OFFCURVE",
"436 886 OFFCURVE",
"436 860 CURVE SMOOTH",
"436 828 OFFCURVE",
"411 806 OFFCURVE",
"380 806 CURVE SMOOTH",
"355 806 OFFCURVE",
"337 824 OFFCURVE",
"337 850 CURVE SMOOTH",
"337 882 OFFCURVE",
"362 904 OFFCURVE"
);
}
);
width = 650;
},
{
layerId = "77865E0F-7A14-4552-9F9F-E712627EBCD5";
name = Light;
paths = (
{
closed = 1;
nodes = (
"347 760 LINE",
"440 250 LINE",
"119 250 LINE"
);
},
{
closed = 1;
nodes = (
"367 938 CURVE SMOOTH",
"404 938 OFFCURVE",
"428 917 OFFCURVE",
"428 878 CURVE SMOOTH",
"428 833 OFFCURVE",
"395 802 OFFCURVE",
"352 802 CURVE SMOOTH",
"315 802 OFFCURVE",
"291 823 OFFCURVE",
"291 862 CURVE SMOOTH",
"291 907 OFFCURVE",
"324 938 OFFCURVE"
);
},
{
closed = 1;
nodes = (
"367 956 CURVE SMOOTH",
"317 956 OFFCURVE",
"272 914 OFFCURVE",
"272 862 CURVE SMOOTH",
"272 819 OFFCURVE",
"297 790 OFFCURVE",
"338 785 CURVE",
"-14 0 LINE",
"8 0 LINE",
"110 230 LINE",
"444 230 LINE",
"486 0 LINE",
"506 0 LINE",
"361 784 LINE",
"407 789 OFFCURVE",
"447 829 OFFCURVE",
"447 878 CURVE SMOOTH",
"447 926 OFFCURVE",
"416 956 OFFCURVE"
);
}
);
width = 590;
}
);
unicode = 00C5;
},
{
glyphname = Amacron;
lastChange = "2015-06-21 14:11:14 +0000";
layers = (
{
layerId = "B9198381-BC0C-4069-9423-397854D57297";
name = Bold;
paths = (
{
closed = 1;
nodes = (
"248 780 LINE",
"-40 0 LINE",
"164 0 LINE",
"215 158 LINE",
"377 158 LINE",
"389 0 LINE",
"592 0 LINE",
"508 780 LINE"
);
},
{
closed = 1;
nodes = (
"226 840 LINE",
"546 840 LINE",
"561 950 LINE",
"241 950 LINE"
);
},
{
closed = 1;
nodes = (
"349 560 LINE",
"366 322 LINE",
"270 322 LINE"
);
}
);
width = 650;
},
{
layerId = "77865E0F-7A14-4552-9F9F-E712627EBCD5";
name = Light;
paths = (
{
closed = 1;
nodes = (
"340 790 LINE",
"-14 0 LINE",
"8 0 LINE",
"110 230 LINE",
"444 230 LINE",
"486 0 LINE",
"506 0 LINE",
"360 790 LINE"
);
},
{
closed = 1;
nodes = (
"347 760 LINE",
"440 250 LINE",
"119 250 LINE"
);
},
{
closed = 1;
nodes = (
"262 885 LINE",
"462 885 LINE",
"465 905 LINE",
"265 905 LINE"
);
}
);
width = 590;
}
);
unicode = 0100;
},
{
glyphname = Abreve;
lastChange = "2015-06-21 14:11:14 +0000";
layers = (
{
layerId = "B9198381-BC0C-4069-9423-397854D57297";
name = Bold;
paths = (
{
closed = 1;
nodes = (
"248 780 LINE",
"-40 0 LINE",
"164 0 LINE",
"215 158 LINE",
"377 158 LINE",
"389 0 LINE",
"592 0 LINE",
"508 780 LINE"
);
},
{
closed = 1;
nodes = (
"384 824 CURVE SMOOTH",
"544 824 OFFCURVE",
"587 883 OFFCURVE",
"596 950 CURVE",
"471 950 LINE",
"468 930 OFFCURVE",
"447 920 OFFCURVE",
"397 920 CURVE SMOOTH",
"347 920 OFFCURVE",
"328 930 OFFCURVE",
"331 950 CURVE",
"206 950 LINE",
"197 883 OFFCURVE",
"224 824 OFFCURVE"
);
},
{
closed = 1;
nodes = (
"349 560 LINE",
"366 322 LINE",
"270 322 LINE"
);
}
);
width = 650;
},
{
layerId = "77865E0F-7A14-4552-9F9F-E712627EBCD5";
name = Light;
paths = (
{
closed = 1;
nodes = (
"340 790 LINE",
"-14 0 LINE",
"8 0 LINE",
"110 230 LINE",
"444 230 LINE",
"486 0 LINE",
"506 0 LINE",
"360 790 LINE"
);
},
{
closed = 1;
nodes = (
"347 760 LINE",
"440 250 LINE",
"119 250 LINE"
);
},
{
closed = 1;
nodes = (
"355 852 CURVE SMOOTH",
"283 852 OFFCURVE",
"250 890 OFFCURVE",
"258 950 CURVE",
"241 950 LINE",
"231 880 OFFCURVE",
"272 834 OFFCURVE",
"356 834 CURVE SMOOTH",
"439 834 OFFCURVE",
"491 880 OFFCURVE",
"501 950 CURVE",
"482 950 LINE",
"474 890 OFFCURVE",
"426 852 OFFCURVE"
);
}
);
width = 590;
}
);
unicode = 0102;
},
{
glyphname = Aogonek;
lastChange = "2015-06-21 14:11:14 +0000";
layers = (
{
layerId = "B9198381-BC0C-4069-9423-397854D57297";
name = Bold;
paths = (
{
closed = 1;
nodes = (
"592 0 CURVE",
"508 780 LINE",
"248 780 LINE",
"-40 0 LINE",
"164 0 LINE",
"215 158 LINE",
"377 158 LINE",
"389 0 LINE",
"443 0 LINE",
"410 -32 OFFCURVE",
"387 -75 OFFCURVE",
"387 -123 CURVE SMOOTH",
"387 -186 OFFCURVE",
"437 -216 OFFCURVE",
"515 -216 CURVE SMOOTH",
"560 -216 OFFCURVE",
"604 -203 OFFCURVE",
"626 -190 CURVE",
"600 -80 LINE",
"593 -84 OFFCURVE",
"581 -90 OFFCURVE",
"563 -90 CURVE SMOOTH",
"542 -90 OFFCURVE",
"528 -79 OFFCURVE",
"528 -63 CURVE SMOOTH",
"528 -29 OFFCURVE",
"567 -11 OFFCURVE"
);
},
{
closed = 1;
nodes = (
"349 560 LINE",
"366 322 LINE",
"270 322 LINE"
);
}
);
width = 650;
},
{
layerId = "77865E0F-7A14-4552-9F9F-E712627EBCD5";
name = Light;
paths = (
{
closed = 1;
nodes = (
"347 760 LINE",
"440 250 LINE",
"119 250 LINE"
);
},
{
closed = 1;
nodes = (
"521 -170 LINE",
"505 -178 OFFCURVE",
"480 -188 OFFCURVE",
"446 -188 CURVE SMOOTH",
"411 -188 OFFCURVE",
"382 -173 OFFCURVE",
"382 -129 CURVE SMOOTH",
"382 -48 OFFCURVE",
"456 -16 OFFCURVE",
"506 0 CURVE",
"360 790 LINE",
"340 790 LINE",
"-14 0 LINE",
"8 0 LINE",
"110 230 LINE",
"444 230 LINE",
"484 10 LINE",
"424 -10 OFFCURVE",
"364 -48 OFFCURVE",
"364 -129 CURVE SMOOTH",
"364 -182 OFFCURVE",
"401 -206 OFFCURVE",
"446 -206 CURVE SMOOTH",
"485 -206 OFFCURVE",
"506 -197 OFFCURVE",
"525 -187 CURVE"
);
}
);
width = 590;
}
);
unicode = 0104;
},
{
glyphname = B;
lastChange = "2015-06-21 14:11:14 +0000";
layers = (
{
layerId = "B9198381-BC0C-4069-9423-397854D57297";
name = Bold;
paths = (
{
closed = 1;
nodes = (
"103 780 LINE",
"1 0 LINE",
"281 0 LINE SMOOTH",
"405 0 OFFCURVE",
"561 28 OFFCURVE",
"581 232 CURVE SMOOTH",
"583 252 LINE SMOOTH",
"591 332 OFFCURVE",
"565 376 OFFCURVE",
"519 403 CURVE",
"561 430 OFFCURVE",
"592 471 OFFCURVE",
"601 537 CURVE SMOOTH",
"604 559 LINE SMOOTH",
"631 755 OFFCURVE",
"497 780 OFFCURVE",
"378 780 CURVE SMOOTH"
);
},
{
closed = 1;
nodes = (
"327 316 LINE SMOOTH",
"358 316 OFFCURVE",
"397 307 OFFCURVE",
"391 246 CURVE SMOOTH",
"390 235 LINE SMOOTH",
"384 174 OFFCURVE",
"338 164 OFFCURVE",
"307 164 CURVE SMOOTH",
"212 164 LINE",
"232 316 LINE"
);
},
{
closed = 1;
nodes = (
"354 616 LINE SMOOTH",
"384 616 OFFCURVE",
"416 608 OFFCURVE",
"411 553 CURVE SMOOTH",
"410 542 LINE SMOOTH",
"405 488 OFFCURVE",
"364 480 OFFCURVE",
"336 480 CURVE SMOOTH",
"254 480 LINE",
"272 616 LINE"
);
}
);
width = 645;
},
{
layerId = "77865E0F-7A14-4552-9F9F-E712627EBCD5";
name = Light;
paths = (
{
closed = 1;
nodes = (
"133 780 LINE",
"31 0 LINE",
"230 0 LINE SMOOTH",
"345 0 OFFCURVE",
"450 25 OFFCURVE",
"470 188 CURVE SMOOTH",
"473 212 LINE SMOOTH",
"489 340 OFFCURVE",
"423 386 OFFCURVE",
"344 398 CURVE",
"417 408 OFFCURVE",
"484 445 OFFCURVE",
"499 568 CURVE SMOOTH",
"502 592 LINE SMOOTH",
"521 743 OFFCURVE",
"416 780 OFFCURVE",
"310 780 CURVE SMOOTH"
);
},
{
closed = 1;
nodes = (
"277 388 LINE SMOOTH",
"359 388 OFFCURVE",
"471 367 OFFCURVE",
"452 212 CURVE SMOOTH",
"449 188 LINE SMOOTH",
"430 33 OFFCURVE",
"325 20 OFFCURVE",
"230 20 CURVE SMOOTH",
"54 20 LINE",
"102 388 LINE"
);
},
{
closed = 1;
nodes = (
"310 760 LINE SMOOTH",
"392 760 OFFCURVE",
"499 737 OFFCURVE",
"481 592 CURVE SMOOTH",
"478 568 LINE SMOOTH",
"460 427 OFFCURVE",
"365 408 OFFCURVE",
"277 408 CURVE SMOOTH",
"105 408 LINE",
"151 760 LINE"
);
}
);
width = 552;
}
);
unicode = 0042;
},
{
glyphname = Bdotaccent;
lastChange = "2015-06-21 14:11:14 +0000";
layers = (
{
layerId = "B9198381-BC0C-4069-9423-397854D57297";
name = Bold;
paths = (
{
closed = 1;
nodes = (
"456 950 LINE",
"306 950 LINE",
"291 840 LINE",
"441 840 LINE"
);
},
{
closed = 1;
nodes = (
"103 780 LINE",
"1 0 LINE",
"281 0 LINE SMOOTH",
"405 0 OFFCURVE",
"561 28 OFFCURVE",
"581 232 CURVE SMOOTH",
"583 252 LINE SMOOTH",
"591 332 OFFCURVE",
"565 376 OFFCURVE",
"519 403 CURVE",
"561 430 OFFCURVE",
"592 471 OFFCURVE",
"601 537 CURVE SMOOTH",
"604 559 LINE SMOOTH",
"631 755 OFFCURVE",
"497 780 OFFCURVE",
"378 780 CURVE SMOOTH"
);
},
{
closed = 1;
nodes = (
"327 316 LINE SMOOTH",
"358 316 OFFCURVE",
"397 307 OFFCURVE",
"391 246 CURVE SMOOTH",
"390 235 LINE SMOOTH",
"384 174 OFFCURVE",
"338 164 OFFCURVE",
"307 164 CURVE SMOOTH",
"212 164 LINE",
"232 316 LINE"
);
},
{
closed = 1;
nodes = (
"354 616 LINE SMOOTH",
"384 616 OFFCURVE",
"416 608 OFFCURVE",
"411 553 CURVE SMOOTH",
"410 542 LINE SMOOTH",
"405 488 OFFCURVE",
"364 480 OFFCURVE",
"336 480 CURVE SMOOTH",
"254 480 LINE",
"272 616 LINE"
);
}
);
width = 645;
},
{
layerId = "77865E0F-7A14-4552-9F9F-E712627EBCD5";
name = Light;
paths = (
{
closed = 1;
nodes = (
"133 780 LINE",
"31 0 LINE",
"230 0 LINE SMOOTH",
"345 0 OFFCURVE",
"450 25 OFFCURVE",
"470 188 CURVE SMOOTH",
"473 212 LINE SMOOTH",
"489 340 OFFCURVE",
"423 386 OFFCURVE",
"344 398 CURVE",
"417 408 OFFCURVE",
"484 445 OFFCURVE",
"499 568 CURVE SMOOTH",
"502 592 LINE SMOOTH",
"521 743 OFFCURVE",
"416 780 OFFCURVE",
"310 780 CURVE SMOOTH"
);
},
{
closed = 1;
nodes = (
"277 388 LINE SMOOTH",
"359 388 OFFCURVE",
"471 367 OFFCURVE",
"452 212 CURVE SMOOTH",
"449 188 LINE SMOOTH",
"430 33 OFFCURVE",
"325 20 OFFCURVE",
"230 20 CURVE SMOOTH",
"54 20 LINE",
"102 388 LINE"
);
},
{
closed = 1;
nodes = (
"310 760 LINE SMOOTH",
"392 760 OFFCURVE",
"499 737 OFFCURVE",
"481 592 CURVE SMOOTH",
"478 568 LINE SMOOTH",
"460 427 OFFCURVE",
"365 408 OFFCURVE",
"277 408 CURVE SMOOTH",
"105 408 LINE",
"151 760 LINE"
);
},
{
closed = 1;
nodes = (
"351 915 LINE",
"311 915 LINE",
"306 875 LINE",
"346 875 LINE"
);
}
);
width = 552;
}
);
unicode = 1E02;
},
{
glyphname = C;
lastChange = "2015-06-21 14:11:14 +0000";
layers = (
{
layerId = "B9198381-BC0C-4069-9423-397854D57297";
name = Bold;
paths = (
{
closed = 1;
nodes = (
"230 408 LINE SMOOTH",
"248 543 OFFCURVE",
"273 630 OFFCURVE",
"368 630 CURVE SMOOTH",
"379 630 LINE SMOOTH",
"454 630 OFFCURVE",
"461 570 OFFCURVE",
"449 480 CURVE",
"639 480 LINE",
"644 519 LINE SMOOTH",
"668 707 OFFCURVE",
"575 794 OFFCURVE",
"385 794 CURVE SMOOTH",
"175 794 OFFCURVE",
"73 678 OFFCURVE",
"37 408 CURVE SMOOTH",
"32 370 LINE SMOOTH",
"-4 100 OFFCURVE",
"90 -14 OFFCURVE",
"300 -14 CURVE SMOOTH",
"475 -14 OFFCURVE",
"588 59 OFFCURVE",
"610 261 CURVE SMOOTH",
"611 270 LINE",
"421 270 LINE",
"412 200 OFFCURVE",
"383 150 OFFCURVE",
"316 150 CURVE SMOOTH",
"305 150 LINE SMOOTH",
"215 150 OFFCURVE",
"207 234 OFFCURVE",
"225 370 CURVE SMOOTH"
);
}
);
width = 660;
},
{
layerId = "77865E0F-7A14-4552-9F9F-E712627EBCD5";
name = Light;
paths = (
{
closed = 1;
nodes = (
"65 378 LINE SMOOTH",
"31 108 OFFCURVE",
"100 -6 OFFCURVE",
"267 -6 CURVE SMOOTH",
"421 -6 OFFCURVE",
"498 81 OFFCURVE",
"516 226 CURVE SMOOTH",
"519 250 LINE",
"499 250 LINE",
"478 73 OFFCURVE",
"392 14 OFFCURVE",
"270 14 CURVE SMOOTH",
"264 14 LINE SMOOTH",
"113 14 OFFCURVE",
"53 118 OFFCURVE",
"86 378 CURVE SMOOTH",
"89 402 LINE SMOOTH",
"122 666 OFFCURVE",
"212 766 OFFCURVE",
"363 766 CURVE SMOOTH",
"369 766 LINE SMOOTH",
"506 766 OFFCURVE",
"559 705 OFFCURVE",
"531 500 CURVE",
"551 500 LINE",
"554 524 LINE SMOOTH",
"578 714 OFFCURVE",
"517 786 OFFCURVE",
"366 786 CURVE SMOOTH",
"201 786 OFFCURVE",
"103 680 OFFCURVE",
"68 402 CURVE SMOOTH"
);
}
);
width = 593;
}
);
unicode = 0043;
},
{
glyphname = Ccedilla;
lastChange = "2015-06-21 14:11:14 +0000";
layers = (
{
layerId = "B9198381-BC0C-4069-9423-397854D57297";
name = Bold;
paths = (
{
closed = 1;
nodes = (
"161 -188 LINE",
"178 -200 OFFCURVE",
"216 -216 OFFCURVE",
"272 -216 CURVE SMOOTH",
"357 -216 OFFCURVE",
"406 -178 OFFCURVE",
"406 -115 CURVE SMOOTH",
"406 -65 OFFCURVE",
"369 -42 OFFCURVE",
"317 -37 CURVE",
"330 -13 LINE",
"488 -5 OFFCURVE",
"589 70 OFFCURVE",
"610 261 CURVE SMOOTH",
"611 270 LINE",
"421 270 LINE",
"412 200 OFFCURVE",
"383 150 OFFCURVE",
"316 150 CURVE SMOOTH",
"305 150 LINE SMOOTH",
"215 150 OFFCURVE",
"207 234 OFFCURVE",
"225 370 CURVE SMOOTH",
"230 408 LINE SMOOTH",
"248 543 OFFCURVE",
"273 630 OFFCURVE",
"368 630 CURVE SMOOTH",
"379 630 LINE SMOOTH",
"454 630 OFFCURVE",
"461 570 OFFCURVE",
"449 480 CURVE",
"639 480 LINE",
"644 519 LINE SMOOTH",
"668 707 OFFCURVE",
"575 794 OFFCURVE",
"385 794 CURVE SMOOTH",
"175 794 OFFCURVE",
"73 678 OFFCURVE",
"37 408 CURVE SMOOTH",
"32 370 LINE SMOOTH",
"-1 122 OFFCURVE",
"75 6 OFFCURVE",
"250 -11 CURVE",
"219 -70 LINE",
"229 -99 LINE",
"229 -99 OFFCURVE",
"251 -94 OFFCURVE",
"270 -94 CURVE SMOOTH",
"301 -94 OFFCURVE",
"311 -102 OFFCURVE",
"311 -115 CURVE SMOOTH",
"311 -129 OFFCURVE",
"301 -138 OFFCURVE",
"264 -138 CURVE SMOOTH",
"238 -138 OFFCURVE",
"210 -130 OFFCURVE",
"197 -121 CURVE"
);
}
);
width = 660;
},
{
layerId = "77865E0F-7A14-4552-9F9F-E712627EBCD5";
name = Light;
paths = (
{
closed = 1;
nodes = (
"164 -186 LINE",
"184 -198 OFFCURVE",
"218 -206 OFFCURVE",
"245 -206 CURVE SMOOTH",
"293 -206 OFFCURVE",
"341 -186 OFFCURVE",
"341 -126 CURVE SMOOTH",
"341 -78 OFFCURVE",
"300 -64 OFFCURVE",
"263 -64 CURVE SMOOTH",
"256 -64 OFFCURVE",
"249 -64 OFFCURVE",
"244 -65 CURVE",
"273 -6 LINE",
"423 -4 OFFCURVE",
"498 83 OFFCURVE",
"516 226 CURVE SMOOTH",
"519 250 LINE",
"499 250 LINE",
"478 73 OFFCURVE",
"392 14 OFFCURVE",
"270 14 CURVE SMOOTH",
"264 14 LINE SMOOTH",
"113 14 OFFCURVE",
"53 118 OFFCURVE",
"86 378 CURVE SMOOTH",
"89 402 LINE SMOOTH",
"122 666 OFFCURVE",
"212 766 OFFCURVE",
"363 766 CURVE SMOOTH",
"369 766 LINE SMOOTH",
"506 766 OFFCURVE",
"559 705 OFFCURVE",
"531 500 CURVE",
"551 500 LINE",
"554 524 LINE SMOOTH",
"578 714 OFFCURVE",
"517 786 OFFCURVE",
"366 786 CURVE SMOOTH",
"201 786 OFFCURVE",
"103 680 OFFCURVE",
"68 402 CURVE SMOOTH",
"65 378 LINE SMOOTH",
"32 115 OFFCURVE",
"96 0 OFFCURVE",
"254 -6 CURVE",
"221 -73 LINE",
"230 -84 LINE",
"230 -84 OFFCURVE",
"242 -82 OFFCURVE",
"256 -82 CURVE SMOOTH",
"291 -82 OFFCURVE",
"323 -87 OFFCURVE",
"323 -126 CURVE SMOOTH",
"323 -177 OFFCURVE",
"283 -188 OFFCURVE",
"245 -188 CURVE SMOOTH",
"221 -188 OFFCURVE",
"187 -180 OFFCURVE",
"172 -170 CURVE"
);
}
);
width = 593;
}
);
unicode = 00C7;
},
{
glyphname = Cacute;
lastChange = "2015-06-21 14:11:14 +0000";
layers = (
{
layerId = "B9198381-BC0C-4069-9423-397854D57297";
name = Bold;
paths = (
{
closed = 1;
nodes = (
"373 950 LINE",
"305 840 LINE",
"487 840 LINE",
"566 950 LINE"
);
},
{
closed = 1;
nodes = (
"230 408 LINE SMOOTH",
"248 543 OFFCURVE",
"273 630 OFFCURVE",
"368 630 CURVE SMOOTH",
"379 630 LINE SMOOTH",
"454 630 OFFCURVE",
"461 570 OFFCURVE",
"449 480 CURVE",
"639 480 LINE",
"644 519 LINE SMOOTH",
"668 707 OFFCURVE",
"575 794 OFFCURVE",
"385 794 CURVE SMOOTH",
"175 794 OFFCURVE",
"73 678 OFFCURVE",
"37 408 CURVE SMOOTH",
"32 370 LINE SMOOTH",
"-4 100 OFFCURVE",
"90 -14 OFFCURVE",
"300 -14 CURVE SMOOTH",
"475 -14 OFFCURVE",
"588 59 OFFCURVE",
"610 261 CURVE SMOOTH",
"611 270 LINE",
"421 270 LINE",
"412 200 OFFCURVE",
"383 150 OFFCURVE",
"316 150 CURVE SMOOTH",
"305 150 LINE SMOOTH",
"215 150 OFFCURVE",
"207 234 OFFCURVE",
"225 370 CURVE SMOOTH"
);
}
);
width = 660;
},
{
layerId = "77865E0F-7A14-4552-9F9F-E712627EBCD5";
name = Light;
paths = (
{
closed = 1;
nodes = (
"65 378 LINE SMOOTH",
"31 108 OFFCURVE",
"100 -6 OFFCURVE",
"267 -6 CURVE SMOOTH",
"421 -6 OFFCURVE",
"498 81 OFFCURVE",
"516 226 CURVE SMOOTH",
"519 250 LINE",
"499 250 LINE",
"478 73 OFFCURVE",
"392 14 OFFCURVE",
"270 14 CURVE SMOOTH",
"264 14 LINE SMOOTH",
"113 14 OFFCURVE",
"53 118 OFFCURVE",
"86 378 CURVE SMOOTH",
"89 402 LINE SMOOTH",
"122 666 OFFCURVE",
"212 766 OFFCURVE",
"363 766 CURVE SMOOTH",
"369 766 LINE SMOOTH",
"506 766 OFFCURVE",
"559 705 OFFCURVE",
"531 500 CURVE",
"551 500 LINE",
"554 524 LINE SMOOTH",
"578 714 OFFCURVE",
"517 786 OFFCURVE",
"366 786 CURVE SMOOTH",
"201 786 OFFCURVE",
"103 680 OFFCURVE",
"68 402 CURVE SMOOTH"
);
},
{
closed = 1;
nodes = (
"442 950 LINE",
"365 840 LINE",
"387 840 LINE",
"464 950 LINE"
);
}
);
width = 593;
}
);
unicode = 0106;
},
{
glyphname = Ccircumflex;
lastChange = "2015-06-21 14:11:14 +0000";
layers = (
{
layerId = "B9198381-BC0C-4069-9423-397854D57297";
name = Bold;
paths = (
{
closed = 1;
nodes = (
"336 840 LINE",
"401 879 LINE",
"456 840 LINE",
"621 840 LINE",
"506 950 LINE",
"316 950 LINE",
"171 840 LINE"
);
},
{
closed = 1;
nodes = (
"230 408 LINE SMOOTH",
"248 543 OFFCURVE",
"273 630 OFFCURVE",
"368 630 CURVE SMOOTH",
"379 630 LINE SMOOTH",
"454 630 OFFCURVE",
"461 570 OFFCURVE",
"449 480 CURVE",
"639 480 LINE",
"644 519 LINE SMOOTH",
"668 707 OFFCURVE",
"575 794 OFFCURVE",
"385 794 CURVE SMOOTH",
"175 794 OFFCURVE",
"73 678 OFFCURVE",
"37 408 CURVE SMOOTH",
"32 370 LINE SMOOTH",
"-4 100 OFFCURVE",
"90 -14 OFFCURVE",
"300 -14 CURVE SMOOTH",
"475 -14 OFFCURVE",
"588 59 OFFCURVE",
"610 261 CURVE SMOOTH",
"611 270 LINE",
"421 270 LINE",
"412 200 OFFCURVE",
"383 150 OFFCURVE",
"316 150 CURVE SMOOTH",
"305 150 LINE SMOOTH",
"215 150 OFFCURVE",
"207 234 OFFCURVE",
"225 370 CURVE SMOOTH"
);
}
);
width = 660;
},
{
layerId = "77865E0F-7A14-4552-9F9F-E712627EBCD5";
name = Light;
paths = (
{
closed = 1;
nodes = (
"65 378 LINE SMOOTH",
"31 108 OFFCURVE",
"100 -6 OFFCURVE",
"267 -6 CURVE SMOOTH",
"421 -6 OFFCURVE",
"498 81 OFFCURVE",
"516 226 CURVE SMOOTH",
"519 250 LINE",
"499 250 LINE",
"478 73 OFFCURVE",
"392 14 OFFCURVE",
"270 14 CURVE SMOOTH",
"264 14 LINE SMOOTH",
"113 14 OFFCURVE",
"53 118 OFFCURVE",
"86 378 CURVE SMOOTH",
"89 402 LINE SMOOTH",
"122 666 OFFCURVE",
"212 766 OFFCURVE",
"363 766 CURVE SMOOTH",
"369 766 LINE SMOOTH",
"506 766 OFFCURVE",
"559 705 OFFCURVE",
"531 500 CURVE",
"551 500 LINE",
"554 524 LINE SMOOTH",
"578 714 OFFCURVE",
"517 786 OFFCURVE",
"366 786 CURVE SMOOTH",
"201 786 OFFCURVE",
"103 680 OFFCURVE",
"68 402 CURVE SMOOTH"
);
},
{
closed = 1;
nodes = (
"291 840 LINE",
"390 935 LINE",
"463 840 LINE",
"486 840 LINE",
"401 950 LINE",
"381 950 LINE",
"266 840 LINE"
);
}
);
width = 593;
}
);
unicode = 0108;
},
{
glyphname = Cdotaccent;
lastChange = "2015-06-21 14:11:14 +0000";
layers = (
{
layerId = "B9198381-BC0C-4069-9423-397854D57297";
name = Bold;
paths = (
{
closed = 1;
nodes = (
"486 950 LINE",
"336 950 LINE",
"321 840 LINE",
"471 840 LINE"
);
},
{
closed = 1;
nodes = (
"230 408 LINE SMOOTH",
"248 543 OFFCURVE",
"273 630 OFFCURVE",
"368 630 CURVE SMOOTH",
"379 630 LINE SMOOTH",
"454 630 OFFCURVE",
"461 570 OFFCURVE",
"449 480 CURVE",
"639 480 LINE",
"644 519 LINE SMOOTH",
"668 707 OFFCURVE",
"575 794 OFFCURVE",
"385 794 CURVE SMOOTH",
"175 794 OFFCURVE",
"73 678 OFFCURVE",
"37 408 CURVE SMOOTH",
"32 370 LINE SMOOTH",
"-4 100 OFFCURVE",
"90 -14 OFFCURVE",
"300 -14 CURVE SMOOTH",
"475 -14 OFFCURVE",
"588 59 OFFCURVE",
"610 261 CURVE SMOOTH",
"611 270 LINE",
"421 270 LINE",
"412 200 OFFCURVE",
"383 150 OFFCURVE",
"316 150 CURVE SMOOTH",
"305 150 LINE SMOOTH",
"215 150 OFFCURVE",
"207 234 OFFCURVE",
"225 370 CURVE SMOOTH"
);
}
);
width = 660;
},
{
layerId = "77865E0F-7A14-4552-9F9F-E712627EBCD5";
name = Light;
paths = (
{
closed = 1;
nodes = (
"65 378 LINE SMOOTH",
"31 108 OFFCURVE",
"100 -6 OFFCURVE",
"267 -6 CURVE SMOOTH",
"421 -6 OFFCURVE",
"498 81 OFFCURVE",
"516 226 CURVE SMOOTH",
"519 250 LINE",
"499 250 LINE",
"478 73 OFFCURVE",
"392 14 OFFCURVE",
"270 14 CURVE SMOOTH",
"264 14 LINE SMOOTH",
"113 14 OFFCURVE",
"53 118 OFFCURVE",
"86 378 CURVE SMOOTH",
"89 402 LINE SMOOTH",
"122 666 OFFCURVE",
"212 766 OFFCURVE",
"363 766 CURVE SMOOTH",
"369 766 LINE SMOOTH",
"506 766 OFFCURVE",
"559 705 OFFCURVE",
"531 500 CURVE",
"551 500 LINE",
"554 524 LINE SMOOTH",
"578 714 OFFCURVE",
"517 786 OFFCURVE",
"366 786 CURVE SMOOTH",
"201 786 OFFCURVE",
"103 680 OFFCURVE",
"68 402 CURVE SMOOTH"
);
},
{
closed = 1;
nodes = (
"406 915 LINE",
"366 915 LINE",
"361 875 LINE",
"401 875 LINE"
);
}
);
width = 593;
}
);
unicode = 010A;
},
{
glyphname = Ccaron;
lastChange = "2015-06-21 14:11:14 +0000";
layers = (
{
layerId = "B9198381-BC0C-4069-9423-397854D57297";
name = Bold;
paths = (
{
closed = 1;
nodes = (
"186 950 LINE",
"301 840 LINE",
"491 840 LINE",
"636 950 LINE",
"471 950 LINE",
"405 910 LINE",
"351 950 LINE"
);
},
{
closed = 1;
nodes = (
"230 408 LINE SMOOTH",
"248 543 OFFCURVE",
"273 630 OFFCURVE",
"368 630 CURVE SMOOTH",
"379 630 LINE SMOOTH",
"454 630 OFFCURVE",
"461 570 OFFCURVE",
"449 480 CURVE",
"639 480 LINE",
"644 519 LINE SMOOTH",
"668 707 OFFCURVE",
"575 794 OFFCURVE",
"385 794 CURVE SMOOTH",
"175 794 OFFCURVE",
"73 678 OFFCURVE",
"37 408 CURVE SMOOTH",
"32 370 LINE SMOOTH",
"-4 100 OFFCURVE",
"90 -14 OFFCURVE",
"300 -14 CURVE SMOOTH",
"475 -14 OFFCURVE",
"588 59 OFFCURVE",
"610 261 CURVE SMOOTH",
"611 270 LINE",
"421 270 LINE",
"412 200 OFFCURVE",
"383 150 OFFCURVE",
"316 150 CURVE SMOOTH",
"305 150 LINE SMOOTH",
"215 150 OFFCURVE",
"207 234 OFFCURVE",
"225 370 CURVE SMOOTH"
);
}
);
width = 660;
},
{
layerId = "77865E0F-7A14-4552-9F9F-E712627EBCD5";
name = Light;
paths = (
{
closed = 1;
nodes = (
"65 378 LINE SMOOTH",
"31 108 OFFCURVE",
"100 -6 OFFCURVE",
"267 -6 CURVE SMOOTH",
"421 -6 OFFCURVE",
"498 81 OFFCURVE",
"516 226 CURVE SMOOTH",
"519 250 LINE",
"499 250 LINE",
"478 73 OFFCURVE",
"392 14 OFFCURVE",
"270 14 CURVE SMOOTH",
"264 14 LINE SMOOTH",
"113 14 OFFCURVE",
"53 118 OFFCURVE",
"86 378 CURVE SMOOTH",
"89 402 LINE SMOOTH",
"122 666 OFFCURVE",
"212 766 OFFCURVE",
"363 766 CURVE SMOOTH",
"369 766 LINE SMOOTH",
"506 766 OFFCURVE",
"559 705 OFFCURVE",
"531 500 CURVE",
"551 500 LINE",
"554 524 LINE SMOOTH",
"578 714 OFFCURVE",
"517 786 OFFCURVE",
"366 786 CURVE SMOOTH",
"201 786 OFFCURVE",
"103 680 OFFCURVE",
"68 402 CURVE SMOOTH"
);
},
{
closed = 1;
nodes = (
"476 950 LINE",
"377 855 LINE",
"304 950 LINE",
"281 950 LINE",
"366 840 LINE",
"386 840 LINE",
"501 950 LINE"
);
}
);
width = 593;
}
);
unicode = 010C;
},
{
glyphname = D;
lastChange = "2015-06-21 14:11:14 +0000";
layers = (
{
layerId = "B9198381-BC0C-4069-9423-397854D57297";
name = Bold;
paths = (
{
closed = 1;
nodes = (
"641 410 LINE SMOOTH",
"677 680 OFFCURVE",
"593 780 OFFCURVE",
"348 780 CURVE SMOOTH",
"103 780 LINE",
"1 0 LINE",
"256 0 LINE SMOOTH",
"501 0 OFFCURVE",
"600 102 OFFCURVE",
"636 372 CURVE SMOOTH"
);
},
{
closed = 1;
nodes = (
"212 164 LINE",
"272 616 LINE",
"317 616 LINE SMOOTH",
"447 616 OFFCURVE",
"466 545 OFFCURVE",
"448 410 CURVE SMOOTH",
"443 372 LINE SMOOTH",
"425 237 OFFCURVE",
"397 164 OFFCURVE",
"267 164 CURVE SMOOTH"
);
}
);
width = 670;
},
{
layerId = "77865E0F-7A14-4552-9F9F-E712627EBCD5";
name = Light;
paths = (
{
closed = 1;
nodes = (
"558 402 LINE SMOOTH",
"593 683 OFFCURVE",
"486 780 OFFCURVE",
"321 780 CURVE SMOOTH",
"133 780 LINE",
"31 0 LINE",
"215 0 LINE SMOOTH",
"380 0 OFFCURVE",
"520 98 OFFCURVE",
"555 378 CURVE SMOOTH"
);
},
{
closed = 1;
nodes = (
"54 20 LINE",
"151 760 LINE",
"321 760 LINE SMOOTH",
"481 760 OFFCURVE",
"570 664 OFFCURVE",
"537 402 CURVE SMOOTH",
"534 378 LINE SMOOTH",
"501 115 OFFCURVE",
"375 20 OFFCURVE",
"215 20 CURVE SMOOTH"
);
}
);
width = 615;
}
);
unicode = 0044;
},
{
glyphname = Dcaron;
lastChange = "2015-06-21 14:11:14 +0000";
layers = (
{
layerId = "B9198381-BC0C-4069-9423-397854D57297";
name = Bold;
paths = (
{
closed = 1;
nodes = (
"171 950 LINE",
"286 840 LINE",
"476 840 LINE",
"621 950 LINE",
"456 950 LINE",
"390 910 LINE",
"336 950 LINE"
);
},
{
closed = 1;
nodes = (
"641 410 LINE SMOOTH",
"677 680 OFFCURVE",
"593 780 OFFCURVE",
"348 780 CURVE SMOOTH",
"103 780 LINE",
"1 0 LINE",
"256 0 LINE SMOOTH",
"501 0 OFFCURVE",
"600 102 OFFCURVE",
"636 372 CURVE SMOOTH"
);
},
{
closed = 1;
nodes = (
"212 164 LINE",
"272 616 LINE",
"317 616 LINE SMOOTH",
"447 616 OFFCURVE",
"466 545 OFFCURVE",
"448 410 CURVE SMOOTH",
"443 372 LINE SMOOTH",
"425 237 OFFCURVE",
"397 164 OFFCURVE",
"267 164 CURVE SMOOTH"
);
}
);
width = 670;
},
{
layerId = "77865E0F-7A14-4552-9F9F-E712627EBCD5";
name = Light;
paths = (
{
closed = 1;
nodes = (
"558 402 LINE SMOOTH",
"593 683 OFFCURVE",
"486 780 OFFCURVE",
"321 780 CURVE SMOOTH",
"133 780 LINE",
"31 0 LINE",
"215 0 LINE SMOOTH",
"380 0 OFFCURVE",
"520 98 OFFCURVE",
"555 378 CURVE SMOOTH"
);
},
{
closed = 1;
nodes = (
"54 20 LINE",
"151 760 LINE",
"321 760 LINE SMOOTH",
"481 760 OFFCURVE",
"570 664 OFFCURVE",
"537 402 CURVE SMOOTH",
"534 378 LINE SMOOTH",
"501 115 OFFCURVE",
"375 20 OFFCURVE",
"215 20 CURVE SMOOTH"
);
},
{
closed = 1;
nodes = (
"431 950 LINE",
"332 855 LINE",
"259 950 LINE",
"236 950 LINE",
"321 840 LINE",
"341 840 LINE",
"456 950 LINE"
);
}
);
width = 615;
}
);
unicode = 010E;
},
{
glyphname = Ddotaccent;
lastChange = "2015-06-21 14:11:14 +0000";
layers = (
{
layerId = "B9198381-BC0C-4069-9423-397854D57297";
name = Bold;
paths = (
{
closed = 1;
nodes = (
"471 950 LINE",
"321 950 LINE",
"306 840 LINE",
"456 840 LINE"
);
},
{
closed = 1;
nodes = (
"641 410 LINE SMOOTH",
"677 680 OFFCURVE",
"593 780 OFFCURVE",
"348 780 CURVE SMOOTH",
"103 780 LINE",
"1 0 LINE",
"256 0 LINE SMOOTH",
"501 0 OFFCURVE",
"600 102 OFFCURVE",
"636 372 CURVE SMOOTH"
);
},
{
closed = 1;
nodes = (
"212 164 LINE",
"272 616 LINE",
"317 616 LINE SMOOTH",
"447 616 OFFCURVE",
"466 545 OFFCURVE",
"448 410 CURVE SMOOTH",
"443 372 LINE SMOOTH",
"425 237 OFFCURVE",
"397 164 OFFCURVE",
"267 164 CURVE SMOOTH"
);
}
);
width = 670;
},
{
layerId = "77865E0F-7A14-4552-9F9F-E712627EBCD5";
name = Light;
paths = (
{
closed = 1;
nodes = (
"558 402 LINE SMOOTH",
"593 683 OFFCURVE",
"486 780 OFFCURVE",
"321 780 CURVE SMOOTH",
"133 780 LINE",
"31 0 LINE",
"215 0 LINE SMOOTH",
"380 0 OFFCURVE",
"520 98 OFFCURVE",
"555 378 CURVE SMOOTH"
);
},
{
closed = 1;
nodes = (
"54 20 LINE",
"151 760 LINE",
"321 760 LINE SMOOTH",
"481 760 OFFCURVE",
"570 664 OFFCURVE",
"537 402 CURVE SMOOTH",
"534 378 LINE SMOOTH",
"501 115 OFFCURVE",
"375 20 OFFCURVE",
"215 20 CURVE SMOOTH"
);
},
{
closed = 1;
nodes = (
"361 915 LINE",
"321 915 LINE",
"316 875 LINE",
"356 875 LINE"
);
}
);
width = 615;
}
);
unicode = 1E0A;
},
{
glyphname = E;
lastChange = "2015-06-21 14:11:14 +0000";
layers = (
{
layerId = "B9198381-BC0C-4069-9423-397854D57297";
name = Bold;
paths = (
{
closed = 1;
nodes = (
"103 780 LINE",
"1 0 LINE",
"491 0 LINE",
"512 164 LINE",
"212 164 LINE",
"232 316 LINE",
"482 316 LINE",
"504 480 LINE",
"254 480 LINE",
"272 616 LINE",
"572 616 LINE",
"593 780 LINE"
);
}
);
width = 580;
},
{
layerId = "77865E0F-7A14-4552-9F9F-E712627EBCD5";
name = Light;
paths = (
{
closed = 1;
nodes = (
"133 780 LINE",
"31 0 LINE",
"441 0 LINE",
"444 20 LINE",
"54 20 LINE",
"102 388 LINE",
"441 388 LINE",
"444 408 LINE",
"105 408 LINE",
"151 760 LINE",
"540 760 LINE",
"543 780 LINE"
);
}
);
width = 540;
}
);
unicode = 0045;
},
{
glyphname = Egrave;
lastChange = "2015-06-21 14:11:14 +0000";
layers = (
{
layerId = "B9198381-BC0C-4069-9423-397854D57297";
name = Bold;
paths = (
{
closed = 1;
nodes = (
"103 780 LINE",
"1 0 LINE",
"491 0 LINE",
"512 164 LINE",
"212 164 LINE",
"232 316 LINE",
"482 316 LINE",
"504 480 LINE",
"254 480 LINE",
"272 616 LINE",
"572 616 LINE",
"593 780 LINE"
);
},
{
closed = 1;
nodes = (
"216 950 LINE",
"265 840 LINE",
"447 840 LINE",
"409 950 LINE"
);
}
);
width = 580;
},
{
layerId = "77865E0F-7A14-4552-9F9F-E712627EBCD5";
name = Light;
paths = (
{
closed = 1;
nodes = (
"133 780 LINE",
"31 0 LINE",
"441 0 LINE",
"444 20 LINE",
"54 20 LINE",
"102 388 LINE",
"441 388 LINE",
"444 408 LINE",
"105 408 LINE",
"151 760 LINE",
"540 760 LINE",
"543 780 LINE"
);
},
{
closed = 1;
nodes = (
"293 950 LINE",
"340 840 LINE",
"362 840 LINE",
"315 950 LINE"
);
}
);
width = 540;
}
);
unicode = 00C8;
},
{
glyphname = Eacute;
lastChange = "2015-06-21 14:11:14 +0000";
layers = (
{
layerId = "B9198381-BC0C-4069-9423-397854D57297";
name = Bold;
paths = (
{
closed = 1;
nodes = (
"103 780 LINE",
"1 0 LINE",
"491 0 LINE",
"512 164 LINE",
"212 164 LINE",
"232 316 LINE",
"482 316 LINE",
"504 480 LINE",
"254 480 LINE",
"272 616 LINE",
"572 616 LINE",
"593 780 LINE"
);
},
{
closed = 1;
nodes = (
"333 950 LINE",
"265 840 LINE",
"447 840 LINE",
"526 950 LINE"
);
}
);
width = 580;
},
{
layerId = "77865E0F-7A14-4552-9F9F-E712627EBCD5";
name = Light;
paths = (
{
closed = 1;
nodes = (
"133 780 LINE",
"31 0 LINE",
"441 0 LINE",
"444 20 LINE",
"54 20 LINE",
"102 388 LINE",
"441 388 LINE",
"444 408 LINE",
"105 408 LINE",
"151 760 LINE",
"540 760 LINE",
"543 780 LINE"
);
},
{
closed = 1;
nodes = (
"417 950 LINE",
"340 840 LINE",
"362 840 LINE",
"439 950 LINE"
);
}
);
width = 540;
}
);
unicode = 00C9;
},
{
glyphname = Ecircumflex;
lastChange = "2015-06-21 14:11:14 +0000";
layers = (
{
layerId = "B9198381-BC0C-4069-9423-397854D57297";
name = Bold;
paths = (
{
closed = 1;
nodes = (
"103 780 LINE",
"1 0 LINE",
"491 0 LINE",
"512 164 LINE",
"212 164 LINE",
"232 316 LINE",
"482 316 LINE",
"504 480 LINE",
"254 480 LINE",
"272 616 LINE",
"572 616 LINE",
"593 780 LINE"
);
},
{
closed = 1;
nodes = (
"296 840 LINE",
"361 879 LINE",
"416 840 LINE",
"581 840 LINE",
"466 950 LINE",
"276 950 LINE",
"131 840 LINE"
);
}
);
width = 580;
},
{
layerId = "77865E0F-7A14-4552-9F9F-E712627EBCD5";
name = Light;
paths = (
{
closed = 1;
nodes = (
"133 780 LINE",
"31 0 LINE",
"441 0 LINE",
"444 20 LINE",
"54 20 LINE",
"102 388 LINE",
"441 388 LINE",
"444 408 LINE",
"105 408 LINE",
"151 760 LINE",
"540 760 LINE",
"543 780 LINE"
);
},
{
closed = 1;
nodes = (
"266 840 LINE",
"365 935 LINE",
"438 840 LINE",
"461 840 LINE",
"376 950 LINE",
"356 950 LINE",
"241 840 LINE"
);
}
);
width = 540;
}
);
unicode = 00CA;
},
{
glyphname = Edieresis;
lastChange = "2015-06-21 14:11:14 +0000";
layers = (
{
layerId = "B9198381-BC0C-4069-9423-397854D57297";
name = Bold;
paths = (
{
closed = 1;
nodes = (
"103 780 LINE",
"1 0 LINE",
"491 0 LINE",
"512 164 LINE",
"212 164 LINE",
"232 316 LINE",
"482 316 LINE",
"504 480 LINE",
"254 480 LINE",
"272 616 LINE",
"572 616 LINE",
"593 780 LINE"
);
},
{
closed = 1;
nodes = (
"536 950 LINE",
"386 950 LINE",
"371 840 LINE",
"521 840 LINE"
);
},
{
closed = 1;
nodes = (
"356 950 LINE",
"206 950 LINE",
"191 840 LINE",
"341 840 LINE"
);
}
);
width = 580;
},
{
layerId = "77865E0F-7A14-4552-9F9F-E712627EBCD5";
name = Light;
paths = (
{
closed = 1;
nodes = (
"133 780 LINE",
"31 0 LINE",
"441 0 LINE",
"444 20 LINE",
"54 20 LINE",
"102 388 LINE",
"441 388 LINE",
"444 408 LINE",
"105 408 LINE",
"151 760 LINE",
"540 760 LINE",
"543 780 LINE"
);
},
{
closed = 1;
nodes = (
"311 915 LINE",
"271 915 LINE",
"266 875 LINE",
"306 875 LINE"
);
},
{
closed = 1;
nodes = (
"451 915 LINE",
"411 915 LINE",
"406 875 LINE",
"446 875 LINE"
);
}
);
width = 540;
}
);
unicode = 00CB;
},
{
glyphname = Emacron;
lastChange = "2015-06-21 14:11:14 +0000";
layers = (
{
layerId = "B9198381-BC0C-4069-9423-397854D57297";
name = Bold;
paths = (
{
closed = 1;
nodes = (
"103 780 LINE",
"1 0 LINE",
"491 0 LINE",
"512 164 LINE",
"212 164 LINE",
"232 316 LINE",
"482 316 LINE",
"504 480 LINE",
"254 480 LINE",
"272 616 LINE",
"572 616 LINE",
"593 780 LINE"
);
},
{
closed = 1;
nodes = (
"196 840 LINE",
"516 840 LINE",
"531 950 LINE",
"211 950 LINE"
);
}
);
width = 580;
},
{
layerId = "77865E0F-7A14-4552-9F9F-E712627EBCD5";
name = Light;
paths = (
{
closed = 1;
nodes = (
"133 780 LINE",
"31 0 LINE",
"441 0 LINE",
"444 20 LINE",
"54 20 LINE",
"102 388 LINE",
"441 388 LINE",
"444 408 LINE",
"105 408 LINE",
"151 760 LINE",
"540 760 LINE",
"543 780 LINE"
);
},
{
closed = 1;
nodes = (
"257 885 LINE",
"457 885 LINE",
"460 905 LINE",
"260 905 LINE"
);
}
);
width = 540;
}
);
unicode = 0112;
},
{
glyphname = Ebreve;
lastChange = "2015-06-21 14:11:14 +0000";
layers = (
{
layerId = "B9198381-BC0C-4069-9423-397854D57297";
name = Bold;
paths = (
{
closed = 1;
nodes = (
"103 780 LINE",
"1 0 LINE",
"491 0 LINE",
"512 164 LINE",
"212 164 LINE",
"232 316 LINE",
"482 316 LINE",
"504 480 LINE",
"254 480 LINE",
"272 616 LINE",
"572 616 LINE",
"593 780 LINE"
);
},
{
closed = 1;
nodes = (
"354 824 CURVE SMOOTH",
"514 824 OFFCURVE",
"557 883 OFFCURVE",
"566 950 CURVE",
"441 950 LINE",
"438 930 OFFCURVE",
"417 920 OFFCURVE",
"367 920 CURVE SMOOTH",
"317 920 OFFCURVE",
"298 930 OFFCURVE",
"301 950 CURVE",
"176 950 LINE",
"167 883 OFFCURVE",
"194 824 OFFCURVE"
);
}
);
width = 580;
},
{
layerId = "77865E0F-7A14-4552-9F9F-E712627EBCD5";
name = Light;
paths = (
{
closed = 1;
nodes = (
"133 780 LINE",
"31 0 LINE",
"441 0 LINE",
"444 20 LINE",
"54 20 LINE",
"102 388 LINE",
"441 388 LINE",
"444 408 LINE",
"105 408 LINE",
"151 760 LINE",
"540 760 LINE",
"543 780 LINE"
);
},
{
closed = 1;
nodes = (
"350 852 CURVE SMOOTH",
"278 852 OFFCURVE",
"245 890 OFFCURVE",
"253 950 CURVE",
"236 950 LINE",
"226 880 OFFCURVE",
"267 834 OFFCURVE",
"351 834 CURVE SMOOTH",
"434 834 OFFCURVE",
"486 880 OFFCURVE",
"496 950 CURVE",
"477 950 LINE",
"469 890 OFFCURVE",
"421 852 OFFCURVE"
);
}
);
width = 540;
}
);
unicode = 0114;
},
{
glyphname = Edotaccent;
lastChange = "2015-06-21 14:11:14 +0000";
layers = (
{
layerId = "B9198381-BC0C-4069-9423-397854D57297";
name = Bold;
paths = (
{
closed = 1;
nodes = (
"103 780 LINE",
"1 0 LINE",
"491 0 LINE",
"512 164 LINE",
"212 164 LINE",
"232 316 LINE",
"482 316 LINE",
"504 480 LINE",
"254 480 LINE",
"272 616 LINE",
"572 616 LINE",
"593 780 LINE"
);
},
{
closed = 1;
nodes = (
"446 950 LINE",
"296 950 LINE",
"281 840 LINE",
"431 840 LINE"
);
}
);
width = 580;
},
{
layerId = "77865E0F-7A14-4552-9F9F-E712627EBCD5";
name = Light;
paths = (
{
closed = 1;
nodes = (
"133 780 LINE",
"31 0 LINE",
"441 0 LINE",
"444 20 LINE",
"54 20 LINE",
"102 388 LINE",
"441 388 LINE",
"444 408 LINE",
"105 408 LINE",
"151 760 LINE",
"540 760 LINE",
"543 780 LINE"
);
},
{
closed = 1;
nodes = (
"381 915 LINE",
"341 915 LINE",
"336 875 LINE",
"376 875 LINE"
);
}
);
width = 540;
}
);
unicode = 0116;
},
{
glyphname = Eogonek;
lastChange = "2015-06-21 14:11:14 +0000";
layers = (
{
layerId = "B9198381-BC0C-4069-9423-397854D57297";
name = Bold;
paths = (
{
closed = 1;
nodes = (
"491 0 CURVE",
"512 164 LINE",
"212 164 LINE",
"232 316 LINE",
"482 316 LINE",
"504 480 LINE",
"254 480 LINE",
"272 616 LINE",
"572 616 LINE",
"593 780 LINE",
"103 780 LINE",
"1 0 LINE",
"342 0 LINE",
"309 -32 OFFCURVE",
"286 -75 OFFCURVE",
"286 -123 CURVE SMOOTH",
"286 -186 OFFCURVE",
"336 -216 OFFCURVE",
"414 -216 CURVE SMOOTH",
"459 -216 OFFCURVE",
"503 -203 OFFCURVE",
"525 -190 CURVE",
"499 -80 LINE",
"492 -84 OFFCURVE",
"480 -90 OFFCURVE",
"462 -90 CURVE SMOOTH",
"441 -90 OFFCURVE",
"427 -79 OFFCURVE",
"427 -63 CURVE SMOOTH",
"427 -29 OFFCURVE",
"466 -11 OFFCURVE"
);
}
);
width = 580;
},
{
layerId = "77865E0F-7A14-4552-9F9F-E712627EBCD5";
name = Light;
paths = (
{
closed = 1;
nodes = (
"456 -170 LINE",
"440 -178 OFFCURVE",
"415 -188 OFFCURVE",
"381 -188 CURVE SMOOTH",
"346 -188 OFFCURVE",
"317 -173 OFFCURVE",
"317 -129 CURVE SMOOTH",
"317 -48 OFFCURVE",
"391 -16 OFFCURVE",
"441 0 CURVE",
"444 20 LINE",
"54 20 LINE",
"102 388 LINE",
"441 388 LINE",
"444 408 LINE",
"105 408 LINE",
"151 760 LINE",
"540 760 LINE",
"543 780 LINE",
"133 780 LINE",
"31 0 LINE",
"393 0 LINE",
"343 -22 OFFCURVE",
"299 -60 OFFCURVE",
"299 -129 CURVE SMOOTH",
"299 -182 OFFCURVE",
"336 -206 OFFCURVE",
"381 -206 CURVE SMOOTH",
"420 -206 OFFCURVE",
"441 -197 OFFCURVE",
"460 -187 CURVE"
);
}
);
width = 540;
}
);
unicode = 0118;
},
{
glyphname = Ecaron;
lastChange = "2015-06-21 14:11:14 +0000";
layers = (
{
layerId = "B9198381-BC0C-4069-9423-397854D57297";
name = Bold;
paths = (
{
closed = 1;
nodes = (
"103 780 LINE",
"1 0 LINE",
"491 0 LINE",
"512 164 LINE",
"212 164 LINE",
"232 316 LINE",
"482 316 LINE",
"504 480 LINE",
"254 480 LINE",
"272 616 LINE",
"572 616 LINE",
"593 780 LINE"
);
},
{
closed = 1;
nodes = (
"146 950 LINE",
"261 840 LINE",
"451 840 LINE",
"596 950 LINE",
"431 950 LINE",
"365 910 LINE",
"311 950 LINE"
);
}
);
width = 580;
},
{
layerId = "77865E0F-7A14-4552-9F9F-E712627EBCD5";
name = Light;
paths = (
{
closed = 1;
nodes = (
"133 780 LINE",
"31 0 LINE",
"441 0 LINE",
"444 20 LINE",
"54 20 LINE",
"102 388 LINE",
"441 388 LINE",
"444 408 LINE",
"105 408 LINE",
"151 760 LINE",
"540 760 LINE",
"543 780 LINE"
);
},
{
closed = 1;
nodes = (
"451 950 LINE",
"352 855 LINE",
"279 950 LINE",
"256 950 LINE",
"341 840 LINE",
"361 840 LINE",
"476 950 LINE"
);
}
);
width = 540;
}
);
unicode = 011A;
},
{
glyphname = F;
lastChange = "2015-06-21 14:11:14 +0000";
layers = (
{
layerId = "B9198381-BC0C-4069-9423-397854D57297";
name = Bold;
paths = (
{
closed = 1;
nodes = (
"103 780 LINE",
"1 0 LINE",
"191 0 LINE",
"232 316 LINE",
"482 316 LINE",
"504 480 LINE",
"254 480 LINE",
"272 616 LINE",
"572 616 LINE",
"593 780 LINE"
);
}
);
width = 560;
},
{
layerId = "77865E0F-7A14-4552-9F9F-E712627EBCD5";
name = Light;
paths = (
{
closed = 1;
nodes = (
"133 780 LINE",
"31 0 LINE",
"51 0 LINE",
"102 388 LINE",
"421 388 LINE",
"424 408 LINE",
"105 408 LINE",
"151 760 LINE",
"520 760 LINE",
"523 780 LINE"
);
}
);
width = 484;
}
);
unicode = 0046;
},
{
glyphname = Fdotaccent;
lastChange = "2015-06-21 14:11:14 +0000";
layers = (
{
layerId = "B9198381-BC0C-4069-9423-397854D57297";
name = Bold;
paths = (
{
closed = 1;
nodes = (
"103 780 LINE",
"1 0 LINE",
"191 0 LINE",
"232 316 LINE",
"482 316 LINE",
"504 480 LINE",
"254 480 LINE",
"272 616 LINE",
"572 616 LINE",
"593 780 LINE"
);
},
{
closed = 1;
nodes = (
"446 950 LINE",
"296 950 LINE",
"281 840 LINE",
"431 840 LINE"
);
}
);
width = 560;
},
{
layerId = "77865E0F-7A14-4552-9F9F-E712627EBCD5";
name = Light;
paths = (
{
closed = 1;
nodes = (
"133 780 LINE",
"31 0 LINE",
"51 0 LINE",
"102 388 LINE",
"421 388 LINE",
"424 408 LINE",
"105 408 LINE",
"151 760 LINE",
"520 760 LINE",
"523 780 LINE"
);
},
{
closed = 1;
nodes = (
"366 915 LINE",
"326 915 LINE",
"321 875 LINE",
"361 875 LINE"
);
}
);
width = 484;
}
);
unicode = 1E1E;
},
{
glyphname = G;
lastChange = "2015-06-21 14:11:14 +0000";
layers = (
{
layerId = "B9198381-BC0C-4069-9423-397854D57297";
name = Bold;
paths = (
{
closed = 1;
nodes = (
"310 -14 CURVE SMOOTH",
"458 -14 OFFCURVE",
"535 29 OFFCURVE",
"595 78 CURVE",
"642 434 LINE",
"358 434 LINE",
"336 270 LINE",
"430 270 LINE",
"417 170 LINE",
"397 159 OFFCURVE",
"360 150 OFFCURVE",
"331 150 CURVE SMOOTH",
"320 150 LINE SMOOTH",
"225 150 OFFCURVE",
"207 234 OFFCURVE",
"225 370 CURVE SMOOTH",
"230 408 LINE SMOOTH",
"248 543 OFFCURVE",
"279 630 OFFCURVE",
"374 630 CURVE SMOOTH",
"385 630 LINE SMOOTH",
"460 630 OFFCURVE",
"471 570 OFFCURVE",
"459 480 CURVE",
"649 480 LINE",
"654 519 LINE SMOOTH",
"678 707 OFFCURVE",
"582 794 OFFCURVE",
"391 794 CURVE SMOOTH",
"181 794 OFFCURVE",
"73 678 OFFCURVE",
"37 408 CURVE SMOOTH",
"32 370 LINE SMOOTH",
"-4 100 OFFCURVE",
"100 -14 OFFCURVE"
);
}
);
width = 680;
},
{
layerId = "77865E0F-7A14-4552-9F9F-E712627EBCD5";
name = Light;
paths = (
{
closed = 1;
nodes = (
"288 -6 CURVE SMOOTH",
"404 -6 OFFCURVE",
"472 38 OFFCURVE",
"511 77 CURVE",
"548 362 LINE",
"369 362 LINE",
"366 342 LINE",
"526 342 LINE",
"492 86 LINE",
"460 54 OFFCURVE",
"388 14 OFFCURVE",
"291 14 CURVE SMOOTH",
"285 14 LINE SMOOTH",
"127 14 OFFCURVE",
"53 118 OFFCURVE",
"86 378 CURVE SMOOTH",
"89 402 LINE SMOOTH",
"122 666 OFFCURVE",
"221 766 OFFCURVE",
"367 766 CURVE SMOOTH",
"373 766 LINE SMOOTH",
"516 766 OFFCURVE",
"572 695 OFFCURVE",
"546 500 CURVE",
"566 500 LINE",
"569 524 LINE SMOOTH",
"591 698 OFFCURVE",
"535 786 OFFCURVE",
"370 786 CURVE SMOOTH",
"205 786 OFFCURVE",
"103 680 OFFCURVE",
"68 402 CURVE SMOOTH",
"65 378 LINE SMOOTH",
"31 108 OFFCURVE",
"111 -6 OFFCURVE"
);
}
);
width = 625;
}
);
unicode = 0047;
},
{
glyphname = Gcircumflex;
lastChange = "2015-06-21 14:11:14 +0000";
layers = (
{
layerId = "B9198381-BC0C-4069-9423-397854D57297";
name = Bold;
paths = (
{
closed = 1;
nodes = (
"341 840 LINE",
"406 879 LINE",
"461 840 LINE",
"626 840 LINE",
"511 950 LINE",
"321 950 LINE",
"176 840 LINE"
);
},
{
closed = 1;
nodes = (
"310 -14 CURVE SMOOTH",
"458 -14 OFFCURVE",
"535 29 OFFCURVE",
"595 78 CURVE",
"642 434 LINE",
"358 434 LINE",
"336 270 LINE",
"430 270 LINE",
"417 170 LINE",
"397 159 OFFCURVE",
"360 150 OFFCURVE",
"331 150 CURVE SMOOTH",
"320 150 LINE SMOOTH",
"225 150 OFFCURVE",
"207 234 OFFCURVE",
"225 370 CURVE SMOOTH",
"230 408 LINE SMOOTH",
"248 543 OFFCURVE",
"279 630 OFFCURVE",
"374 630 CURVE SMOOTH",
"385 630 LINE SMOOTH",
"460 630 OFFCURVE",
"471 570 OFFCURVE",
"459 480 CURVE",
"649 480 LINE",
"654 519 LINE SMOOTH",
"678 707 OFFCURVE",
"582 794 OFFCURVE",
"391 794 CURVE SMOOTH",
"181 794 OFFCURVE",
"73 678 OFFCURVE",
"37 408 CURVE SMOOTH",
"32 370 LINE SMOOTH",
"-4 100 OFFCURVE",
"100 -14 OFFCURVE"
);
}
);
width = 680;
},
{
layerId = "77865E0F-7A14-4552-9F9F-E712627EBCD5";
name = Light;
paths = (
{
closed = 1;
nodes = (
"288 -6 CURVE SMOOTH",
"404 -6 OFFCURVE",
"472 38 OFFCURVE",
"511 77 CURVE",
"548 362 LINE",
"369 362 LINE",
"366 342 LINE",
"526 342 LINE",
"492 86 LINE",
"460 54 OFFCURVE",
"388 14 OFFCURVE",
"291 14 CURVE SMOOTH",
"285 14 LINE SMOOTH",
"127 14 OFFCURVE",
"53 118 OFFCURVE",
"86 378 CURVE SMOOTH",
"89 402 LINE SMOOTH",
"122 666 OFFCURVE",
"221 766 OFFCURVE",
"367 766 CURVE SMOOTH",
"373 766 LINE SMOOTH",
"516 766 OFFCURVE",
"572 695 OFFCURVE",
"546 500 CURVE",
"566 500 LINE",
"569 524 LINE SMOOTH",
"591 698 OFFCURVE",
"535 786 OFFCURVE",
"370 786 CURVE SMOOTH",
"205 786 OFFCURVE",
"103 680 OFFCURVE",
"68 402 CURVE SMOOTH",
"65 378 LINE SMOOTH",
"31 108 OFFCURVE",
"111 -6 OFFCURVE"
);
},
{
closed = 1;
nodes = (
"301 840 LINE",
"400 935 LINE",
"473 840 LINE",
"496 840 LINE",
"411 950 LINE",
"391 950 LINE",
"276 840 LINE"
);
}
);
width = 625;
}
);
unicode = 011C;
},
{
glyphname = Gbreve;
lastChange = "2015-06-21 14:11:14 +0000";
layers = (
{
layerId = "B9198381-BC0C-4069-9423-397854D57297";
name = Bold;
paths = (
{
closed = 1;
nodes = (
"399 824 CURVE SMOOTH",
"559 824 OFFCURVE",
"602 883 OFFCURVE",
"611 950 CURVE",
"486 950 LINE",
"483 930 OFFCURVE",
"462 920 OFFCURVE",
"412 920 CURVE SMOOTH",
"362 920 OFFCURVE",
"343 930 OFFCURVE",
"346 950 CURVE",
"221 950 LINE",
"212 883 OFFCURVE",
"239 824 OFFCURVE"
);
},
{
closed = 1;
nodes = (
"310 -14 CURVE SMOOTH",
"458 -14 OFFCURVE",
"535 29 OFFCURVE",
"595 78 CURVE",
"642 434 LINE",
"358 434 LINE",
"336 270 LINE",
"430 270 LINE",
"417 170 LINE",
"397 159 OFFCURVE",
"360 150 OFFCURVE",
"331 150 CURVE SMOOTH",
"320 150 LINE SMOOTH",
"225 150 OFFCURVE",
"207 234 OFFCURVE",
"225 370 CURVE SMOOTH",
"230 408 LINE SMOOTH",
"248 543 OFFCURVE",
"279 630 OFFCURVE",
"374 630 CURVE SMOOTH",
"385 630 LINE SMOOTH",
"460 630 OFFCURVE",
"471 570 OFFCURVE",
"459 480 CURVE",
"649 480 LINE",
"654 519 LINE SMOOTH",
"678 707 OFFCURVE",
"582 794 OFFCURVE",
"391 794 CURVE SMOOTH",
"181 794 OFFCURVE",
"73 678 OFFCURVE",
"37 408 CURVE SMOOTH",
"32 370 LINE SMOOTH",
"-4 100 OFFCURVE",
"100 -14 OFFCURVE"
);
}
);
width = 680;
},
{
layerId = "77865E0F-7A14-4552-9F9F-E712627EBCD5";
name = Light;
paths = (
{
closed = 1;
nodes = (
"288 -6 CURVE SMOOTH",
"404 -6 OFFCURVE",
"472 38 OFFCURVE",
"511 77 CURVE",
"548 362 LINE",
"369 362 LINE",
"366 342 LINE",
"526 342 LINE",
"492 86 LINE",
"460 54 OFFCURVE",
"388 14 OFFCURVE",
"291 14 CURVE SMOOTH",
"285 14 LINE SMOOTH",
"127 14 OFFCURVE",
"53 118 OFFCURVE",
"86 378 CURVE SMOOTH",
"89 402 LINE SMOOTH",
"122 666 OFFCURVE",
"221 766 OFFCURVE",
"367 766 CURVE SMOOTH",
"373 766 LINE SMOOTH",
"516 766 OFFCURVE",
"572 695 OFFCURVE",
"546 500 CURVE",
"566 500 LINE",
"569 524 LINE SMOOTH",
"591 698 OFFCURVE",
"535 786 OFFCURVE",
"370 786 CURVE SMOOTH",
"205 786 OFFCURVE",
"103 680 OFFCURVE",
"68 402 CURVE SMOOTH",
"65 378 LINE SMOOTH",
"31 108 OFFCURVE",
"111 -6 OFFCURVE"
);
},
{
closed = 1;
nodes = (
"385 852 CURVE SMOOTH",
"313 852 OFFCURVE",
"280 890 OFFCURVE",
"288 950 CURVE",
"271 950 LINE",
"261 880 OFFCURVE",
"302 834 OFFCURVE",
"386 834 CURVE SMOOTH",
"469 834 OFFCURVE",
"521 880 OFFCURVE",
"531 950 CURVE",
"512 950 LINE",
"504 890 OFFCURVE",
"456 852 OFFCURVE"
);
}
);
width = 625;
}
);
unicode = 011E;
},
{
glyphname = Gdotaccent;
lastChange = "2015-06-21 14:11:14 +0000";
layers = (
{
layerId = "B9198381-BC0C-4069-9423-397854D57297";
name = Bold;
paths = (
{
closed = 1;
nodes = (
"491 950 LINE",
"341 950 LINE",
"326 840 LINE",
"476 840 LINE"
);
},
{
closed = 1;
nodes = (
"310 -14 CURVE SMOOTH",
"458 -14 OFFCURVE",
"535 29 OFFCURVE",
"595 78 CURVE",
"642 434 LINE",
"358 434 LINE",
"336 270 LINE",
"430 270 LINE",
"417 170 LINE",
"397 159 OFFCURVE",
"360 150 OFFCURVE",
"331 150 CURVE SMOOTH",
"320 150 LINE SMOOTH",
"225 150 OFFCURVE",
"207 234 OFFCURVE",
"225 370 CURVE SMOOTH",
"230 408 LINE SMOOTH",
"248 543 OFFCURVE",
"279 630 OFFCURVE",
"374 630 CURVE SMOOTH",
"385 630 LINE SMOOTH",
"460 630 OFFCURVE",
"471 570 OFFCURVE",
"459 480 CURVE",
"649 480 LINE",
"654 519 LINE SMOOTH",
"678 707 OFFCURVE",
"582 794 OFFCURVE",
"391 794 CURVE SMOOTH",
"181 794 OFFCURVE",
"73 678 OFFCURVE",
"37 408 CURVE SMOOTH",
"32 370 LINE SMOOTH",
"-4 100 OFFCURVE",
"100 -14 OFFCURVE"
);
}
);
width = 680;
},
{
layerId = "77865E0F-7A14-4552-9F9F-E712627EBCD5";
name = Light;
paths = (
{
closed = 1;
nodes = (
"288 -6 CURVE SMOOTH",
"404 -6 OFFCURVE",
"472 38 OFFCURVE",
"511 77 CURVE",
"548 362 LINE",
"369 362 LINE",
"366 342 LINE",
"526 342 LINE",
"492 86 LINE",
"460 54 OFFCURVE",
"388 14 OFFCURVE",
"291 14 CURVE SMOOTH",
"285 14 LINE SMOOTH",
"127 14 OFFCURVE",
"53 118 OFFCURVE",
"86 378 CURVE SMOOTH",
"89 402 LINE SMOOTH",
"122 666 OFFCURVE",
"221 766 OFFCURVE",
"367 766 CURVE SMOOTH",
"373 766 LINE SMOOTH",
"516 766 OFFCURVE",
"572 695 OFFCURVE",
"546 500 CURVE",
"566 500 LINE",
"569 524 LINE SMOOTH",
"591 698 OFFCURVE",
"535 786 OFFCURVE",
"370 786 CURVE SMOOTH",
"205 786 OFFCURVE",
"103 680 OFFCURVE",
"68 402 CURVE SMOOTH",
"65 378 LINE SMOOTH",
"31 108 OFFCURVE",
"111 -6 OFFCURVE"
);
},
{
closed = 1;
nodes = (
"416 915 LINE",
"376 915 LINE",
"371 875 LINE",
"411 875 LINE"
);
}
);
width = 625;
}
);
unicode = 0120;
},
{
glyphname = Gcommaaccent;
lastChange = "2015-06-21 14:11:14 +0000";
layers = (
{
layerId = "B9198381-BC0C-4069-9423-397854D57297";
name = Bold;
paths = (
{
closed = 1;
nodes = (
"375 -40 LINE",
"215 -40 LINE",
"202 -140 LINE",
"290 -140 LINE",
"272 -163 OFFCURVE",
"241 -170 OFFCURVE",
"198 -170 CURVE",
"190 -230 LINE",
"300 -230 OFFCURVE",
"355 -195 OFFCURVE",
"367 -100 CURVE SMOOTH"
);
},
{
closed = 1;
nodes = (
"310 -14 CURVE SMOOTH",
"458 -14 OFFCURVE",
"535 29 OFFCURVE",
"595 78 CURVE",
"642 434 LINE",
"358 434 LINE",
"336 270 LINE",
"430 270 LINE",
"417 170 LINE",
"397 159 OFFCURVE",
"360 150 OFFCURVE",
"331 150 CURVE SMOOTH",
"320 150 LINE SMOOTH",
"225 150 OFFCURVE",
"207 234 OFFCURVE",
"225 370 CURVE SMOOTH",
"230 408 LINE SMOOTH",
"248 543 OFFCURVE",
"279 630 OFFCURVE",
"374 630 CURVE SMOOTH",
"385 630 LINE SMOOTH",
"460 630 OFFCURVE",
"471 570 OFFCURVE",
"459 480 CURVE",
"649 480 LINE",
"654 519 LINE SMOOTH",
"678 707 OFFCURVE",
"582 794 OFFCURVE",
"391 794 CURVE SMOOTH",
"181 794 OFFCURVE",
"73 678 OFFCURVE",
"37 408 CURVE SMOOTH",
"32 370 LINE SMOOTH",
"-4 100 OFFCURVE",
"100 -14 OFFCURVE"
);
}
);
width = 680;
},
{
layerId = "77865E0F-7A14-4552-9F9F-E712627EBCD5";
name = Light;
paths = (
{
closed = 1;
nodes = (
"288 -6 CURVE SMOOTH",
"404 -6 OFFCURVE",
"472 38 OFFCURVE",
"511 77 CURVE",
"548 362 LINE",
"369 362 LINE",
"366 342 LINE",
"526 342 LINE",
"492 86 LINE",
"460 54 OFFCURVE",
"388 14 OFFCURVE",
"291 14 CURVE SMOOTH",
"285 14 LINE SMOOTH",
"127 14 OFFCURVE",
"53 118 OFFCURVE",
"86 378 CURVE SMOOTH",
"89 402 LINE SMOOTH",
"122 666 OFFCURVE",
"221 766 OFFCURVE",
"367 766 CURVE SMOOTH",
"373 766 LINE SMOOTH",
"516 766 OFFCURVE",
"572 695 OFFCURVE",
"546 500 CURVE",
"566 500 LINE",
"569 524 LINE SMOOTH",
"591 698 OFFCURVE",
"535 786 OFFCURVE",
"370 786 CURVE SMOOTH",
"205 786 OFFCURVE",
"103 680 OFFCURVE",
"68 402 CURVE SMOOTH",
"65 378 LINE SMOOTH",
"31 108 OFFCURVE",
"111 -6 OFFCURVE"
);
},
{
closed = 1;
nodes = (
"297 -70 LINE",
"257 -70 LINE",
"252 -110 LINE",
"272 -110 LINE",
"262 -176 OFFCURVE",
"226 -186 OFFCURVE",
"201 -186 CURVE",
"199 -206 LINE",
"241 -206 OFFCURVE",
"283 -178 OFFCURVE",
"293 -102 CURVE SMOOTH"
);
}
);
width = 625;
}
);
unicode = 0122;
},
{
glyphname = H;
lastChange = "2015-06-21 14:11:14 +0000";
layers = (
{
layerId = "B9198381-BC0C-4069-9423-397854D57297";
name = Bold;
paths = (
{
closed = 1;
nodes = (
"483 780 LINE",
"444 480 LINE",
"254 480 LINE",
"293 780 LINE",
"103 780 LINE",
"1 0 LINE",
"191 0 LINE",
"232 316 LINE",
"422 316 LINE",
"381 0 LINE",
"571 0 LINE",
"673 780 LINE"
);
}
);
width = 670;
},
{
layerId = "77865E0F-7A14-4552-9F9F-E712627EBCD5";
name = Light;
paths = (
{
closed = 1;
nodes = (
"573 780 LINE",
"524 408 LINE",
"104 408 LINE",
"153 780 LINE",
"133 780 LINE",
"31 0 LINE",
"51 0 LINE",
"102 388 LINE",
"522 388 LINE",
"471 0 LINE",
"491 0 LINE",
"593 780 LINE"
);
}
);
width = 620;
}
);
unicode = 0048;
},
{
glyphname = Hcircumflex;
lastChange = "2015-06-21 14:11:14 +0000";
layers = (
{
layerId = "B9198381-BC0C-4069-9423-397854D57297";
name = Bold;
paths = (
{
closed = 1;
nodes = (
"483 780 LINE",
"444 480 LINE",
"254 480 LINE",
"293 780 LINE",
"103 780 LINE",
"1 0 LINE",
"191 0 LINE",
"232 316 LINE",
"422 316 LINE",
"381 0 LINE",
"571 0 LINE",
"673 780 LINE"
);
},
{
closed = 1;
nodes = (
"336 840 LINE",
"401 879 LINE",
"456 840 LINE",
"621 840 LINE",
"506 950 LINE",
"316 950 LINE",
"171 840 LINE"
);
}
);
width = 670;
},
{
layerId = "77865E0F-7A14-4552-9F9F-E712627EBCD5";
name = Light;
paths = (
{
closed = 1;
nodes = (
"573 780 LINE",
"524 408 LINE",
"104 408 LINE",
"153 780 LINE",
"133 780 LINE",
"31 0 LINE",
"51 0 LINE",
"102 388 LINE",
"522 388 LINE",
"471 0 LINE",
"491 0 LINE",
"593 780 LINE"
);
},
{
closed = 1;
nodes = (
"286 840 LINE",
"385 935 LINE",
"458 840 LINE",
"481 840 LINE",
"396 950 LINE",
"376 950 LINE",
"261 840 LINE"
);
}
);
width = 620;
}
);
unicode = 0124;
},
{
glyphname = I;
lastChange = "2015-06-21 14:11:14 +0000";
layers = (
{
layerId = "B9198381-BC0C-4069-9423-397854D57297";
name = Bold;
paths = (
{
closed = 1;
nodes = (
"298 780 LINE",
"108 780 LINE",
"6 0 LINE",
"196 0 LINE"
);
}
);
width = 300;
},
{
layerId = "77865E0F-7A14-4552-9F9F-E712627EBCD5";
name = Light;
paths = (
{
closed = 1;
nodes = (
"158 780 LINE",
"138 780 LINE",
"36 0 LINE",
"56 0 LINE"
);
}
);
width = 190;
}
);
unicode = 0049;
},
{
glyphname = Igrave;
lastChange = "2015-06-21 14:11:14 +0000";
layers = (
{
layerId = "B9198381-BC0C-4069-9423-397854D57297";
name = Bold;
paths = (
{
closed = 1;
nodes = (
"298 780 LINE",
"108 780 LINE",
"6 0 LINE",
"196 0 LINE"
);
},
{
closed = 1;
nodes = (
"71 950 LINE",
"120 840 LINE",
"302 840 LINE",
"264 950 LINE"
);
}
);
width = 300;
},
{
layerId = "77865E0F-7A14-4552-9F9F-E712627EBCD5";
name = Light;
paths = (
{
closed = 1;
nodes = (
"158 780 LINE",
"138 780 LINE",
"36 0 LINE",
"56 0 LINE"
);
},
{
closed = 1;
nodes = (
"98 950 LINE",
"145 840 LINE",
"167 840 LINE",
"120 950 LINE"
);
}
);
width = 190;
}
);
unicode = 00CC;
},
{
glyphname = Iacute;
lastChange = "2015-06-21 14:11:14 +0000";
layers = (
{
layerId = "B9198381-BC0C-4069-9423-397854D57297";
name = Bold;
paths = (
{
closed = 1;
nodes = (
"298 780 LINE",
"108 780 LINE",
"6 0 LINE",
"196 0 LINE"
);
},
{
closed = 1;
nodes = (
"188 950 LINE",
"120 840 LINE",
"302 840 LINE",
"381 950 LINE"
);
}
);
width = 300;
},
{
layerId = "77865E0F-7A14-4552-9F9F-E712627EBCD5";
name = Light;
paths = (
{
closed = 1;
nodes = (
"158 780 LINE",
"138 780 LINE",
"36 0 LINE",
"56 0 LINE"
);
},
{
closed = 1;
nodes = (
"222 950 LINE",
"145 840 LINE",
"167 840 LINE",
"244 950 LINE"
);
}
);
width = 190;
}
);
unicode = 00CD;
},
{
glyphname = Icircumflex;
lastChange = "2015-06-21 14:11:14 +0000";
layers = (
{
layerId = "B9198381-BC0C-4069-9423-397854D57297";
name = Bold;
paths = (
{
closed = 1;
nodes = (
"298 780 LINE",
"108 780 LINE",
"6 0 LINE",
"196 0 LINE"
);
},
{
closed = 1;
nodes = (
"151 840 LINE",
"216 879 LINE",
"271 840 LINE",
"436 840 LINE",
"321 950 LINE",
"131 950 LINE",
"-14 840 LINE"
);
}
);
width = 300;
},
{
layerId = "77865E0F-7A14-4552-9F9F-E712627EBCD5";
name = Light;
paths = (
{
closed = 1;
nodes = (
"158 780 LINE",
"138 780 LINE",
"36 0 LINE",
"56 0 LINE"
);
},
{
closed = 1;
nodes = (
"71 840 LINE",
"170 935 LINE",
"243 840 LINE",
"266 840 LINE",
"181 950 LINE",
"161 950 LINE",
"46 840 LINE"
);
}
);
width = 190;
}
);
unicode = 00CE;
},
{
glyphname = Idieresis;
lastChange = "2015-06-21 14:11:14 +0000";
layers = (
{
layerId = "B9198381-BC0C-4069-9423-397854D57297";
name = Bold;
paths = (
{
closed = 1;
nodes = (
"298 780 LINE",
"108 780 LINE",
"6 0 LINE",
"196 0 LINE"
);
},
{
closed = 1;
nodes = (
"391 950 LINE",
"241 950 LINE",
"226 840 LINE",
"376 840 LINE"
);
},
{
closed = 1;
nodes = (
"211 950 LINE",
"61 950 LINE",
"46 840 LINE",
"196 840 LINE"
);
}
);
width = 300;
},
{
layerId = "77865E0F-7A14-4552-9F9F-E712627EBCD5";
name = Light;
paths = (
{
closed = 1;
nodes = (
"158 780 LINE",
"138 780 LINE",
"36 0 LINE",
"56 0 LINE"
);
},
{
closed = 1;
nodes = (
"256 915 LINE",
"216 915 LINE",
"211 875 LINE",
"251 875 LINE"
);
},
{
closed = 1;
nodes = (
"116 915 LINE",
"76 915 LINE",
"71 875 LINE",
"111 875 LINE"
);
}
);
width = 190;
}
);
unicode = 00CF;
},
{
glyphname = Itilde;
lastChange = "2015-06-21 14:11:14 +0000";
layers = (
{
layerId = "B9198381-BC0C-4069-9423-397854D57297";
name = Bold;
paths = (
{
closed = 1;
nodes = (
"298 780 LINE",
"108 780 LINE",
"6 0 LINE",
"196 0 LINE"
);
},
{
closed = 1;
nodes = (
"326 950 LINE",
"323 927 OFFCURVE",
"307 920 OFFCURVE",
"289 920 CURVE SMOOTH",
"252 920 OFFCURVE",
"208 966 OFFCURVE",
"143 966 CURVE SMOOTH",
"87 966 OFFCURVE",
"29 935 OFFCURVE",
"16 840 CURVE",
"111 840 LINE",
"114 863 OFFCURVE",
"130 870 OFFCURVE",
"148 870 CURVE SMOOTH",
"185 870 OFFCURVE",
"229 824 OFFCURVE",
"294 824 CURVE SMOOTH",
"350 824 OFFCURVE",
"408 855 OFFCURVE",
"421 950 CURVE"
);
}
);
width = 300;
},
{
layerId = "77865E0F-7A14-4552-9F9F-E712627EBCD5";
name = Light;
paths = (
{
closed = 1;
nodes = (
"158 780 LINE",
"138 780 LINE",
"36 0 LINE",
"56 0 LINE"
);
},
{
closed = 1;
nodes = (
"285 927 LINE",
"279 882 OFFCURVE",
"254 875 OFFCURVE",
"231 875 CURVE SMOOTH",
"184 875 OFFCURVE",
"148 933 OFFCURVE",
"96 933 CURVE SMOOTH",
"66 933 OFFCURVE",
"31 918 OFFCURVE",
"24 863 CURVE",
"42 863 LINE",
"48 908 OFFCURVE",
"73 915 OFFCURVE",
"96 915 CURVE SMOOTH",
"143 915 OFFCURVE",
"179 857 OFFCURVE",
"231 857 CURVE SMOOTH",
"261 857 OFFCURVE",
"296 872 OFFCURVE",
"303 927 CURVE"
);
}
);
width = 190;
}
);
unicode = 0128;
},
{
glyphname = Imacron;
lastChange = "2015-06-21 14:11:14 +0000";
layers = (
{
layerId = "B9198381-BC0C-4069-9423-397854D57297";
name = Bold;
paths = (
{
closed = 1;
nodes = (
"298 780 LINE",
"108 780 LINE",
"6 0 LINE",
"196 0 LINE"
);
},
{
closed = 1;
nodes = (
"51 840 LINE",
"371 840 LINE",
"386 950 LINE",
"66 950 LINE"
);
}
);
width = 300;
},
{
layerId = "77865E0F-7A14-4552-9F9F-E712627EBCD5";
name = Light;
paths = (
{
closed = 1;
nodes = (
"158 780 LINE",
"138 780 LINE",
"36 0 LINE",
"56 0 LINE"
);
},
{
closed = 1;
nodes = (
"62 885 LINE",
"262 885 LINE",
"265 905 LINE",
"65 905 LINE"
);
}
);
width = 190;
}
);
unicode = 012A;
},
{
glyphname = Ibreve;
lastChange = "2015-06-21 14:11:14 +0000";
layers = (
{
layerId = "B9198381-BC0C-4069-9423-397854D57297";
name = Bold;
paths = (
{
closed = 1;
nodes = (
"298 780 LINE",
"108 780 LINE",
"6 0 LINE",
"196 0 LINE"
);
},
{
closed = 1;
nodes = (
"209 824 CURVE SMOOTH",
"369 824 OFFCURVE",
"412 883 OFFCURVE",
"421 950 CURVE",
"296 950 LINE",
"293 930 OFFCURVE",
"272 920 OFFCURVE",
"222 920 CURVE SMOOTH",
"172 920 OFFCURVE",
"153 930 OFFCURVE",
"156 950 CURVE",
"31 950 LINE",
"22 883 OFFCURVE",
"49 824 OFFCURVE"
);
}
);
width = 300;
},
{
layerId = "77865E0F-7A14-4552-9F9F-E712627EBCD5";
name = Light;
paths = (
{
closed = 1;
nodes = (
"158 780 LINE",
"138 780 LINE",
"36 0 LINE",
"56 0 LINE"
);
},
{
closed = 1;
nodes = (
"155 852 CURVE SMOOTH",
"83 852 OFFCURVE",
"50 890 OFFCURVE",
"58 950 CURVE",
"41 950 LINE",
"31 880 OFFCURVE",
"72 834 OFFCURVE",
"156 834 CURVE SMOOTH",
"239 834 OFFCURVE",
"291 880 OFFCURVE",
"301 950 CURVE",
"282 950 LINE",
"274 890 OFFCURVE",
"226 852 OFFCURVE"
);
}
);
width = 190;
}
);
unicode = 012C;
},
{
glyphname = Iogonek;
lastChange = "2015-06-21 14:11:14 +0000";
layers = (
{
layerId = "B9198381-BC0C-4069-9423-397854D57297";
name = Bold;
paths = (
{
closed = 1;
nodes = (
"47 0 LINE",
"14 -32 OFFCURVE",
"-9 -75 OFFCURVE",
"-9 -123 CURVE SMOOTH",
"-9 -186 OFFCURVE",
"41 -216 OFFCURVE",
"119 -216 CURVE SMOOTH",
"164 -216 OFFCURVE",
"208 -203 OFFCURVE",
"230 -190 CURVE",
"204 -80 LINE",
"197 -84 OFFCURVE",
"185 -90 OFFCURVE",
"167 -90 CURVE SMOOTH",
"146 -90 OFFCURVE",
"132 -79 OFFCURVE",
"132 -63 CURVE SMOOTH",
"132 -29 OFFCURVE",
"171 -11 OFFCURVE",
"196 0 CURVE",
"298 780 LINE",
"108 780 LINE",
"6 0 LINE"
);
}
);
width = 300;
},
{
layerId = "77865E0F-7A14-4552-9F9F-E712627EBCD5";
name = Light;
paths = (
{
closed = 1;
nodes = (
"71 -170 LINE",
"55 -178 OFFCURVE",
"30 -188 OFFCURVE",
"-4 -188 CURVE SMOOTH",
"-39 -188 OFFCURVE",
"-68 -173 OFFCURVE",
"-68 -129 CURVE SMOOTH",
"-68 -48 OFFCURVE",
"6 -16 OFFCURVE",
"56 0 CURVE",
"158 780 LINE",
"138 780 LINE",
"37 11 LINE",
"-23 -9 OFFCURVE",
"-86 -47 OFFCURVE",
"-86 -129 CURVE SMOOTH",
"-86 -182 OFFCURVE",
"-49 -206 OFFCURVE",
"-4 -206 CURVE SMOOTH",
"35 -206 OFFCURVE",
"56 -197 OFFCURVE",
"75 -187 CURVE"
);
}
);
width = 190;
}
);
unicode = 012E;
},
{
glyphname = Idotaccent;
lastChange = "2015-06-21 14:11:14 +0000";
layers = (
{
layerId = "B9198381-BC0C-4069-9423-397854D57297";
name = Bold;
paths = (
{
closed = 1;
nodes = (
"298 780 LINE",
"108 780 LINE",
"6 0 LINE",
"196 0 LINE"
);
},
{
closed = 1;
nodes = (
"301 950 LINE",
"151 950 LINE",
"136 840 LINE",
"286 840 LINE"
);
}
);
width = 300;
},
{
layerId = "77865E0F-7A14-4552-9F9F-E712627EBCD5";
name = Light;
paths = (
{
closed = 1;
nodes = (
"158 780 LINE",
"138 780 LINE",
"36 0 LINE",
"56 0 LINE"
);
},
{
closed = 1;
nodes = (
"186 915 LINE",
"146 915 LINE",
"141 875 LINE",
"181 875 LINE"
);
}
);
width = 190;
}
);
unicode = 0130;
},
{
glyphname = J;
lastChange = "2015-06-21 14:11:14 +0000";
layers = (
{
layerId = "B9198381-BC0C-4069-9423-397854D57297";
name = Bold;
paths = (
{
closed = 1;
nodes = (
"368 780 LINE",
"300 260 LINE SMOOTH",
"291 192 OFFCURVE",
"273 150 OFFCURVE",
"226 150 CURVE SMOOTH",
"179 150 OFFCURVE",
"177 192 OFFCURVE",
"187 270 CURVE",
"7 270 LINE",
"3 240 LINE SMOOTH",
"-18 78 OFFCURVE",
"36 -14 OFFCURVE",
"216 -14 CURVE SMOOTH",
"386 -14 OFFCURVE",
"466 78 OFFCURVE",
"487 238 CURVE SMOOTH",
"558 780 LINE"
);
}
);
width = 550;
},
{
layerId = "77865E0F-7A14-4552-9F9F-E712627EBCD5";
name = Light;
paths = (
{
closed = 1;
nodes = (
"426 780 LINE",
"356 245 LINE SMOOTH",
"336 89 OFFCURVE",
"289 14 OFFCURVE",
"167 14 CURVE SMOOTH",
"46 14 OFFCURVE",
"12 95 OFFCURVE",
"36 247 CURVE",
"16 247 LINE",
"13 223 LINE SMOOTH",
"-4 88 OFFCURVE",
"32 -6 OFFCURVE",
"167 -6 CURVE SMOOTH",
"302 -6 OFFCURVE",
"355 84 OFFCURVE",
"373 223 CURVE SMOOTH",
"446 780 LINE"
);
}
);
width = 470;
}
);
unicode = 004A;
},
{
glyphname = Jcircumflex;
lastChange = "2015-06-21 14:11:14 +0000";
layers = (
{
layerId = "B9198381-BC0C-4069-9423-397854D57297";
name = Bold;
paths = (
{
closed = 1;
nodes = (
"411 840 LINE",
"476 879 LINE",
"531 840 LINE",
"696 840 LINE",
"581 950 LINE",
"391 950 LINE",
"246 840 LINE"
);
},
{
closed = 1;
nodes = (
"368 780 LINE",
"300 260 LINE SMOOTH",
"291 192 OFFCURVE",
"273 150 OFFCURVE",
"226 150 CURVE SMOOTH",
"179 150 OFFCURVE",
"177 192 OFFCURVE",
"187 270 CURVE",
"7 270 LINE",
"3 240 LINE SMOOTH",
"-18 78 OFFCURVE",
"36 -14 OFFCURVE",
"216 -14 CURVE SMOOTH",
"386 -14 OFFCURVE",
"466 78 OFFCURVE",
"487 238 CURVE SMOOTH",
"558 780 LINE"
);
}
);
width = 550;
},
{
layerId = "77865E0F-7A14-4552-9F9F-E712627EBCD5";
name = Light;
paths = (
{
closed = 1;
nodes = (
"426 780 LINE",
"356 245 LINE SMOOTH",
"336 89 OFFCURVE",
"289 14 OFFCURVE",
"167 14 CURVE SMOOTH",
"46 14 OFFCURVE",
"12 95 OFFCURVE",
"36 247 CURVE",
"16 247 LINE",
"13 223 LINE SMOOTH",
"-4 88 OFFCURVE",
"32 -6 OFFCURVE",
"167 -6 CURVE SMOOTH",
"302 -6 OFFCURVE",
"355 84 OFFCURVE",
"373 223 CURVE SMOOTH",
"446 780 LINE"
);
},
{
closed = 1;
nodes = (
"359 840 LINE",
"458 935 LINE",
"531 840 LINE",
"554 840 LINE",
"469 950 LINE",
"449 950 LINE",
"334 840 LINE"
);
}
);
width = 470;
}
);
unicode = 0134;
},
{
glyphname = K;
lastChange = "2015-06-21 14:11:14 +0000";
layers = (
{
layerId = "B9198381-BC0C-4069-9423-397854D57297";
name = Bold;
paths = (
{
closed = 1;
nodes = (
"293 780 LINE",
"103 780 LINE",
"1 0 LINE",
"191 0 LINE",
"219 220 LINE",
"283 297 LINE",
"371 0 LINE",
"581 0 LINE",
"429 473 LINE",
"683 780 LINE",
"453 780 LINE",
"258 512 LINE"
);
}
);
width = 645;
},
{
layerId = "77865E0F-7A14-4552-9F9F-E712627EBCD5";
name = Light;
paths = (
{
closed = 1;
nodes = (
"153 780 LINE",
"133 780 LINE",
"31 0 LINE",
"51 0 LINE",
"83 245 LINE",
"234 424 LINE",
"408 0 LINE",
"431 0 LINE",
"248 441 LINE",
"533 780 LINE",
"505 780 LINE",
"87 279 LINE"
);
}
);
width = 518;
}
);
unicode = 004B;
},
{
glyphname = Kcommaaccent;
lastChange = "2015-06-21 14:11:14 +0000";
layers = (
{
layerId = "B9198381-BC0C-4069-9423-397854D57297";
name = Bold;
paths = (
{
closed = 1;
nodes = (
"293 780 LINE",
"103 780 LINE",
"1 0 LINE",
"191 0 LINE",
"219 220 LINE",
"283 297 LINE",
"371 0 LINE",
"581 0 LINE",
"429 473 LINE",
"683 780 LINE",
"453 780 LINE",
"258 512 LINE"
);
},
{
closed = 1;
nodes = (
"350 -40 LINE",
"190 -40 LINE",
"177 -140 LINE",
"265 -140 LINE",
"247 -163 OFFCURVE",
"216 -170 OFFCURVE",
"173 -170 CURVE",
"165 -230 LINE",
"275 -230 OFFCURVE",
"330 -195 OFFCURVE",
"342 -100 CURVE SMOOTH"
);
}
);
width = 645;
},
{
layerId = "77865E0F-7A14-4552-9F9F-E712627EBCD5";
name = Light;
paths = (
{
closed = 1;
nodes = (
"221 -70 LINE",
"181 -70 LINE",
"176 -110 LINE",
"196 -110 LINE",
"186 -176 OFFCURVE",
"150 -186 OFFCURVE",
"125 -186 CURVE",
"123 -206 LINE",
"165 -206 OFFCURVE",
"207 -178 OFFCURVE",
"217 -102 CURVE SMOOTH"
);
},
{
closed = 1;
nodes = (
"153 780 LINE",
"133 780 LINE",
"31 0 LINE",
"51 0 LINE",
"83 245 LINE",
"234 424 LINE",
"408 0 LINE",
"431 0 LINE",
"248 441 LINE",
"533 780 LINE",
"505 780 LINE",
"87 279 LINE"
);
}
);
width = 518;
}
);
unicode = 0136;
},
{
glyphname = L;
lastChange = "2015-06-21 14:11:14 +0000";
layers = (
{
layerId = "B9198381-BC0C-4069-9423-397854D57297";
name = Bold;
paths = (
{
closed = 1;
nodes = (
"466 0 LINE",
"487 164 LINE",
"212 164 LINE",
"293 780 LINE",
"103 780 LINE",
"1 0 LINE"
);
}
);
width = 530;
},
{
layerId = "77865E0F-7A14-4552-9F9F-E712627EBCD5";
name = Light;
paths = (
{
closed = 1;
nodes = (
"401 0 LINE",
"404 20 LINE",
"54 20 LINE",
"154 780 LINE",
"133 780 LINE",
"31 0 LINE"
);
}
);
width = 464;
}
);
unicode = 004C;
},
{
glyphname = Lacute;
lastChange = "2015-06-21 14:11:14 +0000";
layers = (
{
layerId = "B9198381-BC0C-4069-9423-397854D57297";
name = Bold;
paths = (
{
closed = 1;
nodes = (
"466 0 LINE",
"487 164 LINE",
"212 164 LINE",
"293 780 LINE",
"103 780 LINE",
"1 0 LINE"
);
},
{
closed = 1;
nodes = (
"183 950 LINE",
"115 840 LINE",
"297 840 LINE",
"376 950 LINE"
);
}
);
width = 530;
},
{
layerId = "77865E0F-7A14-4552-9F9F-E712627EBCD5";
name = Light;
paths = (
{
closed = 1;
nodes = (
"217 950 LINE",
"140 840 LINE",
"162 840 LINE",
"239 950 LINE"
);
},
{
closed = 1;
nodes = (
"401 0 LINE",
"404 20 LINE",
"54 20 LINE",
"154 780 LINE",
"133 780 LINE",
"31 0 LINE"
);
}
);
width = 464;
}
);
unicode = 0139;
},
{
glyphname = Lcommaaccent;
lastChange = "2015-06-21 14:11:14 +0000";
layers = (
{
layerId = "B9198381-BC0C-4069-9423-397854D57297";
name = Bold;
paths = (
{
closed = 1;
nodes = (
"466 0 LINE",
"487 164 LINE",
"212 164 LINE",
"293 780 LINE",
"103 780 LINE",
"1 0 LINE"
);
},
{
closed = 1;
nodes = (
"307 -40 LINE",
"147 -40 LINE",
"134 -140 LINE",
"222 -140 LINE",
"204 -163 OFFCURVE",
"173 -170 OFFCURVE",
"130 -170 CURVE",
"122 -230 LINE",
"232 -230 OFFCURVE",
"287 -195 OFFCURVE",
"299 -100 CURVE SMOOTH"
);
}
);
width = 530;
},
{
layerId = "77865E0F-7A14-4552-9F9F-E712627EBCD5";
name = Light;
paths = (
{
closed = 1;
nodes = (
"401 0 LINE",
"404 20 LINE",
"54 20 LINE",
"154 780 LINE",
"133 780 LINE",
"31 0 LINE"
);
},
{
closed = 1;
nodes = (
"226 -70 LINE",
"186 -70 LINE",
"181 -110 LINE",
"201 -110 LINE",
"191 -176 OFFCURVE",
"155 -186 OFFCURVE",
"130 -186 CURVE",
"128 -206 LINE",
"170 -206 OFFCURVE",
"212 -178 OFFCURVE",
"222 -102 CURVE SMOOTH"
);
}
);
width = 464;
}
);
unicode = 013B;
},
{
glyphname = Lcaron;
lastChange = "2015-06-21 14:11:14 +0000";
layers = (
{
layerId = "B9198381-BC0C-4069-9423-397854D57297";
name = Bold;
paths = (
{
closed = 1;
nodes = (
"466 0 LINE",
"487 164 LINE",
"212 164 LINE",
"293 780 LINE",
"103 780 LINE",
"1 0 LINE"
);
},
{
closed = 1;
nodes = (
"399 800 LINE",
"371 590 LINE",
"451 590 LINE",
"504 800 LINE"
);
}
);
width = 530;
},
{
layerId = "77865E0F-7A14-4552-9F9F-E712627EBCD5";
name = Light;
paths = (
{
closed = 1;
nodes = (
"401 0 LINE",
"404 20 LINE",
"54 20 LINE",
"154 780 LINE",
"133 780 LINE",
"31 0 LINE"
);
},
{
closed = 1;
nodes = (
"353 780 LINE",
"332 620 LINE",
"342 620 LINE",
"373 780 LINE"
);
}
);
width = 464;
}
);
unicode = 013D;
},
{
glyphname = M;
lastChange = "2015-06-21 14:11:14 +0000";
layers = (
{
layerId = "B9198381-BC0C-4069-9423-397854D57297";
name = Bold;
paths = (
{
closed = 1;
nodes = (
"665 450 LINE",
"640 300 LINE",
"601 0 LINE",
"791 0 LINE",
"893 780 LINE",
"610 780 LINE",
"439 330 LINE",
"386 780 LINE",
"103 780 LINE",
"1 0 LINE",
"191 0 LINE",
"230 300 LINE",
"245 450 LINE",
"298 0 LINE",
"494 0 LINE"
);
}
);
width = 890;
},
{
layerId = "77865E0F-7A14-4552-9F9F-E712627EBCD5";
name = Light;
paths = (
{
closed = 1;
nodes = (
"334 30 LINE",
"154 780 LINE",
"133 780 LINE",
"31 0 LINE",
"51 0 LINE",
"124 560 LINE",
"145 734 LINE",
"321 0 LINE",
"341 0 LINE",
"709 734 LINE",
"684 561 LINE",
"611 0 LINE",
"631 0 LINE",
"733 780 LINE",
"710 780 LINE"
);
}
);
width = 760;
}
);
unicode = 004D;
},
{
glyphname = Mdotaccent;
lastChange = "2015-06-21 14:11:14 +0000";
layers = (
{
layerId = "B9198381-BC0C-4069-9423-397854D57297";
name = Bold;
paths = (
{
closed = 1;
nodes = (
"665 450 LINE",
"640 300 LINE",
"601 0 LINE",
"791 0 LINE",
"893 780 LINE",
"610 780 LINE",
"439 330 LINE",
"386 780 LINE",
"103 780 LINE",
"1 0 LINE",
"191 0 LINE",
"230 300 LINE",
"245 450 LINE",
"298 0 LINE",
"494 0 LINE"
);
},
{
closed = 1;
nodes = (
"596 950 LINE",
"446 950 LINE",
"431 840 LINE",
"581 840 LINE"
);
}
);
width = 890;
},
{
layerId = "77865E0F-7A14-4552-9F9F-E712627EBCD5";
name = Light;
paths = (
{
closed = 1;
nodes = (
"471 915 LINE",
"431 915 LINE",
"426 875 LINE",
"466 875 LINE"
);
},
{
closed = 1;
nodes = (
"334 30 LINE",
"154 780 LINE",
"133 780 LINE",
"31 0 LINE",
"51 0 LINE",
"124 560 LINE",
"145 734 LINE",
"321 0 LINE",
"341 0 LINE",
"709 734 LINE",
"684 561 LINE",
"611 0 LINE",
"631 0 LINE",
"733 780 LINE",
"710 780 LINE"
);
}
);
width = 760;
}
);
unicode = 1E40;
},
{
glyphname = N;
lastChange = "2015-06-21 14:11:14 +0000";
layers = (
{
layerId = "B9198381-BC0C-4069-9423-397854D57297";
name = Bold;
paths = (
{
closed = 1;
nodes = (
"693 780 LINE",
"513 780 LINE",
"476 500 LINE",
"462 350 LINE",
"303 780 LINE",
"103 780 LINE",
"1 0 LINE",
"181 0 LINE",
"217 280 LINE",
"232 430 LINE",
"391 0 LINE",
"591 0 LINE"
);
}
);
width = 690;
},
{
layerId = "77865E0F-7A14-4552-9F9F-E712627EBCD5";
name = Light;
paths = (
{
closed = 1;
nodes = (
"496 32 LINE",
"155 780 LINE",
"133 780 LINE",
"31 0 LINE",
"51 0 LINE",
"130 605 LINE",
"148 748 LINE",
"489 0 LINE",
"511 0 LINE",
"613 780 LINE",
"593 780 LINE",
"514 175 LINE"
);
}
);
width = 640;
}
);
unicode = 004E;
},
{
glyphname = Ntilde;
lastChange = "2015-06-21 14:11:14 +0000";
layers = (
{
layerId = "B9198381-BC0C-4069-9423-397854D57297";
name = Bold;
paths = (
{
closed = 1;
nodes = (
"693 780 LINE",
"513 780 LINE",
"476 500 LINE",
"462 350 LINE",
"303 780 LINE",
"103 780 LINE",
"1 0 LINE",
"181 0 LINE",
"217 280 LINE",
"232 430 LINE",
"391 0 LINE",
"591 0 LINE"
);
},
{
closed = 1;
nodes = (
"521 950 LINE",
"518 927 OFFCURVE",
"502 920 OFFCURVE",
"484 920 CURVE SMOOTH",
"447 920 OFFCURVE",
"403 966 OFFCURVE",
"338 966 CURVE SMOOTH",
"282 966 OFFCURVE",
"224 935 OFFCURVE",
"211 840 CURVE",
"306 840 LINE",
"309 863 OFFCURVE",
"325 870 OFFCURVE",
"343 870 CURVE SMOOTH",
"380 870 OFFCURVE",
"424 824 OFFCURVE",
"489 824 CURVE SMOOTH",
"545 824 OFFCURVE",
"603 855 OFFCURVE",
"616 950 CURVE"
);
}
);
width = 690;
},
{
layerId = "77865E0F-7A14-4552-9F9F-E712627EBCD5";
name = Light;
paths = (
{
closed = 1;
nodes = (
"496 32 LINE",
"155 780 LINE",
"133 780 LINE",
"31 0 LINE",
"51 0 LINE",
"130 605 LINE",
"148 748 LINE",
"489 0 LINE",
"511 0 LINE",
"613 780 LINE",
"593 780 LINE",
"514 175 LINE"
);
},
{
closed = 1;
nodes = (
"510 927 LINE",
"504 882 OFFCURVE",
"479 875 OFFCURVE",
"456 875 CURVE SMOOTH",
"409 875 OFFCURVE",
"373 933 OFFCURVE",
"321 933 CURVE SMOOTH",
"291 933 OFFCURVE",
"256 918 OFFCURVE",
"249 863 CURVE",
"267 863 LINE",
"273 908 OFFCURVE",
"298 915 OFFCURVE",
"321 915 CURVE SMOOTH",
"368 915 OFFCURVE",
"404 857 OFFCURVE",
"456 857 CURVE SMOOTH",
"486 857 OFFCURVE",
"521 872 OFFCURVE",
"528 927 CURVE"
);
}
);
width = 640;
}
);
unicode = 00D1;
},
{
glyphname = Nacute;
lastChange = "2015-06-21 14:11:14 +0000";
layers = (
{
layerId = "B9198381-BC0C-4069-9423-397854D57297";
name = Bold;
paths = (
{
closed = 1;
nodes = (
"693 780 LINE",
"513 780 LINE",
"476 500 LINE",
"462 350 LINE",
"303 780 LINE",
"103 780 LINE",
"1 0 LINE",
"181 0 LINE",
"217 280 LINE",
"232 430 LINE",
"391 0 LINE",
"591 0 LINE"
);
},
{
closed = 1;
nodes = (
"383 950 LINE",
"315 840 LINE",
"497 840 LINE",
"576 950 LINE"
);
}
);
width = 690;
},
{
layerId = "77865E0F-7A14-4552-9F9F-E712627EBCD5";
name = Light;
paths = (
{
closed = 1;
nodes = (
"496 32 LINE",
"155 780 LINE",
"133 780 LINE",
"31 0 LINE",
"51 0 LINE",
"130 605 LINE",
"148 748 LINE",
"489 0 LINE",
"511 0 LINE",
"613 780 LINE",
"593 780 LINE",
"514 175 LINE"
);
},
{
closed = 1;
nodes = (
"447 950 LINE",
"370 840 LINE",
"392 840 LINE",
"469 950 LINE"
);
}
);
width = 640;
}
);
unicode = 0143;
},
{
glyphname = Ncommaaccent;
lastChange = "2015-06-21 14:11:14 +0000";
layers = (
{
layerId = "B9198381-BC0C-4069-9423-397854D57297";
name = Bold;
paths = (
{
closed = 1;
nodes = (
"693 780 LINE",
"513 780 LINE",
"476 500 LINE",
"462 350 LINE",
"303 780 LINE",
"103 780 LINE",
"1 0 LINE",
"181 0 LINE",
"217 280 LINE",
"232 430 LINE",
"391 0 LINE",
"591 0 LINE"
);
},
{
closed = 1;
nodes = (
"370 -40 LINE",
"210 -40 LINE",
"197 -140 LINE",
"285 -140 LINE",
"267 -163 OFFCURVE",
"236 -170 OFFCURVE",
"193 -170 CURVE",
"185 -230 LINE",
"295 -230 OFFCURVE",
"350 -195 OFFCURVE",
"362 -100 CURVE SMOOTH"
);
}
);
width = 690;
},
{
layerId = "77865E0F-7A14-4552-9F9F-E712627EBCD5";
name = Light;
paths = (
{
closed = 1;
nodes = (
"496 32 LINE",
"155 780 LINE",
"133 780 LINE",
"31 0 LINE",
"51 0 LINE",
"130 605 LINE",
"148 748 LINE",
"489 0 LINE",
"511 0 LINE",
"613 780 LINE",
"593 780 LINE",
"514 175 LINE"
);
},
{
closed = 1;
nodes = (
"281 -70 LINE",
"241 -70 LINE",
"236 -110 LINE",
"256 -110 LINE",
"246 -176 OFFCURVE",
"210 -186 OFFCURVE",
"185 -186 CURVE",
"183 -206 LINE",
"225 -206 OFFCURVE",
"267 -178 OFFCURVE",
"277 -102 CURVE SMOOTH"
);
}
);
width = 640;
}
);
unicode = 0145;
},
{
glyphname = Ncaron;
lastChange = "2015-06-21 14:11:14 +0000";
layers = (
{
layerId = "B9198381-BC0C-4069-9423-397854D57297";
name = Bold;
paths = (
{
closed = 1;
nodes = (
"693 780 LINE",
"513 780 LINE",
"476 500 LINE",
"462 350 LINE",
"303 780 LINE",
"103 780 LINE",
"1 0 LINE",
"181 0 LINE",
"217 280 LINE",
"232 430 LINE",
"391 0 LINE",
"591 0 LINE"
);
},
{
closed = 1;
nodes = (
"196 950 LINE",
"311 840 LINE",
"501 840 LINE",
"646 950 LINE",
"481 950 LINE",
"415 910 LINE",
"361 950 LINE"
);
}
);
width = 690;
},
{
layerId = "77865E0F-7A14-4552-9F9F-E712627EBCD5";
name = Light;
paths = (
{
closed = 1;
nodes = (
"496 32 LINE",
"155 780 LINE",
"133 780 LINE",
"31 0 LINE",
"51 0 LINE",
"130 605 LINE",
"148 748 LINE",
"489 0 LINE",
"511 0 LINE",
"613 780 LINE",
"593 780 LINE",
"514 175 LINE"
);
},
{
closed = 1;
nodes = (
"481 950 LINE",
"382 855 LINE",
"309 950 LINE",
"286 950 LINE",
"371 840 LINE",
"391 840 LINE",
"506 950 LINE"
);
}
);
width = 640;
}
);
unicode = 0147;
},
{
glyphname = O;
lastChange = "2015-06-21 14:11:14 +0000";
layers = (
{
layerId = "B9198381-BC0C-4069-9423-397854D57297";
name = Bold;
paths = (
{
closed = 1;
nodes = (
"385 794 CURVE SMOOTH",
"175 794 OFFCURVE",
"73 678 OFFCURVE",
"37 408 CURVE SMOOTH",
"32 370 LINE SMOOTH",
"-4 100 OFFCURVE",
"90 -14 OFFCURVE",
"300 -14 CURVE SMOOTH",
"510 -14 OFFCURVE",
"611 102 OFFCURVE",
"647 372 CURVE SMOOTH",
"652 410 LINE SMOOTH",
"688 680 OFFCURVE",
"595 794 OFFCURVE"
);
},
{
closed = 1;
nodes = (
"305 150 LINE SMOOTH",
"215 150 OFFCURVE",
"207 234 OFFCURVE",
"225 370 CURVE SMOOTH",
"230 408 LINE SMOOTH",
"248 544 OFFCURVE",
"278 630 OFFCURVE",
"368 630 CURVE SMOOTH",
"379 630 LINE SMOOTH",
"469 630 OFFCURVE",
"477 546 OFFCURVE",
"459 410 CURVE SMOOTH",
"454 372 LINE SMOOTH",
"436 236 OFFCURVE",
"406 150 OFFCURVE",
"316 150 CURVE SMOOTH"
);
}
);
width = 680;
},
{
layerId = "77865E0F-7A14-4552-9F9F-E712627EBCD5";
name = Light;
paths = (
{
closed = 1;
nodes = (
"269 14 LINE SMOOTH",
"118 14 OFFCURVE",
"53 118 OFFCURVE",
"86 378 CURVE SMOOTH",
"89 402 LINE SMOOTH",
"122 666 OFFCURVE",
"207 766 OFFCURVE",
"358 766 CURVE SMOOTH",
"364 766 LINE SMOOTH",
"515 766 OFFCURVE",
"580 662 OFFCURVE",
"547 402 CURVE SMOOTH",
"544 378 LINE SMOOTH",
"511 114 OFFCURVE",
"426 14 OFFCURVE",
"275 14 CURVE SMOOTH"
);
},
{
closed = 1;
nodes = (
"361 786 CURVE SMOOTH",
"196 786 OFFCURVE",
"103 680 OFFCURVE",
"68 402 CURVE SMOOTH",
"65 378 LINE SMOOTH",
"31 108 OFFCURVE",
"105 -6 OFFCURVE",
"272 -6 CURVE SMOOTH",
"437 -6 OFFCURVE",
"530 100 OFFCURVE",
"565 378 CURVE SMOOTH",
"568 402 LINE SMOOTH",
"602 672 OFFCURVE",
"528 786 OFFCURVE"
);
}
);
width = 630;
}
);
unicode = 004F;
},
{
glyphname = Ograve;
lastChange = "2015-06-21 14:11:14 +0000";
layers = (
{
layerId = "B9198381-BC0C-4069-9423-397854D57297";
name = Bold;
paths = (
{
closed = 1;
nodes = (
"261 950 LINE",
"310 840 LINE",
"492 840 LINE",
"454 950 LINE"
);
},
{
closed = 1;
nodes = (
"385 794 CURVE SMOOTH",
"175 794 OFFCURVE",
"73 678 OFFCURVE",
"37 408 CURVE SMOOTH",
"32 370 LINE SMOOTH",
"-4 100 OFFCURVE",
"90 -14 OFFCURVE",
"300 -14 CURVE SMOOTH",
"510 -14 OFFCURVE",
"611 102 OFFCURVE",
"647 372 CURVE SMOOTH",
"652 410 LINE SMOOTH",
"688 680 OFFCURVE",
"595 794 OFFCURVE"
);
},
{
closed = 1;
nodes = (
"305 150 LINE SMOOTH",
"215 150 OFFCURVE",
"207 234 OFFCURVE",
"225 370 CURVE SMOOTH",
"230 408 LINE SMOOTH",
"248 544 OFFCURVE",
"278 630 OFFCURVE",
"368 630 CURVE SMOOTH",
"379 630 LINE SMOOTH",
"469 630 OFFCURVE",
"477 546 OFFCURVE",
"459 410 CURVE SMOOTH",
"454 372 LINE SMOOTH",
"436 236 OFFCURVE",
"406 150 OFFCURVE",
"316 150 CURVE SMOOTH"
);
}
);
width = 680;
},
{
layerId = "77865E0F-7A14-4552-9F9F-E712627EBCD5";
name = Light;
paths = (
{
closed = 1;
nodes = (
"269 14 LINE SMOOTH",
"118 14 OFFCURVE",
"53 118 OFFCURVE",
"86 378 CURVE SMOOTH",
"89 402 LINE SMOOTH",
"122 666 OFFCURVE",
"207 766 OFFCURVE",
"358 766 CURVE SMOOTH",
"364 766 LINE SMOOTH",
"515 766 OFFCURVE",
"580 662 OFFCURVE",
"547 402 CURVE SMOOTH",
"544 378 LINE SMOOTH",
"511 114 OFFCURVE",
"426 14 OFFCURVE",
"275 14 CURVE SMOOTH"
);
},
{
closed = 1;
nodes = (
"361 786 CURVE SMOOTH",
"196 786 OFFCURVE",
"103 680 OFFCURVE",
"68 402 CURVE SMOOTH",
"65 378 LINE SMOOTH",
"31 108 OFFCURVE",
"105 -6 OFFCURVE",
"272 -6 CURVE SMOOTH",
"437 -6 OFFCURVE",
"530 100 OFFCURVE",
"565 378 CURVE SMOOTH",
"568 402 LINE SMOOTH",
"602 672 OFFCURVE",
"528 786 OFFCURVE"
);
},
{
closed = 1;
nodes = (
"318 950 LINE",
"365 840 LINE",
"387 840 LINE",
"340 950 LINE"
);
}
);
width = 630;
}
);
unicode = 00D2;
},
{
glyphname = Oacute;
lastChange = "2015-06-21 14:11:14 +0000";
layers = (
{
layerId = "B9198381-BC0C-4069-9423-397854D57297";
name = Bold;
paths = (
{
closed = 1;
nodes = (
"378 950 LINE",
"310 840 LINE",
"492 840 LINE",
"571 950 LINE"
);
},
{
closed = 1;
nodes = (
"385 794 CURVE SMOOTH",
"175 794 OFFCURVE",
"73 678 OFFCURVE",
"37 408 CURVE SMOOTH",
"32 370 LINE SMOOTH",
"-4 100 OFFCURVE",
"90 -14 OFFCURVE",
"300 -14 CURVE SMOOTH",
"510 -14 OFFCURVE",
"611 102 OFFCURVE",
"647 372 CURVE SMOOTH",
"652 410 LINE SMOOTH",
"688 680 OFFCURVE",
"595 794 OFFCURVE"
);
},
{
closed = 1;
nodes = (
"305 150 LINE SMOOTH",
"215 150 OFFCURVE",
"207 234 OFFCURVE",
"225 370 CURVE SMOOTH",
"230 408 LINE SMOOTH",
"248 544 OFFCURVE",
"278 630 OFFCURVE",
"368 630 CURVE SMOOTH",
"379 630 LINE SMOOTH",
"469 630 OFFCURVE",
"477 546 OFFCURVE",
"459 410 CURVE SMOOTH",
"454 372 LINE SMOOTH",
"436 236 OFFCURVE",
"406 150 OFFCURVE",
"316 150 CURVE SMOOTH"
);
}
);
width = 680;
},
{
layerId = "77865E0F-7A14-4552-9F9F-E712627EBCD5";
name = Light;
paths = (
{
closed = 1;
nodes = (
"269 14 LINE SMOOTH",
"118 14 OFFCURVE",
"53 118 OFFCURVE",
"86 378 CURVE SMOOTH",
"89 402 LINE SMOOTH",
"122 666 OFFCURVE",
"207 766 OFFCURVE",
"358 766 CURVE SMOOTH",
"364 766 LINE SMOOTH",
"515 766 OFFCURVE",
"580 662 OFFCURVE",
"547 402 CURVE SMOOTH",
"544 378 LINE SMOOTH",
"511 114 OFFCURVE",
"426 14 OFFCURVE",
"275 14 CURVE SMOOTH"
);
},
{
closed = 1;
nodes = (
"361 786 CURVE SMOOTH",
"196 786 OFFCURVE",
"103 680 OFFCURVE",
"68 402 CURVE SMOOTH",
"65 378 LINE SMOOTH",
"31 108 OFFCURVE",
"105 -6 OFFCURVE",
"272 -6 CURVE SMOOTH",
"437 -6 OFFCURVE",
"530 100 OFFCURVE",
"565 378 CURVE SMOOTH",
"568 402 LINE SMOOTH",
"602 672 OFFCURVE",
"528 786 OFFCURVE"
);
},
{
closed = 1;
nodes = (
"442 950 LINE",
"365 840 LINE",
"387 840 LINE",
"464 950 LINE"
);
}
);
width = 630;
}
);
unicode = 00D3;
},
{
glyphname = Ocircumflex;
lastChange = "2015-06-21 14:11:14 +0000";
layers = (
{
layerId = "B9198381-BC0C-4069-9423-397854D57297";
name = Bold;
paths = (
{
closed = 1;
nodes = (
"341 840 LINE",
"406 879 LINE",
"461 840 LINE",
"626 840 LINE",
"511 950 LINE",
"321 950 LINE",
"176 840 LINE"
);
},
{
closed = 1;
nodes = (
"385 794 CURVE SMOOTH",
"175 794 OFFCURVE",
"73 678 OFFCURVE",
"37 408 CURVE SMOOTH",
"32 370 LINE SMOOTH",
"-4 100 OFFCURVE",
"90 -14 OFFCURVE",
"300 -14 CURVE SMOOTH",
"510 -14 OFFCURVE",
"611 102 OFFCURVE",
"647 372 CURVE SMOOTH",
"652 410 LINE SMOOTH",
"688 680 OFFCURVE",
"595 794 OFFCURVE"
);
},
{
closed = 1;
nodes = (
"305 150 LINE SMOOTH",
"215 150 OFFCURVE",
"207 234 OFFCURVE",
"225 370 CURVE SMOOTH",
"230 408 LINE SMOOTH",
"248 544 OFFCURVE",
"278 630 OFFCURVE",
"368 630 CURVE SMOOTH",
"379 630 LINE SMOOTH",
"469 630 OFFCURVE",
"477 546 OFFCURVE",
"459 410 CURVE SMOOTH",
"454 372 LINE SMOOTH",
"436 236 OFFCURVE",
"406 150 OFFCURVE",
"316 150 CURVE SMOOTH"
);
}
);
width = 680;
},
{
layerId = "77865E0F-7A14-4552-9F9F-E712627EBCD5";
name = Light;
paths = (
{
closed = 1;
nodes = (
"269 14 LINE SMOOTH",
"118 14 OFFCURVE",
"53 118 OFFCURVE",
"86 378 CURVE SMOOTH",
"89 402 LINE SMOOTH",
"122 666 OFFCURVE",
"207 766 OFFCURVE",
"358 766 CURVE SMOOTH",
"364 766 LINE SMOOTH",
"515 766 OFFCURVE",
"580 662 OFFCURVE",
"547 402 CURVE SMOOTH",
"544 378 LINE SMOOTH",
"511 114 OFFCURVE",
"426 14 OFFCURVE",
"275 14 CURVE SMOOTH"
);
},
{
closed = 1;
nodes = (
"361 786 CURVE SMOOTH",
"196 786 OFFCURVE",
"103 680 OFFCURVE",
"68 402 CURVE SMOOTH",
"65 378 LINE SMOOTH",
"31 108 OFFCURVE",
"105 -6 OFFCURVE",
"272 -6 CURVE SMOOTH",
"437 -6 OFFCURVE",
"530 100 OFFCURVE",
"565 378 CURVE SMOOTH",
"568 402 LINE SMOOTH",
"602 672 OFFCURVE",
"528 786 OFFCURVE"
);
},
{
closed = 1;
nodes = (
"291 840 LINE",
"390 935 LINE",
"463 840 LINE",
"486 840 LINE",
"401 950 LINE",
"381 950 LINE",
"266 840 LINE"
);
}
);
width = 630;
}
);
unicode = 00D4;
},
{
glyphname = Otilde;
lastChange = "2015-06-21 14:11:14 +0000";
layers = (
{
layerId = "B9198381-BC0C-4069-9423-397854D57297";
name = Bold;
paths = (
{
closed = 1;
nodes = (
"516 950 LINE",
"513 927 OFFCURVE",
"497 920 OFFCURVE",
"479 920 CURVE SMOOTH",
"442 920 OFFCURVE",
"398 966 OFFCURVE",
"333 966 CURVE SMOOTH",
"277 966 OFFCURVE",
"219 935 OFFCURVE",
"206 840 CURVE",
"301 840 LINE",
"304 863 OFFCURVE",
"320 870 OFFCURVE",
"338 870 CURVE SMOOTH",
"375 870 OFFCURVE",
"419 824 OFFCURVE",
"484 824 CURVE SMOOTH",
"540 824 OFFCURVE",
"598 855 OFFCURVE",
"611 950 CURVE"
);
},
{
closed = 1;
nodes = (
"385 794 CURVE SMOOTH",
"175 794 OFFCURVE",
"73 678 OFFCURVE",
"37 408 CURVE SMOOTH",
"32 370 LINE SMOOTH",
"-4 100 OFFCURVE",
"90 -14 OFFCURVE",
"300 -14 CURVE SMOOTH",
"510 -14 OFFCURVE",
"611 102 OFFCURVE",
"647 372 CURVE SMOOTH",
"652 410 LINE SMOOTH",
"688 680 OFFCURVE",
"595 794 OFFCURVE"
);
},
{
closed = 1;
nodes = (
"305 150 LINE SMOOTH",
"215 150 OFFCURVE",
"207 234 OFFCURVE",
"225 370 CURVE SMOOTH",
"230 408 LINE SMOOTH",
"248 544 OFFCURVE",
"278 630 OFFCURVE",
"368 630 CURVE SMOOTH",
"379 630 LINE SMOOTH",
"469 630 OFFCURVE",
"477 546 OFFCURVE",
"459 410 CURVE SMOOTH",
"454 372 LINE SMOOTH",
"436 236 OFFCURVE",
"406 150 OFFCURVE",
"316 150 CURVE SMOOTH"
);
}
);
width = 680;
},
{
layerId = "77865E0F-7A14-4552-9F9F-E712627EBCD5";
name = Light;
paths = (
{
closed = 1;
nodes = (
"269 14 LINE SMOOTH",
"118 14 OFFCURVE",
"53 118 OFFCURVE",
"86 378 CURVE SMOOTH",
"89 402 LINE SMOOTH",
"122 666 OFFCURVE",
"207 766 OFFCURVE",
"358 766 CURVE SMOOTH",
"364 766 LINE SMOOTH",
"515 766 OFFCURVE",
"580 662 OFFCURVE",
"547 402 CURVE SMOOTH",
"544 378 LINE SMOOTH",
"511 114 OFFCURVE",
"426 14 OFFCURVE",
"275 14 CURVE SMOOTH"
);
},
{
closed = 1;
nodes = (
"361 786 CURVE SMOOTH",
"196 786 OFFCURVE",
"103 680 OFFCURVE",
"68 402 CURVE SMOOTH",
"65 378 LINE SMOOTH",
"31 108 OFFCURVE",
"105 -6 OFFCURVE",
"272 -6 CURVE SMOOTH",
"437 -6 OFFCURVE",
"530 100 OFFCURVE",
"565 378 CURVE SMOOTH",
"568 402 LINE SMOOTH",
"602 672 OFFCURVE",
"528 786 OFFCURVE"
);
},
{
closed = 1;
nodes = (
"505 927 LINE",
"499 882 OFFCURVE",
"474 875 OFFCURVE",
"451 875 CURVE SMOOTH",
"404 875 OFFCURVE",
"368 933 OFFCURVE",
"316 933 CURVE SMOOTH",
"286 933 OFFCURVE",
"251 918 OFFCURVE",
"244 863 CURVE",
"262 863 LINE",
"268 908 OFFCURVE",
"293 915 OFFCURVE",
"316 915 CURVE SMOOTH",
"363 915 OFFCURVE",
"399 857 OFFCURVE",
"451 857 CURVE SMOOTH",
"481 857 OFFCURVE",
"516 872 OFFCURVE",
"523 927 CURVE"
);
}
);
width = 630;
}
);
unicode = 00D5;
},
{
glyphname = Odieresis;
lastChange = "2015-06-21 14:11:14 +0000";
layers = (
{
layerId = "B9198381-BC0C-4069-9423-397854D57297";
name = Bold;
paths = (
{
closed = 1;
nodes = (
"401 950 LINE",
"251 950 LINE",
"236 840 LINE",
"386 840 LINE"
);
},
{
closed = 1;
nodes = (
"581 950 LINE",
"431 950 LINE",
"416 840 LINE",
"566 840 LINE"
);
},
{
closed = 1;
nodes = (
"385 794 CURVE SMOOTH",
"175 794 OFFCURVE",
"73 678 OFFCURVE",
"37 408 CURVE SMOOTH",
"32 370 LINE SMOOTH",
"-4 100 OFFCURVE",
"90 -14 OFFCURVE",
"300 -14 CURVE SMOOTH",
"510 -14 OFFCURVE",
"611 102 OFFCURVE",
"647 372 CURVE SMOOTH",
"652 410 LINE SMOOTH",
"688 680 OFFCURVE",
"595 794 OFFCURVE"
);
},
{
closed = 1;
nodes = (
"305 150 LINE SMOOTH",
"215 150 OFFCURVE",
"207 234 OFFCURVE",
"225 370 CURVE SMOOTH",
"230 408 LINE SMOOTH",
"248 544 OFFCURVE",
"278 630 OFFCURVE",
"368 630 CURVE SMOOTH",
"379 630 LINE SMOOTH",
"469 630 OFFCURVE",
"477 546 OFFCURVE",
"459 410 CURVE SMOOTH",
"454 372 LINE SMOOTH",
"436 236 OFFCURVE",
"406 150 OFFCURVE",
"316 150 CURVE SMOOTH"
);
}
);
width = 680;
},
{
layerId = "77865E0F-7A14-4552-9F9F-E712627EBCD5";
name = Light;
paths = (
{
closed = 1;
nodes = (
"269 14 LINE SMOOTH",
"118 14 OFFCURVE",
"53 118 OFFCURVE",
"86 378 CURVE SMOOTH",
"89 402 LINE SMOOTH",
"122 666 OFFCURVE",
"207 766 OFFCURVE",
"358 766 CURVE SMOOTH",
"364 766 LINE SMOOTH",
"515 766 OFFCURVE",
"580 662 OFFCURVE",
"547 402 CURVE SMOOTH",
"544 378 LINE SMOOTH",
"511 114 OFFCURVE",
"426 14 OFFCURVE",
"275 14 CURVE SMOOTH"
);
},
{
closed = 1;
nodes = (
"361 786 CURVE SMOOTH",
"196 786 OFFCURVE",
"103 680 OFFCURVE",
"68 402 CURVE SMOOTH",
"65 378 LINE SMOOTH",
"31 108 OFFCURVE",
"105 -6 OFFCURVE",
"272 -6 CURVE SMOOTH",
"437 -6 OFFCURVE",
"530 100 OFFCURVE",
"565 378 CURVE SMOOTH",
"568 402 LINE SMOOTH",
"602 672 OFFCURVE",
"528 786 OFFCURVE"
);
},
{
closed = 1;
nodes = (
"336 915 LINE",
"296 915 LINE",
"291 875 LINE",
"331 875 LINE"
);
},
{
closed = 1;
nodes = (
"476 915 LINE",
"436 915 LINE",
"431 875 LINE",
"471 875 LINE"
);
}
);
width = 630;
}
);
unicode = 00D6;
},
{
glyphname = Omacron;
lastChange = "2015-06-21 14:11:14 +0000";
layers = (
{
layerId = "B9198381-BC0C-4069-9423-397854D57297";
name = Bold;
paths = (
{
closed = 1;
nodes = (
"241 840 LINE",
"561 840 LINE",
"576 950 LINE",
"256 950 LINE"
);
},
{
closed = 1;
nodes = (
"385 794 CURVE SMOOTH",
"175 794 OFFCURVE",
"73 678 OFFCURVE",
"37 408 CURVE SMOOTH",
"32 370 LINE SMOOTH",
"-4 100 OFFCURVE",
"90 -14 OFFCURVE",
"300 -14 CURVE SMOOTH",
"510 -14 OFFCURVE",
"611 102 OFFCURVE",
"647 372 CURVE SMOOTH",
"652 410 LINE SMOOTH",
"688 680 OFFCURVE",
"595 794 OFFCURVE"
);
},
{
closed = 1;
nodes = (
"305 150 LINE SMOOTH",
"215 150 OFFCURVE",
"207 234 OFFCURVE",
"225 370 CURVE SMOOTH",
"230 408 LINE SMOOTH",
"248 544 OFFCURVE",
"278 630 OFFCURVE",
"368 630 CURVE SMOOTH",
"379 630 LINE SMOOTH",
"469 630 OFFCURVE",
"477 546 OFFCURVE",
"459 410 CURVE SMOOTH",
"454 372 LINE SMOOTH",
"436 236 OFFCURVE",
"406 150 OFFCURVE",
"316 150 CURVE SMOOTH"
);
}
);
width = 680;
},
{
layerId = "77865E0F-7A14-4552-9F9F-E712627EBCD5";
name = Light;
paths = (
{
closed = 1;
nodes = (
"269 14 LINE SMOOTH",
"118 14 OFFCURVE",
"53 118 OFFCURVE",
"86 378 CURVE SMOOTH",
"89 402 LINE SMOOTH",
"122 666 OFFCURVE",
"207 766 OFFCURVE",
"358 766 CURVE SMOOTH",
"364 766 LINE SMOOTH",
"515 766 OFFCURVE",
"580 662 OFFCURVE",
"547 402 CURVE SMOOTH",
"544 378 LINE SMOOTH",
"511 114 OFFCURVE",
"426 14 OFFCURVE",
"275 14 CURVE SMOOTH"
);
},
{
closed = 1;
nodes = (
"361 786 CURVE SMOOTH",
"196 786 OFFCURVE",
"103 680 OFFCURVE",
"68 402 CURVE SMOOTH",
"65 378 LINE SMOOTH",
"31 108 OFFCURVE",
"105 -6 OFFCURVE",
"272 -6 CURVE SMOOTH",
"437 -6 OFFCURVE",
"530 100 OFFCURVE",
"565 378 CURVE SMOOTH",
"568 402 LINE SMOOTH",
"602 672 OFFCURVE",
"528 786 OFFCURVE"
);
},
{
closed = 1;
nodes = (
"282 885 LINE",
"482 885 LINE",
"485 905 LINE",
"285 905 LINE"
);
}
);
width = 630;
}
);
unicode = 014C;
},
{
glyphname = Obreve;
lastChange = "2015-06-21 14:11:14 +0000";
layers = (
{
layerId = "B9198381-BC0C-4069-9423-397854D57297";
name = Bold;
paths = (
{
closed = 1;
nodes = (
"399 824 CURVE SMOOTH",
"559 824 OFFCURVE",
"602 883 OFFCURVE",
"611 950 CURVE",
"486 950 LINE",
"483 930 OFFCURVE",
"462 920 OFFCURVE",
"412 920 CURVE SMOOTH",
"362 920 OFFCURVE",
"343 930 OFFCURVE",
"346 950 CURVE",
"221 950 LINE",
"212 883 OFFCURVE",
"239 824 OFFCURVE"
);
},
{
closed = 1;
nodes = (
"385 794 CURVE SMOOTH",
"175 794 OFFCURVE",
"73 678 OFFCURVE",
"37 408 CURVE SMOOTH",
"32 370 LINE SMOOTH",
"-4 100 OFFCURVE",
"90 -14 OFFCURVE",
"300 -14 CURVE SMOOTH",
"510 -14 OFFCURVE",
"611 102 OFFCURVE",
"647 372 CURVE SMOOTH",
"652 410 LINE SMOOTH",
"688 680 OFFCURVE",
"595 794 OFFCURVE"
);
},
{
closed = 1;
nodes = (
"305 150 LINE SMOOTH",
"215 150 OFFCURVE",
"207 234 OFFCURVE",
"225 370 CURVE SMOOTH",
"230 408 LINE SMOOTH",
"248 544 OFFCURVE",
"278 630 OFFCURVE",
"368 630 CURVE SMOOTH",
"379 630 LINE SMOOTH",
"469 630 OFFCURVE",
"477 546 OFFCURVE",
"459 410 CURVE SMOOTH",
"454 372 LINE SMOOTH",
"436 236 OFFCURVE",
"406 150 OFFCURVE",
"316 150 CURVE SMOOTH"
);
}
);
width = 680;
},
{
layerId = "77865E0F-7A14-4552-9F9F-E712627EBCD5";
name = Light;
paths = (
{
closed = 1;
nodes = (
"269 14 LINE SMOOTH",
"118 14 OFFCURVE",
"53 118 OFFCURVE",
"86 378 CURVE SMOOTH",
"89 402 LINE SMOOTH",
"122 666 OFFCURVE",
"207 766 OFFCURVE",
"358 766 CURVE SMOOTH",
"364 766 LINE SMOOTH",
"515 766 OFFCURVE",
"580 662 OFFCURVE",
"547 402 CURVE SMOOTH",
"544 378 LINE SMOOTH",
"511 114 OFFCURVE",
"426 14 OFFCURVE",
"275 14 CURVE SMOOTH"
);
},
{
closed = 1;
nodes = (
"361 786 CURVE SMOOTH",
"196 786 OFFCURVE",
"103 680 OFFCURVE",
"68 402 CURVE SMOOTH",
"65 378 LINE SMOOTH",
"31 108 OFFCURVE",
"105 -6 OFFCURVE",
"272 -6 CURVE SMOOTH",
"437 -6 OFFCURVE",
"530 100 OFFCURVE",
"565 378 CURVE SMOOTH",
"568 402 LINE SMOOTH",
"602 672 OFFCURVE",
"528 786 OFFCURVE"
);
},
{
closed = 1;
nodes = (
"375 852 CURVE SMOOTH",
"303 852 OFFCURVE",
"270 890 OFFCURVE",
"278 950 CURVE",
"261 950 LINE",
"251 880 OFFCURVE",
"292 834 OFFCURVE",
"376 834 CURVE SMOOTH",
"459 834 OFFCURVE",
"511 880 OFFCURVE",
"521 950 CURVE",
"502 950 LINE",
"494 890 OFFCURVE",
"446 852 OFFCURVE"
);
}
);
width = 630;
}
);
unicode = 014E;
},
{
glyphname = Ohungarumlaut;
lastChange = "2015-06-21 14:11:14 +0000";
layers = (
{
layerId = "B9198381-BC0C-4069-9423-397854D57297";
name = Bold;
paths = (
{
closed = 1;
nodes = (
"288 950 LINE",
"230 840 LINE",
"392 840 LINE",
"461 950 LINE"
);
},
{
closed = 1;
nodes = (
"478 950 LINE",
"410 840 LINE",
"572 840 LINE",
"651 950 LINE"
);
},
{
closed = 1;
nodes = (
"385 794 CURVE SMOOTH",
"175 794 OFFCURVE",
"73 678 OFFCURVE",
"37 408 CURVE SMOOTH",
"32 370 LINE SMOOTH",
"-4 100 OFFCURVE",
"90 -14 OFFCURVE",
"300 -14 CURVE SMOOTH",
"510 -14 OFFCURVE",
"611 102 OFFCURVE",
"647 372 CURVE SMOOTH",
"652 410 LINE SMOOTH",
"688 680 OFFCURVE",
"595 794 OFFCURVE"
);
},
{
closed = 1;
nodes = (
"305 150 LINE SMOOTH",
"215 150 OFFCURVE",
"207 234 OFFCURVE",
"225 370 CURVE SMOOTH",
"230 408 LINE SMOOTH",
"248 544 OFFCURVE",
"278 630 OFFCURVE",
"368 630 CURVE SMOOTH",
"379 630 LINE SMOOTH",
"469 630 OFFCURVE",
"477 546 OFFCURVE",
"459 410 CURVE SMOOTH",
"454 372 LINE SMOOTH",
"436 236 OFFCURVE",
"406 150 OFFCURVE",
"316 150 CURVE SMOOTH"
);
}
);
width = 680;
},
{
layerId = "77865E0F-7A14-4552-9F9F-E712627EBCD5";
name = Light;
paths = (
{
closed = 1;
nodes = (
"269 14 LINE SMOOTH",
"118 14 OFFCURVE",
"53 118 OFFCURVE",
"86 378 CURVE SMOOTH",
"89 402 LINE SMOOTH",
"122 666 OFFCURVE",
"207 766 OFFCURVE",
"358 766 CURVE SMOOTH",
"364 766 LINE SMOOTH",
"515 766 OFFCURVE",
"580 662 OFFCURVE",
"547 402 CURVE SMOOTH",
"544 378 LINE SMOOTH",
"511 114 OFFCURVE",
"426 14 OFFCURVE",
"275 14 CURVE SMOOTH"
);
},
{
closed = 1;
nodes = (
"361 786 CURVE SMOOTH",
"196 786 OFFCURVE",
"103 680 OFFCURVE",
"68 402 CURVE SMOOTH",
"65 378 LINE SMOOTH",
"31 108 OFFCURVE",
"105 -6 OFFCURVE",
"272 -6 CURVE SMOOTH",
"437 -6 OFFCURVE",
"530 100 OFFCURVE",
"565 378 CURVE SMOOTH",
"568 402 LINE SMOOTH",
"602 672 OFFCURVE",
"528 786 OFFCURVE"
);
},
{
closed = 1;
nodes = (
"492 950 LINE",
"415 840 LINE",
"437 840 LINE",
"514 950 LINE"
);
},
{
closed = 1;
nodes = (
"392 950 LINE",
"315 840 LINE",
"337 840 LINE",
"414 950 LINE"
);
}
);
width = 630;
}
);
unicode = 0150;
},
{
glyphname = P;
lastChange = "2015-06-21 14:11:14 +0000";
layers = (
{
layerId = "B9198381-BC0C-4069-9423-397854D57297";
name = Bold;
paths = (
{
closed = 1;
nodes = (
"226 268 LINE",
"305 268 LINE SMOOTH",
"437 268 OFFCURVE",
"589 298 OFFCURVE",
"618 514 CURVE SMOOTH",
"621 536 LINE SMOOTH",
"650 752 OFFCURVE",
"504 780 OFFCURVE",
"372 780 CURVE SMOOTH",
"103 780 LINE",
"1 0 LINE",
"191 0 LINE"
);
},
{
closed = 1;
nodes = (
"247 432 LINE",
"272 616 LINE",
"359 616 LINE SMOOTH",
"396 616 OFFCURVE",
"435 604 OFFCURVE",
"428 530 CURVE SMOOTH",
"427 519 LINE SMOOTH",
"420 447 OFFCURVE",
"371 432 OFFCURVE",
"334 432 CURVE SMOOTH"
);
}
);
width = 620;
},
{
layerId = "77865E0F-7A14-4552-9F9F-E712627EBCD5";
name = Light;
paths = (
{
closed = 1;
nodes = (
"96 340 LINE",
"270 340 LINE SMOOTH",
"376 340 OFFCURVE",
"496 378 OFFCURVE",
"517 545 CURVE SMOOTH",
"520 569 LINE SMOOTH",
"540 731 OFFCURVE",
"432 780 OFFCURVE",
"320 780 CURVE SMOOTH",
"133 780 LINE",
"31 0 LINE",
"51 0 LINE"
);
},
{
closed = 1;
nodes = (
"98 360 LINE",
"150 760 LINE",
"320 760 LINE SMOOTH",
"402 760 OFFCURVE",
"519 730 OFFCURVE",
"499 569 CURVE SMOOTH",
"496 545 LINE SMOOTH",
"476 382 OFFCURVE",
"352 360 OFFCURVE",
"270 360 CURVE SMOOTH"
);
}
);
width = 544;
}
);
unicode = 0050;
},
{
glyphname = Pdotaccent;
lastChange = "2015-06-21 14:11:14 +0000";
layers = (
{
layerId = "B9198381-BC0C-4069-9423-397854D57297";
name = Bold;
paths = (
{
closed = 1;
nodes = (
"446 950 LINE",
"296 950 LINE",
"281 840 LINE",
"431 840 LINE"
);
},
{
closed = 1;
nodes = (
"226 268 LINE",
"305 268 LINE SMOOTH",
"437 268 OFFCURVE",
"589 298 OFFCURVE",
"618 514 CURVE SMOOTH",
"621 536 LINE SMOOTH",
"650 752 OFFCURVE",
"504 780 OFFCURVE",
"372 780 CURVE SMOOTH",
"103 780 LINE",
"1 0 LINE",
"191 0 LINE"
);
},
{
closed = 1;
nodes = (
"247 432 LINE",
"272 616 LINE",
"359 616 LINE SMOOTH",
"396 616 OFFCURVE",
"435 604 OFFCURVE",
"428 530 CURVE SMOOTH",
"427 519 LINE SMOOTH",
"420 447 OFFCURVE",
"371 432 OFFCURVE",
"334 432 CURVE SMOOTH"
);
}
);
width = 620;
},
{
layerId = "77865E0F-7A14-4552-9F9F-E712627EBCD5";
name = Light;
paths = (
{
closed = 1;
nodes = (
"96 340 LINE",
"270 340 LINE SMOOTH",
"376 340 OFFCURVE",
"496 378 OFFCURVE",
"517 545 CURVE SMOOTH",
"520 569 LINE SMOOTH",
"540 731 OFFCURVE",
"432 780 OFFCURVE",
"320 780 CURVE SMOOTH",
"133 780 LINE",
"31 0 LINE",
"51 0 LINE"
);
},
{
closed = 1;
nodes = (
"98 360 LINE",
"150 760 LINE",
"320 760 LINE SMOOTH",
"402 760 OFFCURVE",
"519 730 OFFCURVE",
"499 569 CURVE SMOOTH",
"496 545 LINE SMOOTH",
"476 382 OFFCURVE",
"352 360 OFFCURVE",
"270 360 CURVE SMOOTH"
);
},
{
closed = 1;
nodes = (
"356 915 LINE",
"316 915 LINE",
"311 875 LINE",
"351 875 LINE"
);
}
);
width = 544;
}
);
unicode = 1E56;
},
{
glyphname = Q;
lastChange = "2015-06-21 14:11:14 +0000";
layers = (
{
layerId = "B9198381-BC0C-4069-9423-397854D57297";
name = Bold;
paths = (
{
closed = 1;
nodes = (
"385 794 CURVE SMOOTH",
"175 794 OFFCURVE",
"73 678 OFFCURVE",
"37 408 CURVE SMOOTH",
"32 370 LINE SMOOTH",
"-4 100 OFFCURVE",
"90 -14 OFFCURVE",
"300 -14 CURVE SMOOTH",
"307 -14 OFFCURVE",
"313 -13 OFFCURVE",
"320 -13 CURVE",
"342 -100 LINE",
"487 -100 LINE",
"455 16 LINE",
"563 66 OFFCURVE",
"621 180 OFFCURVE",
"647 372 CURVE SMOOTH",
"652 410 LINE SMOOTH",
"688 680 OFFCURVE",
"595 794 OFFCURVE"
);
},
{
closed = 1;
nodes = (
"386 273 LINE",
"246 273 LINE",
"277 153 LINE",
"213 170 OFFCURVE",
"209 250 OFFCURVE",
"225 370 CURVE SMOOTH",
"230 408 LINE SMOOTH",
"248 544 OFFCURVE",
"278 630 OFFCURVE",
"368 630 CURVE SMOOTH",
"379 630 LINE SMOOTH",
"469 630 OFFCURVE",
"477 546 OFFCURVE",
"459 410 CURVE SMOOTH",
"454 372 LINE SMOOTH",
"444 297 OFFCURVE",
"431 238 OFFCURVE",
"406 199 CURVE"
);
}
);
width = 680;
},
{
layerId = "77865E0F-7A14-4552-9F9F-E712627EBCD5";
name = Light;
paths = (
{
closed = 1;
nodes = (
"361 786 CURVE SMOOTH",
"196 786 OFFCURVE",
"103 680 OFFCURVE",
"68 402 CURVE SMOOTH",
"65 378 LINE SMOOTH",
"31 108 OFFCURVE",
"105 -6 OFFCURVE",
"272 -6 CURVE SMOOTH",
"295 -6 OFFCURVE",
"317 -4 OFFCURVE",
"337 0 CURVE",
"362 -100 LINE",
"382 -100 LINE",
"356 5 LINE",
"469 38 OFFCURVE",
"536 151 OFFCURVE",
"565 378 CURVE SMOOTH",
"568 402 LINE SMOOTH",
"602 672 OFFCURVE",
"528 786 OFFCURVE"
);
},
{
closed = 1;
nodes = (
"269 14 LINE SMOOTH",
"118 14 OFFCURVE",
"53 118 OFFCURVE",
"86 378 CURVE SMOOTH",
"89 402 LINE SMOOTH",
"122 666 OFFCURVE",
"207 766 OFFCURVE",
"358 766 CURVE SMOOTH",
"364 766 LINE SMOOTH",
"515 766 OFFCURVE",
"580 662 OFFCURVE",
"547 402 CURVE SMOOTH",
"544 378 LINE SMOOTH",
"517 162 OFFCURVE",
"455 56 OFFCURVE",
"351 24 CURVE",
"307 205 LINE",
"287 205 LINE",
"332 20 LINE",
"314 16 OFFCURVE",
"295 14 OFFCURVE",
"275 14 CURVE SMOOTH"
);
}
);
width = 626;
}
);
unicode = 0051;
},
{
glyphname = R;
lastChange = "2015-06-21 14:11:14 +0000";
layers = (
{
layerId = "B9198381-BC0C-4069-9423-397854D57297";
name = Bold;
paths = (
{
closed = 1;
nodes = (
"247 432 LINE",
"272 616 LINE",
"359 616 LINE SMOOTH",
"396 616 OFFCURVE",
"435 604 OFFCURVE",
"428 530 CURVE SMOOTH",
"427 519 LINE SMOOTH",
"420 447 OFFCURVE",
"371 432 OFFCURVE",
"334 432 CURVE SMOOTH"
);
},
{
closed = 1;
nodes = (
"226 268 LINE",
"279 268 LINE",
"346 0 LINE",
"551 0 LINE",
"468 294 LINE",
"541 324 OFFCURVE",
"601 387 OFFCURVE",
"618 514 CURVE SMOOTH",
"621 536 LINE SMOOTH",
"650 752 OFFCURVE",
"504 780 OFFCURVE",
"372 780 CURVE SMOOTH",
"103 780 LINE",
"1 0 LINE",
"191 0 LINE"
);
}
);
width = 635;
},
{
layerId = "77865E0F-7A14-4552-9F9F-E712627EBCD5";
name = Light;
paths = (
{
closed = 1;
nodes = (
"96 340 LINE",
"270 340 LINE SMOOTH",
"289 340 OFFCURVE",
"309 341 OFFCURVE",
"328 344 CURVE",
"425 0 LINE",
"445 0 LINE",
"347 348 LINE",
"428 366 OFFCURVE",
"501 418 OFFCURVE",
"517 545 CURVE SMOOTH",
"520 569 LINE SMOOTH",
"540 731 OFFCURVE",
"432 780 OFFCURVE",
"320 780 CURVE SMOOTH",
"133 780 LINE",
"31 0 LINE",
"51 0 LINE"
);
},
{
closed = 1;
nodes = (
"98 360 LINE",
"150 760 LINE",
"320 760 LINE SMOOTH",
"402 760 OFFCURVE",
"519 730 OFFCURVE",
"499 569 CURVE SMOOTH",
"496 545 LINE SMOOTH",
"476 382 OFFCURVE",
"352 360 OFFCURVE",
"270 360 CURVE SMOOTH"
);
}
);
width = 553;
}
);
unicode = 0052;
},
{
glyphname = Racute;
lastChange = "2015-06-21 14:11:14 +0000";
layers = (
{
layerId = "B9198381-BC0C-4069-9423-397854D57297";
name = Bold;
paths = (
{
closed = 1;
nodes = (
"343 950 LINE",
"275 840 LINE",
"457 840 LINE",
"536 950 LINE"
);
},
{
closed = 1;
nodes = (
"247 432 LINE",
"272 616 LINE",
"359 616 LINE SMOOTH",
"396 616 OFFCURVE",
"435 604 OFFCURVE",
"428 530 CURVE SMOOTH",
"427 519 LINE SMOOTH",
"420 447 OFFCURVE",
"371 432 OFFCURVE",
"334 432 CURVE SMOOTH"
);
},
{
closed = 1;
nodes = (
"226 268 LINE",
"279 268 LINE",
"346 0 LINE",
"551 0 LINE",
"468 294 LINE",
"541 324 OFFCURVE",
"601 387 OFFCURVE",
"618 514 CURVE SMOOTH",
"621 536 LINE SMOOTH",
"650 752 OFFCURVE",
"504 780 OFFCURVE",
"372 780 CURVE SMOOTH",
"103 780 LINE",
"1 0 LINE",
"191 0 LINE"
);
}
);
width = 635;
},
{
layerId = "77865E0F-7A14-4552-9F9F-E712627EBCD5";
name = Light;
paths = (
{
closed = 1;
nodes = (
"96 340 LINE",
"270 340 LINE SMOOTH",
"289 340 OFFCURVE",
"309 341 OFFCURVE",
"328 344 CURVE",
"425 0 LINE",
"445 0 LINE",
"347 348 LINE",
"428 366 OFFCURVE",
"501 418 OFFCURVE",
"517 545 CURVE SMOOTH",
"520 569 LINE SMOOTH",
"540 731 OFFCURVE",
"432 780 OFFCURVE",
"320 780 CURVE SMOOTH",
"133 780 LINE",
"31 0 LINE",
"51 0 LINE"
);
},
{
closed = 1;
nodes = (
"98 360 LINE",
"150 760 LINE",
"320 760 LINE SMOOTH",
"402 760 OFFCURVE",
"519 730 OFFCURVE",
"499 569 CURVE SMOOTH",
"496 545 LINE SMOOTH",
"476 382 OFFCURVE",
"352 360 OFFCURVE",
"270 360 CURVE SMOOTH"
);
},
{
closed = 1;
nodes = (
"387 950 LINE",
"310 840 LINE",
"332 840 LINE",
"409 950 LINE"
);
}
);
width = 553;
}
);
unicode = 0154;
},
{
glyphname = Rcommaaccent;
lastChange = "2015-06-21 14:11:14 +0000";
layers = (
{
layerId = "B9198381-BC0C-4069-9423-397854D57297";
name = Bold;
paths = (
{
closed = 1;
nodes = (
"340 -40 LINE",
"180 -40 LINE",
"167 -140 LINE",
"255 -140 LINE",
"237 -163 OFFCURVE",
"206 -170 OFFCURVE",
"163 -170 CURVE",
"155 -230 LINE",
"265 -230 OFFCURVE",
"320 -195 OFFCURVE",
"332 -100 CURVE SMOOTH"
);
},
{
closed = 1;
nodes = (
"247 432 LINE",
"272 616 LINE",
"359 616 LINE SMOOTH",
"396 616 OFFCURVE",
"435 604 OFFCURVE",
"428 530 CURVE SMOOTH",
"427 519 LINE SMOOTH",
"420 447 OFFCURVE",
"371 432 OFFCURVE",
"334 432 CURVE SMOOTH"
);
},
{
closed = 1;
nodes = (
"226 268 LINE",
"279 268 LINE",
"346 0 LINE",
"551 0 LINE",
"468 294 LINE",
"541 324 OFFCURVE",
"601 387 OFFCURVE",
"618 514 CURVE SMOOTH",
"621 536 LINE SMOOTH",
"650 752 OFFCURVE",
"504 780 OFFCURVE",
"372 780 CURVE SMOOTH",
"103 780 LINE",
"1 0 LINE",
"191 0 LINE"
);
}
);
width = 635;
},
{
layerId = "77865E0F-7A14-4552-9F9F-E712627EBCD5";
name = Light;
paths = (
{
closed = 1;
nodes = (
"96 340 LINE",
"270 340 LINE SMOOTH",
"289 340 OFFCURVE",
"309 341 OFFCURVE",
"328 344 CURVE",
"425 0 LINE",
"445 0 LINE",
"347 348 LINE",
"428 366 OFFCURVE",
"501 418 OFFCURVE",
"517 545 CURVE SMOOTH",
"520 569 LINE SMOOTH",
"540 731 OFFCURVE",
"432 780 OFFCURVE",
"320 780 CURVE SMOOTH",
"133 780 LINE",
"31 0 LINE",
"51 0 LINE"
);
},
{
closed = 1;
nodes = (
"98 360 LINE",
"150 760 LINE",
"320 760 LINE SMOOTH",
"402 760 OFFCURVE",
"519 730 OFFCURVE",
"499 569 CURVE SMOOTH",
"496 545 LINE SMOOTH",
"476 382 OFFCURVE",
"352 360 OFFCURVE",
"270 360 CURVE SMOOTH"
);
},
{
closed = 1;
nodes = (
"241 -70 LINE",
"201 -70 LINE",
"196 -110 LINE",
"216 -110 LINE",
"206 -176 OFFCURVE",
"170 -186 OFFCURVE",
"145 -186 CURVE",
"143 -206 LINE",
"185 -206 OFFCURVE",
"227 -178 OFFCURVE",
"237 -102 CURVE SMOOTH"
);
}
);
width = 553;
}
);
unicode = 0156;
},
{
glyphname = Rcaron;
lastChange = "2015-06-21 14:11:14 +0000";
layers = (
{
layerId = "B9198381-BC0C-4069-9423-397854D57297";
name = Bold;
paths = (
{
closed = 1;
nodes = (
"156 950 LINE",
"271 840 LINE",
"461 840 LINE",
"606 950 LINE",
"441 950 LINE",
"375 910 LINE",
"321 950 LINE"
);
},
{
closed = 1;
nodes = (
"247 432 LINE",
"272 616 LINE",
"359 616 LINE SMOOTH",
"396 616 OFFCURVE",
"435 604 OFFCURVE",
"428 530 CURVE SMOOTH",
"427 519 LINE SMOOTH",
"420 447 OFFCURVE",
"371 432 OFFCURVE",
"334 432 CURVE SMOOTH"
);
},
{
closed = 1;
nodes = (
"226 268 LINE",
"279 268 LINE",
"346 0 LINE",
"551 0 LINE",
"468 294 LINE",
"541 324 OFFCURVE",
"601 387 OFFCURVE",
"618 514 CURVE SMOOTH",
"621 536 LINE SMOOTH",
"650 752 OFFCURVE",
"504 780 OFFCURVE",
"372 780 CURVE SMOOTH",
"103 780 LINE",
"1 0 LINE",
"191 0 LINE"
);
}
);
width = 635;
},
{
layerId = "77865E0F-7A14-4552-9F9F-E712627EBCD5";
name = Light;
paths = (
{
closed = 1;
nodes = (
"96 340 LINE",
"270 340 LINE SMOOTH",
"289 340 OFFCURVE",
"309 341 OFFCURVE",
"328 344 CURVE",
"425 0 LINE",
"445 0 LINE",
"347 348 LINE",
"428 366 OFFCURVE",
"501 418 OFFCURVE",
"517 545 CURVE SMOOTH",
"520 569 LINE SMOOTH",
"540 731 OFFCURVE",
"432 780 OFFCURVE",
"320 780 CURVE SMOOTH",
"133 780 LINE",
"31 0 LINE",
"51 0 LINE"
);
},
{
closed = 1;
nodes = (
"98 360 LINE",
"150 760 LINE",
"320 760 LINE SMOOTH",
"402 760 OFFCURVE",
"519 730 OFFCURVE",
"499 569 CURVE SMOOTH",
"496 545 LINE SMOOTH",
"476 382 OFFCURVE",
"352 360 OFFCURVE",
"270 360 CURVE SMOOTH"
);
},
{
closed = 1;
nodes = (
"421 950 LINE",
"322 855 LINE",
"249 950 LINE",
"226 950 LINE",
"311 840 LINE",
"331 840 LINE",
"446 950 LINE"
);
}
);
width = 553;
}
);
unicode = 0158;
},
{
glyphname = S;
lastChange = "2015-06-21 14:11:14 +0000";
layers = (
{
layerId = "B9198381-BC0C-4069-9423-397854D57297";
name = Bold;
paths = (
{
closed = 1;
nodes = (
"277 314 CURVE SMOOTH",
"383 300 OFFCURVE",
"402 269 OFFCURVE",
"398 230 CURVE SMOOTH",
"397 220 LINE SMOOTH",
"393 182 OFFCURVE",
"364 150 OFFCURVE",
"299 150 CURVE SMOOTH",
"289 150 LINE SMOOTH",
"224 150 OFFCURVE",
"195 184 OFFCURVE",
"206 270 CURVE",
"16 270 LINE",
"14 254 LINE SMOOTH",
"-9 73 OFFCURVE",
"89 -14 OFFCURVE",
"279 -14 CURVE SMOOTH",
"463 -14 OFFCURVE",
"573 64 OFFCURVE",
"589 211 CURVE SMOOTH",
"591 229 LINE SMOOTH",
"608 378 OFFCURVE",
"534 444 OFFCURVE",
"367 467 CURVE SMOOTH",
"264 481 OFFCURVE",
"247 508 OFFCURVE",
"251 550 CURVE SMOOTH",
"252 560 LINE SMOOTH",
"256 599 OFFCURVE",
"288 630 OFFCURVE",
"343 630 CURVE SMOOTH",
"353 630 LINE SMOOTH",
"423 630 OFFCURVE",
"443 588 OFFCURVE",
"431 500 CURVE",
"621 500 LINE",
"624 524 LINE SMOOTH",
"646 702 OFFCURVE",
"565 794 OFFCURVE",
"370 794 CURVE SMOOTH",
"175 794 OFFCURVE",
"74 700 OFFCURVE",
"59 562 CURVE SMOOTH",
"57 544 LINE SMOOTH",
"41 403 OFFCURVE",
"110 336 OFFCURVE"
);
}
);
width = 640;
},
{
layerId = "77865E0F-7A14-4552-9F9F-E712627EBCD5";
name = Light;
paths = (
{
closed = 1;
nodes = (
"289 395 CURVE SMOOTH",
"444 373 OFFCURVE",
"500 314 OFFCURVE",
"486 198 CURVE SMOOTH",
"483 174 LINE SMOOTH",
"469 58 OFFCURVE",
"373 14 OFFCURVE",
"249 14 CURVE SMOOTH",
"243 14 LINE SMOOTH",
"95 14 OFFCURVE",
"27 88 OFFCURVE",
"53 250 CURVE",
"33 250 LINE",
"30 226 LINE SMOOTH",
"12 80 OFFCURVE",
"79 -6 OFFCURVE",
"246 -6 CURVE SMOOTH",
"381 -6 OFFCURVE",
"487 39 OFFCURVE",
"504 174 CURVE SMOOTH",
"507 198 LINE SMOOTH",
"521 314 OFFCURVE",
"469 391 OFFCURVE",
"301 414 CURVE SMOOTH",
"142 436 OFFCURVE",
"91 489 OFFCURVE",
"103 586 CURVE SMOOTH",
"106 610 LINE SMOOTH",
"119 713 OFFCURVE",
"218 766 OFFCURVE",
"331 766 CURVE SMOOTH",
"337 766 LINE SMOOTH",
"478 766 OFFCURVE",
"549 698 OFFCURVE",
"524 520 CURVE",
"544 520 LINE",
"547 544 LINE SMOOTH",
"566 698 OFFCURVE",
"497 786 OFFCURVE",
"334 786 CURVE SMOOTH",
"204 786 OFFCURVE",
"100 732 OFFCURVE",
"85 610 CURVE SMOOTH",
"82 586 LINE SMOOTH",
"70 488 OFFCURVE",
"121 419 OFFCURVE"
);
}
);
width = 580;
}
);
unicode = 0053;
},
{
glyphname = Sacute;
lastChange = "2015-06-21 14:11:14 +0000";
layers = (
{
layerId = "B9198381-BC0C-4069-9423-397854D57297";
name = Bold;
paths = (
{
closed = 1;
nodes = (
"358 950 LINE",
"290 840 LINE",
"472 840 LINE",
"551 950 LINE"
);
},
{
closed = 1;
nodes = (
"277 314 CURVE SMOOTH",
"383 300 OFFCURVE",
"402 269 OFFCURVE",
"398 230 CURVE SMOOTH",
"397 220 LINE SMOOTH",
"393 182 OFFCURVE",
"364 150 OFFCURVE",
"299 150 CURVE SMOOTH",
"289 150 LINE SMOOTH",
"224 150 OFFCURVE",
"195 184 OFFCURVE",
"206 270 CURVE",
"16 270 LINE",
"14 254 LINE SMOOTH",
"-9 73 OFFCURVE",
"89 -14 OFFCURVE",
"279 -14 CURVE SMOOTH",
"463 -14 OFFCURVE",
"573 64 OFFCURVE",
"589 211 CURVE SMOOTH",
"591 229 LINE SMOOTH",
"608 378 OFFCURVE",
"534 444 OFFCURVE",
"367 467 CURVE SMOOTH",
"264 481 OFFCURVE",
"247 508 OFFCURVE",
"251 550 CURVE SMOOTH",
"252 560 LINE SMOOTH",
"256 599 OFFCURVE",
"288 630 OFFCURVE",
"343 630 CURVE SMOOTH",
"353 630 LINE SMOOTH",
"423 630 OFFCURVE",
"443 588 OFFCURVE",
"431 500 CURVE",
"621 500 LINE",
"624 524 LINE SMOOTH",
"646 702 OFFCURVE",
"565 794 OFFCURVE",
"370 794 CURVE SMOOTH",
"175 794 OFFCURVE",
"74 700 OFFCURVE",
"59 562 CURVE SMOOTH",
"57 544 LINE SMOOTH",
"41 403 OFFCURVE",
"110 336 OFFCURVE"
);
}
);
width = 640;
},
{
layerId = "77865E0F-7A14-4552-9F9F-E712627EBCD5";
name = Light;
paths = (
{
closed = 1;
nodes = (
"289 395 CURVE SMOOTH",
"444 373 OFFCURVE",
"500 314 OFFCURVE",
"486 198 CURVE SMOOTH",
"483 174 LINE SMOOTH",
"469 58 OFFCURVE",
"373 14 OFFCURVE",
"249 14 CURVE SMOOTH",
"243 14 LINE SMOOTH",
"95 14 OFFCURVE",
"27 88 OFFCURVE",
"53 250 CURVE",
"33 250 LINE",
"30 226 LINE SMOOTH",
"12 80 OFFCURVE",
"79 -6 OFFCURVE",
"246 -6 CURVE SMOOTH",
"381 -6 OFFCURVE",
"487 39 OFFCURVE",
"504 174 CURVE SMOOTH",
"507 198 LINE SMOOTH",
"521 314 OFFCURVE",
"469 391 OFFCURVE",
"301 414 CURVE SMOOTH",
"142 436 OFFCURVE",
"91 489 OFFCURVE",
"103 586 CURVE SMOOTH",
"106 610 LINE SMOOTH",
"119 713 OFFCURVE",
"218 766 OFFCURVE",
"331 766 CURVE SMOOTH",
"337 766 LINE SMOOTH",
"478 766 OFFCURVE",
"549 698 OFFCURVE",
"524 520 CURVE",
"544 520 LINE",
"547 544 LINE SMOOTH",
"566 698 OFFCURVE",
"497 786 OFFCURVE",
"334 786 CURVE SMOOTH",
"204 786 OFFCURVE",
"100 732 OFFCURVE",
"85 610 CURVE SMOOTH",
"82 586 LINE SMOOTH",
"70 488 OFFCURVE",
"121 419 OFFCURVE"
);
},
{
closed = 1;
nodes = (
"417 950 LINE",
"340 840 LINE",
"362 840 LINE",
"439 950 LINE"
);
}
);
width = 580;
}
);
unicode = 015A;
},
{
glyphname = Scircumflex;
lastChange = "2015-06-21 14:11:14 +0000";
layers = (
{
layerId = "B9198381-BC0C-4069-9423-397854D57297";
name = Bold;
paths = (
{
closed = 1;
nodes = (
"321 840 LINE",
"386 879 LINE",
"441 840 LINE",
"606 840 LINE",
"491 950 LINE",
"301 950 LINE",
"156 840 LINE"
);
},
{
closed = 1;
nodes = (
"277 314 CURVE SMOOTH",
"383 300 OFFCURVE",
"402 269 OFFCURVE",
"398 230 CURVE SMOOTH",
"397 220 LINE SMOOTH",
"393 182 OFFCURVE",
"364 150 OFFCURVE",
"299 150 CURVE SMOOTH",
"289 150 LINE SMOOTH",
"224 150 OFFCURVE",
"195 184 OFFCURVE",
"206 270 CURVE",
"16 270 LINE",
"14 254 LINE SMOOTH",
"-9 73 OFFCURVE",
"89 -14 OFFCURVE",
"279 -14 CURVE SMOOTH",
"463 -14 OFFCURVE",
"573 64 OFFCURVE",
"589 211 CURVE SMOOTH",
"591 229 LINE SMOOTH",
"608 378 OFFCURVE",
"534 444 OFFCURVE",
"367 467 CURVE SMOOTH",
"264 481 OFFCURVE",
"247 508 OFFCURVE",
"251 550 CURVE SMOOTH",
"252 560 LINE SMOOTH",
"256 599 OFFCURVE",
"288 630 OFFCURVE",
"343 630 CURVE SMOOTH",
"353 630 LINE SMOOTH",
"423 630 OFFCURVE",
"443 588 OFFCURVE",
"431 500 CURVE",
"621 500 LINE",
"624 524 LINE SMOOTH",
"646 702 OFFCURVE",
"565 794 OFFCURVE",
"370 794 CURVE SMOOTH",
"175 794 OFFCURVE",
"74 700 OFFCURVE",
"59 562 CURVE SMOOTH",
"57 544 LINE SMOOTH",
"41 403 OFFCURVE",
"110 336 OFFCURVE"
);
}
);
width = 640;
},
{
layerId = "77865E0F-7A14-4552-9F9F-E712627EBCD5";
name = Light;
paths = (
{
closed = 1;
nodes = (
"289 395 CURVE SMOOTH",
"444 373 OFFCURVE",
"500 314 OFFCURVE",
"486 198 CURVE SMOOTH",
"483 174 LINE SMOOTH",
"469 58 OFFCURVE",
"373 14 OFFCURVE",
"249 14 CURVE SMOOTH",
"243 14 LINE SMOOTH",
"95 14 OFFCURVE",
"27 88 OFFCURVE",
"53 250 CURVE",
"33 250 LINE",
"30 226 LINE SMOOTH",
"12 80 OFFCURVE",
"79 -6 OFFCURVE",
"246 -6 CURVE SMOOTH",
"381 -6 OFFCURVE",
"487 39 OFFCURVE",
"504 174 CURVE SMOOTH",
"507 198 LINE SMOOTH",
"521 314 OFFCURVE",
"469 391 OFFCURVE",
"301 414 CURVE SMOOTH",
"142 436 OFFCURVE",
"91 489 OFFCURVE",
"103 586 CURVE SMOOTH",
"106 610 LINE SMOOTH",
"119 713 OFFCURVE",
"218 766 OFFCURVE",
"331 766 CURVE SMOOTH",
"337 766 LINE SMOOTH",
"478 766 OFFCURVE",
"549 698 OFFCURVE",
"524 520 CURVE",
"544 520 LINE",
"547 544 LINE SMOOTH",
"566 698 OFFCURVE",
"497 786 OFFCURVE",
"334 786 CURVE SMOOTH",
"204 786 OFFCURVE",
"100 732 OFFCURVE",
"85 610 CURVE SMOOTH",
"82 586 LINE SMOOTH",
"70 488 OFFCURVE",
"121 419 OFFCURVE"
);
},
{
closed = 1;
nodes = (
"266 840 LINE",
"365 935 LINE",
"438 840 LINE",
"461 840 LINE",
"376 950 LINE",
"356 950 LINE",
"241 840 LINE"
);
}
);
width = 580;
}
);
unicode = 015C;
},
{
glyphname = Scedilla;
lastChange = "2015-06-21 14:11:14 +0000";
layers = (
{
layerId = "B9198381-BC0C-4069-9423-397854D57297";
name = Bold;
paths = (
{
closed = 1;
nodes = (
"277 314 CURVE SMOOTH",
"383 300 OFFCURVE",
"402 269 OFFCURVE",
"398 230 CURVE SMOOTH",
"397 220 LINE SMOOTH",
"393 182 OFFCURVE",
"364 150 OFFCURVE",
"299 150 CURVE SMOOTH",
"289 150 LINE SMOOTH",
"224 150 OFFCURVE",
"195 184 OFFCURVE",
"206 270 CURVE",
"16 270 LINE",
"14 254 LINE SMOOTH",
"-7 89 OFFCURVE",
"72 2 OFFCURVE",
"230 -12 CURVE",
"199 -70 LINE",
"209 -99 LINE",
"209 -99 OFFCURVE",
"231 -94 OFFCURVE",
"250 -94 CURVE SMOOTH",
"281 -94 OFFCURVE",
"291 -102 OFFCURVE",
"291 -115 CURVE SMOOTH",
"291 -129 OFFCURVE",
"281 -138 OFFCURVE",
"244 -138 CURVE SMOOTH",
"218 -138 OFFCURVE",
"190 -130 OFFCURVE",
"177 -121 CURVE",
"141 -188 LINE",
"158 -200 OFFCURVE",
"196 -216 OFFCURVE",
"252 -216 CURVE SMOOTH",
"337 -216 OFFCURVE",
"386 -178 OFFCURVE",
"386 -115 CURVE SMOOTH",
"386 -65 OFFCURVE",
"349 -42 OFFCURVE",
"297 -37 CURVE",
"310 -13 LINE",
"475 -4 OFFCURVE",
"574 72 OFFCURVE",
"589 211 CURVE SMOOTH",
"591 229 LINE SMOOTH",
"608 378 OFFCURVE",
"534 444 OFFCURVE",
"367 467 CURVE SMOOTH",
"264 481 OFFCURVE",
"247 508 OFFCURVE",
"251 550 CURVE SMOOTH",
"252 560 LINE SMOOTH",
"256 599 OFFCURVE",
"288 630 OFFCURVE",
"343 630 CURVE SMOOTH",
"353 630 LINE SMOOTH",
"423 630 OFFCURVE",
"443 588 OFFCURVE",
"431 500 CURVE",
"621 500 LINE",
"624 524 LINE SMOOTH",
"646 702 OFFCURVE",
"565 794 OFFCURVE",
"370 794 CURVE SMOOTH",
"175 794 OFFCURVE",
"74 700 OFFCURVE",
"59 562 CURVE SMOOTH",
"57 544 LINE SMOOTH",
"41 403 OFFCURVE",
"110 336 OFFCURVE"
);
}
);
width = 640;
},
{
layerId = "77865E0F-7A14-4552-9F9F-E712627EBCD5";
name = Light;
paths = (
{
closed = 1;
nodes = (
"137 -186 LINE",
"157 -198 OFFCURVE",
"191 -206 OFFCURVE",
"218 -206 CURVE SMOOTH",
"266 -206 OFFCURVE",
"314 -186 OFFCURVE",
"314 -126 CURVE SMOOTH",
"314 -78 OFFCURVE",
"273 -64 OFFCURVE",
"236 -64 CURVE SMOOTH",
"229 -64 OFFCURVE",
"222 -64 OFFCURVE",
"217 -65 CURVE",
"246 -6 LINE",
"381 -6 OFFCURVE",
"487 39 OFFCURVE",
"504 174 CURVE SMOOTH",
"507 198 LINE SMOOTH",
"521 314 OFFCURVE",
"469 391 OFFCURVE",
"301 414 CURVE SMOOTH",
"142 436 OFFCURVE",
"91 489 OFFCURVE",
"103 586 CURVE SMOOTH",
"106 610 LINE SMOOTH",
"119 713 OFFCURVE",
"218 766 OFFCURVE",
"331 766 CURVE SMOOTH",
"337 766 LINE SMOOTH",
"478 766 OFFCURVE",
"549 698 OFFCURVE",
"524 520 CURVE",
"544 520 LINE",
"547 544 LINE SMOOTH",
"566 698 OFFCURVE",
"497 786 OFFCURVE",
"334 786 CURVE SMOOTH",
"204 786 OFFCURVE",
"100 732 OFFCURVE",
"85 610 CURVE SMOOTH",
"82 586 LINE SMOOTH",
"70 488 OFFCURVE",
"121 419 OFFCURVE",
"289 395 CURVE SMOOTH",
"444 373 OFFCURVE",
"500 314 OFFCURVE",
"486 198 CURVE SMOOTH",
"483 174 LINE SMOOTH",
"469 58 OFFCURVE",
"373 14 OFFCURVE",
"249 14 CURVE SMOOTH",
"243 14 LINE SMOOTH",
"95 14 OFFCURVE",
"27 88 OFFCURVE",
"53 250 CURVE",
"33 250 LINE",
"30 226 LINE SMOOTH",
"12 85 OFFCURVE",
"74 1 OFFCURVE",
"227 -5 CURVE",
"194 -73 LINE",
"203 -84 LINE",
"203 -84 OFFCURVE",
"215 -82 OFFCURVE",
"229 -82 CURVE SMOOTH",
"264 -82 OFFCURVE",
"296 -87 OFFCURVE",
"296 -126 CURVE SMOOTH",
"296 -177 OFFCURVE",
"256 -188 OFFCURVE",
"218 -188 CURVE SMOOTH",
"194 -188 OFFCURVE",
"160 -180 OFFCURVE",
"145 -170 CURVE"
);
}
);
width = 580;
}
);
unicode = 015E;
},
{
glyphname = Scaron;
lastChange = "2015-06-21 14:11:14 +0000";
layers = (
{
layerId = "B9198381-BC0C-4069-9423-397854D57297";
name = Bold;
paths = (
{
closed = 1;
nodes = (
"171 950 LINE",
"286 840 LINE",
"476 840 LINE",
"621 950 LINE",
"456 950 LINE",
"390 910 LINE",
"336 950 LINE"
);
},
{
closed = 1;
nodes = (
"277 314 CURVE SMOOTH",
"383 300 OFFCURVE",
"402 269 OFFCURVE",
"398 230 CURVE SMOOTH",
"397 220 LINE SMOOTH",
"393 182 OFFCURVE",
"364 150 OFFCURVE",
"299 150 CURVE SMOOTH",
"289 150 LINE SMOOTH",
"224 150 OFFCURVE",
"195 184 OFFCURVE",
"206 270 CURVE",
"16 270 LINE",
"14 254 LINE SMOOTH",
"-9 73 OFFCURVE",
"89 -14 OFFCURVE",
"279 -14 CURVE SMOOTH",
"463 -14 OFFCURVE",
"573 64 OFFCURVE",
"589 211 CURVE SMOOTH",
"591 229 LINE SMOOTH",
"608 378 OFFCURVE",
"534 444 OFFCURVE",
"367 467 CURVE SMOOTH",
"264 481 OFFCURVE",
"247 508 OFFCURVE",
"251 550 CURVE SMOOTH",
"252 560 LINE SMOOTH",
"256 599 OFFCURVE",
"288 630 OFFCURVE",
"343 630 CURVE SMOOTH",
"353 630 LINE SMOOTH",
"423 630 OFFCURVE",
"443 588 OFFCURVE",
"431 500 CURVE",
"621 500 LINE",
"624 524 LINE SMOOTH",
"646 702 OFFCURVE",
"565 794 OFFCURVE",
"370 794 CURVE SMOOTH",
"175 794 OFFCURVE",
"74 700 OFFCURVE",
"59 562 CURVE SMOOTH",
"57 544 LINE SMOOTH",
"41 403 OFFCURVE",
"110 336 OFFCURVE"
);
}
);
width = 640;
},
{
layerId = "77865E0F-7A14-4552-9F9F-E712627EBCD5";
name = Light;
paths = (
{
closed = 1;
nodes = (
"289 395 CURVE SMOOTH",
"444 373 OFFCURVE",
"500 314 OFFCURVE",
"486 198 CURVE SMOOTH",
"483 174 LINE SMOOTH",
"469 58 OFFCURVE",
"373 14 OFFCURVE",
"249 14 CURVE SMOOTH",
"243 14 LINE SMOOTH",
"95 14 OFFCURVE",
"27 88 OFFCURVE",
"53 250 CURVE",
"33 250 LINE",
"30 226 LINE SMOOTH",
"12 80 OFFCURVE",
"79 -6 OFFCURVE",
"246 -6 CURVE SMOOTH",
"381 -6 OFFCURVE",
"487 39 OFFCURVE",
"504 174 CURVE SMOOTH",
"507 198 LINE SMOOTH",
"521 314 OFFCURVE",
"469 391 OFFCURVE",
"301 414 CURVE SMOOTH",
"142 436 OFFCURVE",
"91 489 OFFCURVE",
"103 586 CURVE SMOOTH",
"106 610 LINE SMOOTH",
"119 713 OFFCURVE",
"218 766 OFFCURVE",
"331 766 CURVE SMOOTH",
"337 766 LINE SMOOTH",
"478 766 OFFCURVE",
"549 698 OFFCURVE",
"524 520 CURVE",
"544 520 LINE",
"547 544 LINE SMOOTH",
"566 698 OFFCURVE",
"497 786 OFFCURVE",
"334 786 CURVE SMOOTH",
"204 786 OFFCURVE",
"100 732 OFFCURVE",
"85 610 CURVE SMOOTH",
"82 586 LINE SMOOTH",
"70 488 OFFCURVE",
"121 419 OFFCURVE"
);
},
{
closed = 1;
nodes = (
"451 950 LINE",
"352 855 LINE",
"279 950 LINE",
"256 950 LINE",
"341 840 LINE",
"361 840 LINE",
"476 950 LINE"
);
}
);
width = 580;
}
);
unicode = 0160;
},
{
glyphname = Scommaaccent;
lastChange = "2015-06-21 14:11:14 +0000";
layers = (
{
layerId = "B9198381-BC0C-4069-9423-397854D57297";
name = Bold;
paths = (
{
closed = 1;
nodes = (
"345 -40 LINE",
"185 -40 LINE",
"172 -140 LINE",
"260 -140 LINE",
"242 -163 OFFCURVE",
"211 -170 OFFCURVE",
"168 -170 CURVE",
"160 -230 LINE",
"270 -230 OFFCURVE",
"325 -195 OFFCURVE",
"337 -100 CURVE SMOOTH"
);
},
{
closed = 1;
nodes = (
"277 314 CURVE SMOOTH",
"383 300 OFFCURVE",
"402 269 OFFCURVE",
"398 230 CURVE SMOOTH",
"397 220 LINE SMOOTH",
"393 182 OFFCURVE",
"364 150 OFFCURVE",
"299 150 CURVE SMOOTH",
"289 150 LINE SMOOTH",
"224 150 OFFCURVE",
"195 184 OFFCURVE",
"206 270 CURVE",
"16 270 LINE",
"14 254 LINE SMOOTH",
"-9 73 OFFCURVE",
"89 -14 OFFCURVE",
"279 -14 CURVE SMOOTH",
"463 -14 OFFCURVE",
"573 64 OFFCURVE",
"589 211 CURVE SMOOTH",
"591 229 LINE SMOOTH",
"608 378 OFFCURVE",
"534 444 OFFCURVE",
"367 467 CURVE SMOOTH",
"264 481 OFFCURVE",
"247 508 OFFCURVE",
"251 550 CURVE SMOOTH",
"252 560 LINE SMOOTH",
"256 599 OFFCURVE",
"288 630 OFFCURVE",
"343 630 CURVE SMOOTH",
"353 630 LINE SMOOTH",
"423 630 OFFCURVE",
"443 588 OFFCURVE",
"431 500 CURVE",
"621 500 LINE",
"624 524 LINE SMOOTH",
"646 702 OFFCURVE",
"565 794 OFFCURVE",
"370 794 CURVE SMOOTH",
"175 794 OFFCURVE",
"74 700 OFFCURVE",
"59 562 CURVE SMOOTH",
"57 544 LINE SMOOTH",
"41 403 OFFCURVE",
"110 336 OFFCURVE"
);
}
);
width = 640;
},
{
layerId = "77865E0F-7A14-4552-9F9F-E712627EBCD5";
name = Light;
paths = (
{
closed = 1;
nodes = (
"289 395 CURVE SMOOTH",
"444 373 OFFCURVE",
"500 314 OFFCURVE",
"486 198 CURVE SMOOTH",
"483 174 LINE SMOOTH",
"469 58 OFFCURVE",
"373 14 OFFCURVE",
"249 14 CURVE SMOOTH",
"243 14 LINE SMOOTH",
"95 14 OFFCURVE",
"27 88 OFFCURVE",
"53 250 CURVE",
"33 250 LINE",
"30 226 LINE SMOOTH",
"12 80 OFFCURVE",
"79 -6 OFFCURVE",
"246 -6 CURVE SMOOTH",
"381 -6 OFFCURVE",
"487 39 OFFCURVE",
"504 174 CURVE SMOOTH",
"507 198 LINE SMOOTH",
"521 314 OFFCURVE",
"469 391 OFFCURVE",
"301 414 CURVE SMOOTH",
"142 436 OFFCURVE",
"91 489 OFFCURVE",
"103 586 CURVE SMOOTH",
"106 610 LINE SMOOTH",
"119 713 OFFCURVE",
"218 766 OFFCURVE",
"331 766 CURVE SMOOTH",
"337 766 LINE SMOOTH",
"478 766 OFFCURVE",
"549 698 OFFCURVE",
"524 520 CURVE",
"544 520 LINE",
"547 544 LINE SMOOTH",
"566 698 OFFCURVE",
"497 786 OFFCURVE",
"334 786 CURVE SMOOTH",
"204 786 OFFCURVE",
"100 732 OFFCURVE",
"85 610 CURVE SMOOTH",
"82 586 LINE SMOOTH",
"70 488 OFFCURVE",
"121 419 OFFCURVE"
);
},
{
closed = 1;
nodes = (
"251 -70 LINE",
"211 -70 LINE",
"206 -110 LINE",
"226 -110 LINE",
"216 -176 OFFCURVE",
"180 -186 OFFCURVE",
"155 -186 CURVE",
"153 -206 LINE",
"195 -206 OFFCURVE",
"237 -178 OFFCURVE",
"247 -102 CURVE SMOOTH"
);
}
);
width = 580;
}
);
unicode = 0218;
},
{
glyphname = T;
lastChange = "2015-06-21 14:11:14 +0000";
layers = (
{
layerId = "B9198381-BC0C-4069-9423-397854D57297";
name = Bold;
paths = (
{
closed = 1;
nodes = (
"412 616 LINE",
"587 616 LINE",
"608 780 LINE",
"68 780 LINE",
"47 616 LINE",
"222 616 LINE",
"141 0 LINE",
"331 0 LINE"
);
}
);
width = 570;
},
{
layerId = "77865E0F-7A14-4552-9F9F-E712627EBCD5";
name = Light;
paths = (
{
closed = 1;
nodes = (
"305 760 LINE",
"514 760 LINE",
"517 780 LINE",
"78 780 LINE",
"75 760 LINE",
"284 760 LINE",
"185 0 LINE",
"205 0 LINE"
);
}
);
width = 490;
}
);
unicode = 0054;
},
{
glyphname = Tcommaaccent;
lastChange = "2015-06-21 14:11:14 +0000";
layers = (
{
layerId = "B9198381-BC0C-4069-9423-397854D57297";
name = Bold;
paths = (
{
closed = 1;
nodes = (
"412 616 LINE",
"587 616 LINE",
"608 780 LINE",
"68 780 LINE",
"47 616 LINE",
"222 616 LINE",
"141 0 LINE",
"331 0 LINE"
);
},
{
closed = 1;
nodes = (
"310 -40 LINE",
"150 -40 LINE",
"137 -140 LINE",
"225 -140 LINE",
"207 -163 OFFCURVE",
"176 -170 OFFCURVE",
"133 -170 CURVE",
"125 -230 LINE",
"235 -230 OFFCURVE",
"290 -195 OFFCURVE",
"302 -100 CURVE SMOOTH"
);
}
);
width = 570;
},
{
layerId = "77865E0F-7A14-4552-9F9F-E712627EBCD5";
name = Light;
paths = (
{
closed = 1;
nodes = (
"305 760 LINE",
"514 760 LINE",
"517 780 LINE",
"78 780 LINE",
"75 760 LINE",
"284 760 LINE",
"185 0 LINE",
"205 0 LINE"
);
},
{
closed = 1;
nodes = (
"206 -70 LINE",
"166 -70 LINE",
"161 -110 LINE",
"181 -110 LINE",
"171 -176 OFFCURVE",
"135 -186 OFFCURVE",
"110 -186 CURVE",
"108 -206 LINE",
"150 -206 OFFCURVE",
"192 -178 OFFCURVE",
"202 -102 CURVE SMOOTH"
);
}
);
width = 490;
}
);
unicode = 0162;
},
{
glyphname = Tcaron;
lastChange = "2015-06-21 14:11:14 +0000";
layers = (
{
layerId = "B9198381-BC0C-4069-9423-397854D57297";
name = Bold;
paths = (
{
closed = 1;
nodes = (
"412 616 LINE",
"587 616 LINE",
"608 780 LINE",
"68 780 LINE",
"47 616 LINE",
"222 616 LINE",
"141 0 LINE",
"331 0 LINE"
);
},
{
closed = 1;
nodes = (
"136 950 LINE",
"251 840 LINE",
"441 840 LINE",
"586 950 LINE",
"421 950 LINE",
"355 910 LINE",
"301 950 LINE"
);
}
);
width = 570;
},
{
layerId = "77865E0F-7A14-4552-9F9F-E712627EBCD5";
name = Light;
paths = (
{
closed = 1;
nodes = (
"305 760 LINE",
"514 760 LINE",
"517 780 LINE",
"78 780 LINE",
"75 760 LINE",
"284 760 LINE",
"185 0 LINE",
"205 0 LINE"
);
},
{
closed = 1;
nodes = (
"406 950 LINE",
"307 855 LINE",
"234 950 LINE",
"211 950 LINE",
"296 840 LINE",
"316 840 LINE",
"431 950 LINE"
);
}
);
width = 490;
}
);
unicode = 0164;
},
{
glyphname = Tdotaccent;
lastChange = "2015-06-21 14:11:14 +0000";
layers = (
{
layerId = "B9198381-BC0C-4069-9423-397854D57297";
name = Bold;
paths = (
{
closed = 1;
nodes = (
"412 616 LINE",
"587 616 LINE",
"608 780 LINE",
"68 780 LINE",
"47 616 LINE",
"222 616 LINE",
"141 0 LINE",
"331 0 LINE"
);
},
{
closed = 1;
nodes = (
"436 950 LINE",
"286 950 LINE",
"271 840 LINE",
"421 840 LINE"
);
}
);
width = 570;
},
{
layerId = "77865E0F-7A14-4552-9F9F-E712627EBCD5";
name = Light;
paths = (
{
closed = 1;
nodes = (
"305 760 LINE",
"514 760 LINE",
"517 780 LINE",
"78 780 LINE",
"75 760 LINE",
"284 760 LINE",
"185 0 LINE",
"205 0 LINE"
);
},
{
closed = 1;
nodes = (
"336 915 LINE",
"296 915 LINE",
"291 875 LINE",
"331 875 LINE"
);
}
);
width = 490;
}
);
unicode = 1E6A;
},
{
glyphname = U;
lastChange = "2015-06-21 14:11:14 +0000";
layers = (
{
layerId = "B9198381-BC0C-4069-9423-397854D57297";
name = Bold;
paths = (
{
closed = 1;
nodes = (
"290 -14 CURVE SMOOTH",
"516 -14 OFFCURVE",
"587 84 OFFCURVE",
"608 248 CURVE SMOOTH",
"678 780 LINE",
"488 780 LINE",
"419 253 LINE SMOOTH",
"411 191 OFFCURVE",
"384 150 OFFCURVE",
"301 150 CURVE SMOOTH",
"218 150 OFFCURVE",
"211 191 OFFCURVE",
"219 253 CURVE SMOOTH",
"288 780 LINE",
"98 780 LINE",
"28 248 LINE SMOOTH",
"7 84 OFFCURVE",
"64 -14 OFFCURVE"
);
}
);
width = 670;
},
{
layerId = "77865E0F-7A14-4552-9F9F-E712627EBCD5";
name = Light;
paths = (
{
closed = 1;
nodes = (
"267 -6 CURVE SMOOTH",
"407 -6 OFFCURVE",
"500 46 OFFCURVE",
"525 239 CURVE SMOOTH",
"596 780 LINE",
"576 780 LINE",
"506 245 LINE SMOOTH",
"482 64 OFFCURVE",
"402 14 OFFCURVE",
"267 14 CURVE SMOOTH",
"132 14 OFFCURVE",
"56 63 OFFCURVE",
"80 244 CURVE SMOOTH",
"150 780 LINE",
"130 780 LINE",
"59 239 LINE SMOOTH",
"34 46 OFFCURVE",
"127 -6 OFFCURVE"
);
}
);
width = 620;
}
);
unicode = 0055;
},
{
glyphname = Ugrave;
lastChange = "2015-06-21 14:11:14 +0000";
layers = (
{
layerId = "B9198381-BC0C-4069-9423-397854D57297";
name = Bold;
paths = (
{
closed = 1;
nodes = (
"256 950 LINE",
"305 840 LINE",
"487 840 LINE",
"449 950 LINE"
);
},
{
closed = 1;
nodes = (
"290 -14 CURVE SMOOTH",
"516 -14 OFFCURVE",
"587 84 OFFCURVE",
"608 248 CURVE SMOOTH",
"678 780 LINE",
"488 780 LINE",
"419 253 LINE SMOOTH",
"411 191 OFFCURVE",
"384 150 OFFCURVE",
"301 150 CURVE SMOOTH",
"218 150 OFFCURVE",
"211 191 OFFCURVE",
"219 253 CURVE SMOOTH",
"288 780 LINE",
"98 780 LINE",
"28 248 LINE SMOOTH",
"7 84 OFFCURVE",
"64 -14 OFFCURVE"
);
}
);
width = 670;
},
{
layerId = "77865E0F-7A14-4552-9F9F-E712627EBCD5";
name = Light;
paths = (
{
closed = 1;
nodes = (
"267 -6 CURVE SMOOTH",
"407 -6 OFFCURVE",
"500 46 OFFCURVE",
"525 239 CURVE SMOOTH",
"596 780 LINE",
"576 780 LINE",
"506 245 LINE SMOOTH",
"482 64 OFFCURVE",
"402 14 OFFCURVE",
"267 14 CURVE SMOOTH",
"132 14 OFFCURVE",
"56 63 OFFCURVE",
"80 244 CURVE SMOOTH",
"150 780 LINE",
"130 780 LINE",
"59 239 LINE SMOOTH",
"34 46 OFFCURVE",
"127 -6 OFFCURVE"
);
},
{
closed = 1;
nodes = (
"313 950 LINE",
"360 840 LINE",
"382 840 LINE",
"335 950 LINE"
);
}
);
width = 620;
}
);
unicode = 00D9;
},
{
glyphname = Uacute;
lastChange = "2015-06-21 14:11:14 +0000";
layers = (
{
layerId = "B9198381-BC0C-4069-9423-397854D57297";
name = Bold;
paths = (
{
closed = 1;
nodes = (
"373 950 LINE",
"305 840 LINE",
"487 840 LINE",
"566 950 LINE"
);
},
{
closed = 1;
nodes = (
"290 -14 CURVE SMOOTH",
"516 -14 OFFCURVE",
"587 84 OFFCURVE",
"608 248 CURVE SMOOTH",
"678 780 LINE",
"488 780 LINE",
"419 253 LINE SMOOTH",
"411 191 OFFCURVE",
"384 150 OFFCURVE",
"301 150 CURVE SMOOTH",
"218 150 OFFCURVE",
"211 191 OFFCURVE",
"219 253 CURVE SMOOTH",
"288 780 LINE",
"98 780 LINE",
"28 248 LINE SMOOTH",
"7 84 OFFCURVE",
"64 -14 OFFCURVE"
);
}
);
width = 670;
},
{
layerId = "77865E0F-7A14-4552-9F9F-E712627EBCD5";
name = Light;
paths = (
{
closed = 1;
nodes = (
"267 -6 CURVE SMOOTH",
"407 -6 OFFCURVE",
"500 46 OFFCURVE",
"525 239 CURVE SMOOTH",
"596 780 LINE",
"576 780 LINE",
"506 245 LINE SMOOTH",
"482 64 OFFCURVE",
"402 14 OFFCURVE",
"267 14 CURVE SMOOTH",
"132 14 OFFCURVE",
"56 63 OFFCURVE",
"80 244 CURVE SMOOTH",
"150 780 LINE",
"130 780 LINE",
"59 239 LINE SMOOTH",
"34 46 OFFCURVE",
"127 -6 OFFCURVE"
);
},
{
closed = 1;
nodes = (
"437 950 LINE",
"360 840 LINE",
"382 840 LINE",
"459 950 LINE"
);
}
);
width = 620;
}
);
unicode = 00DA;
},
{
glyphname = Ucircumflex;
lastChange = "2015-06-21 14:11:14 +0000";
layers = (
{
layerId = "B9198381-BC0C-4069-9423-397854D57297";
name = Bold;
paths = (
{
closed = 1;
nodes = (
"336 840 LINE",
"401 879 LINE",
"456 840 LINE",
"621 840 LINE",
"506 950 LINE",
"316 950 LINE",
"171 840 LINE"
);
},
{
closed = 1;
nodes = (
"290 -14 CURVE SMOOTH",
"516 -14 OFFCURVE",
"587 84 OFFCURVE",
"608 248 CURVE SMOOTH",
"678 780 LINE",
"488 780 LINE",
"419 253 LINE SMOOTH",
"411 191 OFFCURVE",
"384 150 OFFCURVE",
"301 150 CURVE SMOOTH",
"218 150 OFFCURVE",
"211 191 OFFCURVE",
"219 253 CURVE SMOOTH",
"288 780 LINE",
"98 780 LINE",
"28 248 LINE SMOOTH",
"7 84 OFFCURVE",
"64 -14 OFFCURVE"
);
}
);
width = 670;
},
{
layerId = "77865E0F-7A14-4552-9F9F-E712627EBCD5";
name = Light;
paths = (
{
closed = 1;
nodes = (
"267 -6 CURVE SMOOTH",
"407 -6 OFFCURVE",
"500 46 OFFCURVE",
"525 239 CURVE SMOOTH",
"596 780 LINE",
"576 780 LINE",
"506 245 LINE SMOOTH",
"482 64 OFFCURVE",
"402 14 OFFCURVE",
"267 14 CURVE SMOOTH",
"132 14 OFFCURVE",
"56 63 OFFCURVE",
"80 244 CURVE SMOOTH",
"150 780 LINE",
"130 780 LINE",
"59 239 LINE SMOOTH",
"34 46 OFFCURVE",
"127 -6 OFFCURVE"
);
},
{
closed = 1;
nodes = (
"286 840 LINE",
"385 935 LINE",
"458 840 LINE",
"481 840 LINE",
"396 950 LINE",
"376 950 LINE",
"261 840 LINE"
);
}
);
width = 620;
}
);
unicode = 00DB;
},
{
glyphname = Udieresis;
lastChange = "2015-06-21 14:11:14 +0000";
layers = (
{
layerId = "B9198381-BC0C-4069-9423-397854D57297";
name = Bold;
paths = (
{
closed = 1;
nodes = (
"576 950 LINE",
"426 950 LINE",
"411 840 LINE",
"561 840 LINE"
);
},
{
closed = 1;
nodes = (
"396 950 LINE",
"246 950 LINE",
"231 840 LINE",
"381 840 LINE"
);
},
{
closed = 1;
nodes = (
"290 -14 CURVE SMOOTH",
"516 -14 OFFCURVE",
"587 84 OFFCURVE",
"608 248 CURVE SMOOTH",
"678 780 LINE",
"488 780 LINE",
"419 253 LINE SMOOTH",
"411 191 OFFCURVE",
"384 150 OFFCURVE",
"301 150 CURVE SMOOTH",
"218 150 OFFCURVE",
"211 191 OFFCURVE",
"219 253 CURVE SMOOTH",
"288 780 LINE",
"98 780 LINE",
"28 248 LINE SMOOTH",
"7 84 OFFCURVE",
"64 -14 OFFCURVE"
);
}
);
width = 670;
},
{
layerId = "77865E0F-7A14-4552-9F9F-E712627EBCD5";
name = Light;
paths = (
{
closed = 1;
nodes = (
"267 -6 CURVE SMOOTH",
"407 -6 OFFCURVE",
"500 46 OFFCURVE",
"525 239 CURVE SMOOTH",
"596 780 LINE",
"576 780 LINE",
"506 245 LINE SMOOTH",
"482 64 OFFCURVE",
"402 14 OFFCURVE",
"267 14 CURVE SMOOTH",
"132 14 OFFCURVE",
"56 63 OFFCURVE",
"80 244 CURVE SMOOTH",
"150 780 LINE",
"130 780 LINE",
"59 239 LINE SMOOTH",
"34 46 OFFCURVE",
"127 -6 OFFCURVE"
);
},
{
closed = 1;
nodes = (
"331 915 LINE",
"291 915 LINE",
"286 875 LINE",
"326 875 LINE"
);
},
{
closed = 1;
nodes = (
"471 915 LINE",
"431 915 LINE",
"426 875 LINE",
"466 875 LINE"
);
}
);
width = 620;
}
);
unicode = 00DC;
},
{
glyphname = Utilde;
lastChange = "2015-06-21 14:11:14 +0000";
layers = (
{
layerId = "B9198381-BC0C-4069-9423-397854D57297";
name = Bold;
paths = (
{
closed = 1;
nodes = (
"511 950 LINE",
"508 927 OFFCURVE",
"492 920 OFFCURVE",
"474 920 CURVE SMOOTH",
"437 920 OFFCURVE",
"393 966 OFFCURVE",
"328 966 CURVE SMOOTH",
"272 966 OFFCURVE",
"214 935 OFFCURVE",
"201 840 CURVE",
"296 840 LINE",
"299 863 OFFCURVE",
"315 870 OFFCURVE",
"333 870 CURVE SMOOTH",
"370 870 OFFCURVE",
"414 824 OFFCURVE",
"479 824 CURVE SMOOTH",
"535 824 OFFCURVE",
"593 855 OFFCURVE",
"606 950 CURVE"
);
},
{
closed = 1;
nodes = (
"290 -14 CURVE SMOOTH",
"516 -14 OFFCURVE",
"587 84 OFFCURVE",
"608 248 CURVE SMOOTH",
"678 780 LINE",
"488 780 LINE",
"419 253 LINE SMOOTH",
"411 191 OFFCURVE",
"384 150 OFFCURVE",
"301 150 CURVE SMOOTH",
"218 150 OFFCURVE",
"211 191 OFFCURVE",
"219 253 CURVE SMOOTH",
"288 780 LINE",
"98 780 LINE",
"28 248 LINE SMOOTH",
"7 84 OFFCURVE",
"64 -14 OFFCURVE"
);
}
);
width = 670;
},
{
layerId = "77865E0F-7A14-4552-9F9F-E712627EBCD5";
name = Light;
paths = (
{
closed = 1;
nodes = (
"267 -6 CURVE SMOOTH",
"407 -6 OFFCURVE",
"500 46 OFFCURVE",
"525 239 CURVE SMOOTH",
"596 780 LINE",
"576 780 LINE",
"506 245 LINE SMOOTH",
"482 64 OFFCURVE",
"402 14 OFFCURVE",
"267 14 CURVE SMOOTH",
"132 14 OFFCURVE",
"56 63 OFFCURVE",
"80 244 CURVE SMOOTH",
"150 780 LINE",
"130 780 LINE",
"59 239 LINE SMOOTH",
"34 46 OFFCURVE",
"127 -6 OFFCURVE"
);
},
{
closed = 1;
nodes = (
"500 927 LINE",
"494 882 OFFCURVE",
"469 875 OFFCURVE",
"446 875 CURVE SMOOTH",
"399 875 OFFCURVE",
"363 933 OFFCURVE",
"311 933 CURVE SMOOTH",
"281 933 OFFCURVE",
"246 918 OFFCURVE",
"239 863 CURVE",
"257 863 LINE",
"263 908 OFFCURVE",
"288 915 OFFCURVE",
"311 915 CURVE SMOOTH",
"358 915 OFFCURVE",
"394 857 OFFCURVE",
"446 857 CURVE SMOOTH",
"476 857 OFFCURVE",
"511 872 OFFCURVE",
"518 927 CURVE"
);
}
);
width = 620;
}
);
unicode = 0168;
},
{
glyphname = Umacron;
lastChange = "2015-06-21 14:11:14 +0000";
layers = (
{
layerId = "B9198381-BC0C-4069-9423-397854D57297";
name = Bold;
paths = (
{
closed = 1;
nodes = (
"236 840 LINE",
"556 840 LINE",
"571 950 LINE",
"251 950 LINE"
);
},
{
closed = 1;
nodes = (
"290 -14 CURVE SMOOTH",
"516 -14 OFFCURVE",
"587 84 OFFCURVE",
"608 248 CURVE SMOOTH",
"678 780 LINE",
"488 780 LINE",
"419 253 LINE SMOOTH",
"411 191 OFFCURVE",
"384 150 OFFCURVE",
"301 150 CURVE SMOOTH",
"218 150 OFFCURVE",
"211 191 OFFCURVE",
"219 253 CURVE SMOOTH",
"288 780 LINE",
"98 780 LINE",
"28 248 LINE SMOOTH",
"7 84 OFFCURVE",
"64 -14 OFFCURVE"
);
}
);
width = 670;
},
{
layerId = "77865E0F-7A14-4552-9F9F-E712627EBCD5";
name = Light;
paths = (
{
closed = 1;
nodes = (
"267 -6 CURVE SMOOTH",
"407 -6 OFFCURVE",
"500 46 OFFCURVE",
"525 239 CURVE SMOOTH",
"596 780 LINE",
"576 780 LINE",
"506 245 LINE SMOOTH",
"482 64 OFFCURVE",
"402 14 OFFCURVE",
"267 14 CURVE SMOOTH",
"132 14 OFFCURVE",
"56 63 OFFCURVE",
"80 244 CURVE SMOOTH",
"150 780 LINE",
"130 780 LINE",
"59 239 LINE SMOOTH",
"34 46 OFFCURVE",
"127 -6 OFFCURVE"
);
},
{
closed = 1;
nodes = (
"277 885 LINE",
"477 885 LINE",
"480 905 LINE",
"280 905 LINE"
);
}
);
width = 620;
}
);
unicode = 016A;
},
{
glyphname = Ubreve;
lastChange = "2015-06-21 14:11:14 +0000";
layers = (
{
layerId = "B9198381-BC0C-4069-9423-397854D57297";
name = Bold;
paths = (
{
closed = 1;
nodes = (
"394 824 CURVE SMOOTH",
"554 824 OFFCURVE",
"597 883 OFFCURVE",
"606 950 CURVE",
"481 950 LINE",
"478 930 OFFCURVE",
"457 920 OFFCURVE",
"407 920 CURVE SMOOTH",
"357 920 OFFCURVE",
"338 930 OFFCURVE",
"341 950 CURVE",
"216 950 LINE",
"207 883 OFFCURVE",
"234 824 OFFCURVE"
);
},
{
closed = 1;
nodes = (
"290 -14 CURVE SMOOTH",
"516 -14 OFFCURVE",
"587 84 OFFCURVE",
"608 248 CURVE SMOOTH",
"678 780 LINE",
"488 780 LINE",
"419 253 LINE SMOOTH",
"411 191 OFFCURVE",
"384 150 OFFCURVE",
"301 150 CURVE SMOOTH",
"218 150 OFFCURVE",
"211 191 OFFCURVE",
"219 253 CURVE SMOOTH",
"288 780 LINE",
"98 780 LINE",
"28 248 LINE SMOOTH",
"7 84 OFFCURVE",
"64 -14 OFFCURVE"
);
}
);
width = 670;
},
{
layerId = "77865E0F-7A14-4552-9F9F-E712627EBCD5";
name = Light;
paths = (
{
closed = 1;
nodes = (
"267 -6 CURVE SMOOTH",
"407 -6 OFFCURVE",
"500 46 OFFCURVE",
"525 239 CURVE SMOOTH",
"596 780 LINE",
"576 780 LINE",
"506 245 LINE SMOOTH",
"482 64 OFFCURVE",
"402 14 OFFCURVE",
"267 14 CURVE SMOOTH",
"132 14 OFFCURVE",
"56 63 OFFCURVE",
"80 244 CURVE SMOOTH",
"150 780 LINE",
"130 780 LINE",
"59 239 LINE SMOOTH",
"34 46 OFFCURVE",
"127 -6 OFFCURVE"
);
},
{
closed = 1;
nodes = (
"370 852 CURVE SMOOTH",
"298 852 OFFCURVE",
"265 890 OFFCURVE",
"273 950 CURVE",
"256 950 LINE",
"246 880 OFFCURVE",
"287 834 OFFCURVE",
"371 834 CURVE SMOOTH",
"454 834 OFFCURVE",
"506 880 OFFCURVE",
"516 950 CURVE",
"497 950 LINE",
"489 890 OFFCURVE",
"441 852 OFFCURVE"
);
}
);
width = 620;
}
);
unicode = 016C;
},
{
glyphname = Uring;
lastChange = "2015-06-21 14:11:14 +0000";
layers = (
{
layerId = "B9198381-BC0C-4069-9423-397854D57297";
name = Bold;
paths = (
{
closed = 1;
nodes = (
"290 -14 CURVE SMOOTH",
"516 -14 OFFCURVE",
"587 84 OFFCURVE",
"608 248 CURVE SMOOTH",
"678 780 LINE",
"488 780 LINE",
"419 253 LINE SMOOTH",
"411 191 OFFCURVE",
"384 150 OFFCURVE",
"301 150 CURVE SMOOTH",
"218 150 OFFCURVE",
"211 191 OFFCURVE",
"219 253 CURVE SMOOTH",
"288 780 LINE",
"98 780 LINE",
"28 248 LINE SMOOTH",
"7 84 OFFCURVE",
"64 -14 OFFCURVE"
);
},
{
closed = 1;
nodes = (
"386 746 CURVE SMOOTH",
"453 746 OFFCURVE",
"509 798 OFFCURVE",
"509 868 CURVE SMOOTH",
"509 923 OFFCURVE",
"468 964 OFFCURVE",
"411 964 CURVE SMOOTH",
"344 964 OFFCURVE",
"288 912 OFFCURVE",
"288 842 CURVE SMOOTH",
"288 787 OFFCURVE",
"329 746 OFFCURVE"
);
},
{
closed = 1;
nodes = (
"405 904 CURVE SMOOTH",
"430 904 OFFCURVE",
"448 886 OFFCURVE",
"448 860 CURVE SMOOTH",
"448 828 OFFCURVE",
"423 806 OFFCURVE",
"392 806 CURVE SMOOTH",
"367 806 OFFCURVE",
"349 824 OFFCURVE",
"349 850 CURVE SMOOTH",
"349 882 OFFCURVE",
"374 904 OFFCURVE"
);
}
);
width = 670;
},
{
layerId = "77865E0F-7A14-4552-9F9F-E712627EBCD5";
name = Light;
paths = (
{
closed = 1;
nodes = (
"267 -6 CURVE SMOOTH",
"407 -6 OFFCURVE",
"500 46 OFFCURVE",
"525 239 CURVE SMOOTH",
"596 780 LINE",
"576 780 LINE",
"506 245 LINE SMOOTH",
"482 64 OFFCURVE",
"402 14 OFFCURVE",
"267 14 CURVE SMOOTH",
"132 14 OFFCURVE",
"56 63 OFFCURVE",
"80 244 CURVE SMOOTH",
"150 780 LINE",
"130 780 LINE",
"59 239 LINE SMOOTH",
"34 46 OFFCURVE",
"127 -6 OFFCURVE"
);
},
{
closed = 1;
nodes = (
"383 938 CURVE SMOOTH",
"420 938 OFFCURVE",
"444 917 OFFCURVE",
"444 878 CURVE SMOOTH",
"444 833 OFFCURVE",
"411 802 OFFCURVE",
"368 802 CURVE SMOOTH",
"331 802 OFFCURVE",
"307 823 OFFCURVE",
"307 862 CURVE SMOOTH",
"307 907 OFFCURVE",
"340 938 OFFCURVE"
);
},
{
closed = 1;
nodes = (
"383 956 CURVE SMOOTH",
"333 956 OFFCURVE",
"288 914 OFFCURVE",
"288 862 CURVE SMOOTH",
"288 814 OFFCURVE",
"319 784 OFFCURVE",
"368 784 CURVE SMOOTH",
"418 784 OFFCURVE",
"463 826 OFFCURVE",
"463 878 CURVE SMOOTH",
"463 926 OFFCURVE",
"432 956 OFFCURVE"
);
}
);
width = 620;
}
);
unicode = 016E;
},
{
glyphname = Uhungarumlaut;
lastChange = "2015-06-21 14:11:14 +0000";
layers = (
{
layerId = "B9198381-BC0C-4069-9423-397854D57297";
name = Bold;
paths = (
{
closed = 1;
nodes = (
"473 950 LINE",
"405 840 LINE",
"567 840 LINE",
"646 950 LINE"
);
},
{
closed = 1;
nodes = (
"283 950 LINE",
"225 840 LINE",
"387 840 LINE",
"456 950 LINE"
);
},
{
closed = 1;
nodes = (
"290 -14 CURVE SMOOTH",
"516 -14 OFFCURVE",
"587 84 OFFCURVE",
"608 248 CURVE SMOOTH",
"678 780 LINE",
"488 780 LINE",
"419 253 LINE SMOOTH",
"411 191 OFFCURVE",
"384 150 OFFCURVE",
"301 150 CURVE SMOOTH",
"218 150 OFFCURVE",
"211 191 OFFCURVE",
"219 253 CURVE SMOOTH",
"288 780 LINE",
"98 780 LINE",
"28 248 LINE SMOOTH",
"7 84 OFFCURVE",
"64 -14 OFFCURVE"
);
}
);
width = 670;
},
{
layerId = "77865E0F-7A14-4552-9F9F-E712627EBCD5";
name = Light;
paths = (
{
closed = 1;
nodes = (
"267 -6 CURVE SMOOTH",
"407 -6 OFFCURVE",
"500 46 OFFCURVE",
"525 239 CURVE SMOOTH",
"596 780 LINE",
"576 780 LINE",
"506 245 LINE SMOOTH",
"482 64 OFFCURVE",
"402 14 OFFCURVE",
"267 14 CURVE SMOOTH",
"132 14 OFFCURVE",
"56 63 OFFCURVE",
"80 244 CURVE SMOOTH",
"150 780 LINE",
"130 780 LINE",
"59 239 LINE SMOOTH",
"34 46 OFFCURVE",
"127 -6 OFFCURVE"
);
},
{
closed = 1;
nodes = (
"487 950 LINE",
"410 840 LINE",
"432 840 LINE",
"509 950 LINE"
);
},
{
closed = 1;
nodes = (
"387 950 LINE",
"310 840 LINE",
"332 840 LINE",
"409 950 LINE"
);
}
);
width = 620;
}
);
unicode = 0170;
},
{
glyphname = Uogonek;
lastChange = "2015-06-21 14:11:14 +0000";
layers = (
{
layerId = "B9198381-BC0C-4069-9423-397854D57297";
name = Bold;
paths = (
{
closed = 1;
nodes = (
"418 0 CURVE",
"544 32 OFFCURVE",
"591 120 OFFCURVE",
"608 248 CURVE SMOOTH",
"678 780 LINE",
"488 780 LINE",
"419 253 LINE SMOOTH",
"411 191 OFFCURVE",
"384 150 OFFCURVE",
"301 150 CURVE SMOOTH",
"218 150 OFFCURVE",
"211 191 OFFCURVE",
"219 253 CURVE SMOOTH",
"288 780 LINE",
"98 780 LINE",
"28 248 LINE SMOOTH",
"8 92 OFFCURVE",
"58 -4 OFFCURVE",
"256 -13 CURVE",
"230 -44 OFFCURVE",
"213 -81 OFFCURVE",
"213 -123 CURVE SMOOTH",
"213 -186 OFFCURVE",
"263 -216 OFFCURVE",
"341 -216 CURVE SMOOTH",
"386 -216 OFFCURVE",
"430 -203 OFFCURVE",
"452 -190 CURVE",
"426 -80 LINE",
"419 -84 OFFCURVE",
"407 -90 OFFCURVE",
"389 -90 CURVE SMOOTH",
"368 -90 OFFCURVE",
"354 -79 OFFCURVE",
"354 -63 CURVE SMOOTH",
"354 -29 OFFCURVE",
"393 -11 OFFCURVE"
);
}
);
width = 670;
},
{
layerId = "77865E0F-7A14-4552-9F9F-E712627EBCD5";
name = Light;
paths = (
{
closed = 1;
nodes = (
"355 -170 LINE",
"339 -178 OFFCURVE",
"314 -188 OFFCURVE",
"280 -188 CURVE SMOOTH",
"245 -188 OFFCURVE",
"216 -173 OFFCURVE",
"216 -129 CURVE SMOOTH",
"216 -48 OFFCURVE",
"296 -8 OFFCURVE",
"340 0 CURVE SMOOTH",
"439 19 OFFCURVE",
"504 82 OFFCURVE",
"525 239 CURVE SMOOTH",
"596 780 LINE",
"576 780 LINE",
"506 245 LINE SMOOTH",
"482 64 OFFCURVE",
"402 14 OFFCURVE",
"267 14 CURVE SMOOTH",
"132 14 OFFCURVE",
"56 63 OFFCURVE",
"80 244 CURVE SMOOTH",
"150 780 LINE",
"130 780 LINE",
"59 239 LINE SMOOTH",
"34 46 OFFCURVE",
"127 -6 OFFCURVE",
"267 -6 CURVE SMOOTH",
"280 -6 LINE",
"235 -29 OFFCURVE",
"198 -66 OFFCURVE",
"198 -129 CURVE SMOOTH",
"198 -182 OFFCURVE",
"235 -206 OFFCURVE",
"280 -206 CURVE SMOOTH",
"319 -206 OFFCURVE",
"340 -197 OFFCURVE",
"359 -187 CURVE"
);
}
);
width = 620;
}
);
unicode = 0172;
},
{
glyphname = V;
lastChange = "2015-06-21 14:11:14 +0000";
layers = (
{
layerId = "B9198381-BC0C-4069-9423-397854D57297";
name = Bold;
paths = (
{
closed = 1;
nodes = (
"406 0 LINE",
"694 780 LINE",
"490 780 LINE",
"304 220 LINE",
"265 780 LINE",
"62 780 LINE",
"146 0 LINE"
);
}
);
width = 650;
},
{
layerId = "77865E0F-7A14-4552-9F9F-E712627EBCD5";
name = Light;
paths = (
{
closed = 1;
nodes = (
"254 -10 LINE",
"608 780 LINE",
"586 780 LINE",
"247 20 LINE",
"108 780 LINE",
"88 780 LINE",
"234 -10 LINE"
);
}
);
width = 590;
}
);
unicode = 0056;
},
{
glyphname = W;
lastChange = "2015-06-21 14:11:14 +0000";
layers = (
{
layerId = "B9198381-BC0C-4069-9423-397854D57297";
name = Bold;
paths = (
{
closed = 1;
nodes = (
"523 0 LINE",
"765 0 LINE",
"991 780 LINE",
"793 780 LINE",
"665 262 LINE",
"645 780 LINE",
"411 780 LINE",
"255 262 LINE",
"263 780 LINE",
"65 780 LINE",
"87 0 LINE",
"328 0 LINE",
"499 562 LINE"
);
}
);
width = 950;
},
{
layerId = "77865E0F-7A14-4552-9F9F-E712627EBCD5";
name = Light;
paths = (
{
closed = 1;
nodes = (
"493 780 LINE",
"471 780 LINE",
"172 35 LINE",
"111 780 LINE",
"91 780 LINE",
"156 0 LINE",
"178 0 LINE",
"479 748 LINE",
"584 0 LINE",
"606 0 LINE",
"875 780 LINE",
"853 780 LINE",
"598 33 LINE"
);
}
);
width = 860;
}
);
unicode = 0057;
},
{
glyphname = Wcircumflex;
lastChange = "2015-06-21 14:11:14 +0000";
layers = (
{
layerId = "B9198381-BC0C-4069-9423-397854D57297";
name = Bold;
paths = (
{
closed = 1;
nodes = (
"523 0 LINE",
"765 0 LINE",
"991 780 LINE",
"793 780 LINE",
"665 262 LINE",
"645 780 LINE",
"411 780 LINE",
"255 262 LINE",
"263 780 LINE",
"65 780 LINE",
"87 0 LINE",
"328 0 LINE",
"499 562 LINE"
);
},
{
closed = 1;
nodes = (
"476 840 LINE",
"541 879 LINE",
"596 840 LINE",
"761 840 LINE",
"646 950 LINE",
"456 950 LINE",
"311 840 LINE"
);
}
);
width = 950;
},
{
layerId = "77865E0F-7A14-4552-9F9F-E712627EBCD5";
name = Light;
paths = (
{
closed = 1;
nodes = (
"493 780 LINE",
"471 780 LINE",
"172 35 LINE",
"111 780 LINE",
"91 780 LINE",
"156 0 LINE",
"178 0 LINE",
"479 748 LINE",
"584 0 LINE",
"606 0 LINE",
"875 780 LINE",
"853 780 LINE",
"598 33 LINE"
);
},
{
closed = 1;
nodes = (
"406 840 LINE",
"505 935 LINE",
"578 840 LINE",
"601 840 LINE",
"516 950 LINE",
"496 950 LINE",
"381 840 LINE"
);
}
);
width = 860;
}
);
unicode = 0174;
},
{
glyphname = Wgrave;
lastChange = "2015-06-21 14:11:14 +0000";
layers = (
{
layerId = "B9198381-BC0C-4069-9423-397854D57297";
name = Bold;
paths = (
{
closed = 1;
nodes = (
"523 0 LINE",
"765 0 LINE",
"991 780 LINE",
"793 780 LINE",
"665 262 LINE",
"645 780 LINE",
"411 780 LINE",
"255 262 LINE",
"263 780 LINE",
"65 780 LINE",
"87 0 LINE",
"328 0 LINE",
"499 562 LINE"
);
},
{
closed = 1;
nodes = (
"396 950 LINE",
"445 840 LINE",
"627 840 LINE",
"589 950 LINE"
);
}
);
width = 950;
},
{
layerId = "77865E0F-7A14-4552-9F9F-E712627EBCD5";
name = Light;
paths = (
{
closed = 1;
nodes = (
"493 780 LINE",
"471 780 LINE",
"172 35 LINE",
"111 780 LINE",
"91 780 LINE",
"156 0 LINE",
"178 0 LINE",
"479 748 LINE",
"584 0 LINE",
"606 0 LINE",
"875 780 LINE",
"853 780 LINE",
"598 33 LINE"
);
},
{
closed = 1;
nodes = (
"433 950 LINE",
"480 840 LINE",
"502 840 LINE",
"455 950 LINE"
);
}
);
width = 860;
}
);
unicode = 1E80;
},
{
glyphname = Wacute;
lastChange = "2015-06-21 14:11:14 +0000";
layers = (
{
layerId = "B9198381-BC0C-4069-9423-397854D57297";
name = Bold;
paths = (
{
closed = 1;
nodes = (
"523 0 LINE",
"765 0 LINE",
"991 780 LINE",
"793 780 LINE",
"665 262 LINE",
"645 780 LINE",
"411 780 LINE",
"255 262 LINE",
"263 780 LINE",
"65 780 LINE",
"87 0 LINE",
"328 0 LINE",
"499 562 LINE"
);
},
{
closed = 1;
nodes = (
"513 950 LINE",
"445 840 LINE",
"627 840 LINE",
"706 950 LINE"
);
}
);
width = 950;
},
{
layerId = "77865E0F-7A14-4552-9F9F-E712627EBCD5";
name = Light;
paths = (
{
closed = 1;
nodes = (
"493 780 LINE",
"471 780 LINE",
"172 35 LINE",
"111 780 LINE",
"91 780 LINE",
"156 0 LINE",
"178 0 LINE",
"479 748 LINE",
"584 0 LINE",
"606 0 LINE",
"875 780 LINE",
"853 780 LINE",
"598 33 LINE"
);
},
{
closed = 1;
nodes = (
"557 950 LINE",
"480 840 LINE",
"502 840 LINE",
"579 950 LINE"
);
}
);
width = 860;
}
);
unicode = 1E82;
},
{
glyphname = Wdieresis;
lastChange = "2015-06-21 14:11:14 +0000";
layers = (
{
layerId = "B9198381-BC0C-4069-9423-397854D57297";
name = Bold;
paths = (
{
closed = 1;
nodes = (
"523 0 LINE",
"765 0 LINE",
"991 780 LINE",
"793 780 LINE",
"665 262 LINE",
"645 780 LINE",
"411 780 LINE",
"255 262 LINE",
"263 780 LINE",
"65 780 LINE",
"87 0 LINE",
"328 0 LINE",
"499 562 LINE"
);
},
{
closed = 1;
nodes = (
"716 950 LINE",
"566 950 LINE",
"551 840 LINE",
"701 840 LINE"
);
},
{
closed = 1;
nodes = (
"536 950 LINE",
"386 950 LINE",
"371 840 LINE",
"521 840 LINE"
);
}
);
width = 950;
},
{
layerId = "77865E0F-7A14-4552-9F9F-E712627EBCD5";
name = Light;
paths = (
{
closed = 1;
nodes = (
"493 780 LINE",
"471 780 LINE",
"172 35 LINE",
"111 780 LINE",
"91 780 LINE",
"156 0 LINE",
"178 0 LINE",
"479 748 LINE",
"584 0 LINE",
"606 0 LINE",
"875 780 LINE",
"853 780 LINE",
"598 33 LINE"
);
},
{
closed = 1;
nodes = (
"451 915 LINE",
"411 915 LINE",
"406 875 LINE",
"446 875 LINE"
);
},
{
closed = 1;
nodes = (
"591 915 LINE",
"551 915 LINE",
"546 875 LINE",
"586 875 LINE"
);
}
);
width = 860;
}
);
unicode = 1E84;
},
{
glyphname = X;
lastChange = "2015-06-21 14:11:14 +0000";
layers = (
{
layerId = "B9198381-BC0C-4069-9423-397854D57297";
name = Bold;
paths = (
{
closed = 1;
nodes = (
"-34 0 LINE",
"176 0 LINE",
"315 265 LINE",
"386 0 LINE",
"596 0 LINE",
"469 413 LINE",
"698 780 LINE",
"478 780 LINE",
"352 542 LINE",
"288 780 LINE",
"68 780 LINE",
"200 413 LINE"
);
}
);
width = 660;
},
{
layerId = "77865E0F-7A14-4552-9F9F-E712627EBCD5";
name = Light;
paths = (
{
closed = 1;
nodes = (
"290 371 LINE",
"480 0 LINE",
"503 0 LINE",
"304 389 LINE",
"605 780 LINE",
"579 780 LINE",
"294 409 LINE",
"104 780 LINE",
"81 780 LINE",
"280 391 LINE",
"-21 0 LINE",
"5 0 LINE"
);
}
);
width = 580;
}
);
unicode = 0058;
},
{
glyphname = Y;
lastChange = "2015-06-21 14:11:14 +0000";
layers = (
{
layerId = "B9198381-BC0C-4069-9423-397854D57297";
name = Bold;
paths = (
{
closed = 1;
nodes = (
"397 240 LINE",
"689 780 LINE",
"481 780 LINE",
"333 474 LINE",
"265 780 LINE",
"57 780 LINE",
"207 240 LINE",
"176 0 LINE",
"366 0 LINE"
);
}
);
width = 640;
},
{
layerId = "77865E0F-7A14-4552-9F9F-E712627EBCD5";
name = Light;
paths = (
{
closed = 1;
nodes = (
"248 253 LINE",
"89 780 LINE",
"68 780 LINE",
"236 230 LINE",
"206 0 LINE",
"226 0 LINE",
"256 230 LINE",
"568 780 LINE",
"545 780 LINE"
);
}
);
width = 540;
}
);
unicode = 0059;
},
{
glyphname = Yacute;
lastChange = "2015-06-21 14:11:14 +0000";
layers = (
{
layerId = "B9198381-BC0C-4069-9423-397854D57297";
name = Bold;
paths = (
{
closed = 1;
nodes = (
"397 240 LINE",
"689 780 LINE",
"481 780 LINE",
"333 474 LINE",
"265 780 LINE",
"57 780 LINE",
"207 240 LINE",
"176 0 LINE",
"366 0 LINE"
);
},
{
closed = 1;
nodes = (
"358 950 LINE",
"290 840 LINE",
"472 840 LINE",
"551 950 LINE"
);
}
);
width = 640;
},
{
layerId = "77865E0F-7A14-4552-9F9F-E712627EBCD5";
name = Light;
paths = (
{
closed = 1;
nodes = (
"248 253 LINE",
"89 780 LINE",
"68 780 LINE",
"236 230 LINE",
"206 0 LINE",
"226 0 LINE",
"256 230 LINE",
"568 780 LINE",
"545 780 LINE"
);
},
{
closed = 1;
nodes = (
"392 950 LINE",
"315 840 LINE",
"337 840 LINE",
"414 950 LINE"
);
}
);
width = 540;
}
);
unicode = 00DD;
},
{
glyphname = Ycircumflex;
lastChange = "2015-06-21 14:11:14 +0000";
layers = (
{
layerId = "B9198381-BC0C-4069-9423-397854D57297";
name = Bold;
paths = (
{
closed = 1;
nodes = (
"397 240 LINE",
"689 780 LINE",
"481 780 LINE",
"333 474 LINE",
"265 780 LINE",
"57 780 LINE",
"207 240 LINE",
"176 0 LINE",
"366 0 LINE"
);
},
{
closed = 1;
nodes = (
"321 840 LINE",
"386 879 LINE",
"441 840 LINE",
"606 840 LINE",
"491 950 LINE",
"301 950 LINE",
"156 840 LINE"
);
}
);
width = 640;
},
{
layerId = "77865E0F-7A14-4552-9F9F-E712627EBCD5";
name = Light;
paths = (
{
closed = 1;
nodes = (
"248 253 LINE",
"89 780 LINE",
"68 780 LINE",
"236 230 LINE",
"206 0 LINE",
"226 0 LINE",
"256 230 LINE",
"568 780 LINE",
"545 780 LINE"
);
},
{
closed = 1;
nodes = (
"241 840 LINE",
"340 935 LINE",
"413 840 LINE",
"436 840 LINE",
"351 950 LINE",
"331 950 LINE",
"216 840 LINE"
);
}
);
width = 540;
}
);
unicode = 0176;
},
{
glyphname = Ydieresis;
lastChange = "2015-06-21 14:11:14 +0000";
layers = (
{
layerId = "B9198381-BC0C-4069-9423-397854D57297";
name = Bold;
paths = (
{
closed = 1;
nodes = (
"397 240 LINE",
"689 780 LINE",
"481 780 LINE",
"333 474 LINE",
"265 780 LINE",
"57 780 LINE",
"207 240 LINE",
"176 0 LINE",
"366 0 LINE"
);
},
{
closed = 1;
nodes = (
"561 950 LINE",
"411 950 LINE",
"396 840 LINE",
"546 840 LINE"
);
},
{
closed = 1;
nodes = (
"381 950 LINE",
"231 950 LINE",
"216 840 LINE",
"366 840 LINE"
);
}
);
width = 640;
},
{
layerId = "77865E0F-7A14-4552-9F9F-E712627EBCD5";
name = Light;
paths = (
{
closed = 1;
nodes = (
"248 253 LINE",
"89 780 LINE",
"68 780 LINE",
"236 230 LINE",
"206 0 LINE",
"226 0 LINE",
"256 230 LINE",
"568 780 LINE",
"545 780 LINE"
);
},
{
closed = 1;
nodes = (
"286 915 LINE",
"246 915 LINE",
"241 875 LINE",
"281 875 LINE"
);
},
{
closed = 1;
nodes = (
"426 915 LINE",
"386 915 LINE",
"381 875 LINE",
"421 875 LINE"
);
}
);
width = 540;
}
);
unicode = 0178;
},
{
glyphname = Ymacron;
lastChange = "2015-06-21 14:11:14 +0000";
layers = (
{
layerId = "B9198381-BC0C-4069-9423-397854D57297";
name = Bold;
paths = (
{
closed = 1;
nodes = (
"397 240 LINE",
"689 780 LINE",
"481 780 LINE",
"333 474 LINE",
"265 780 LINE",
"57 780 LINE",
"207 240 LINE",
"176 0 LINE",
"366 0 LINE"
);
},
{
closed = 1;
nodes = (
"221 840 LINE",
"541 840 LINE",
"556 950 LINE",
"236 950 LINE"
);
}
);
width = 640;
},
{
layerId = "77865E0F-7A14-4552-9F9F-E712627EBCD5";
name = Light;
paths = (
{
closed = 1;
nodes = (
"248 253 LINE",
"89 780 LINE",
"68 780 LINE",
"236 230 LINE",
"206 0 LINE",
"226 0 LINE",
"256 230 LINE",
"568 780 LINE",
"545 780 LINE"
);
},
{
closed = 1;
nodes = (
"232 885 LINE",
"432 885 LINE",
"435 905 LINE",
"235 905 LINE"
);
}
);
width = 540;
}
);
unicode = 0232;
},
{
glyphname = Ygrave;
lastChange = "2015-06-21 14:11:14 +0000";
layers = (
{
layerId = "B9198381-BC0C-4069-9423-397854D57297";
name = Bold;
paths = (
{
closed = 1;
nodes = (
"397 240 LINE",
"689 780 LINE",
"481 780 LINE",
"333 474 LINE",
"265 780 LINE",
"57 780 LINE",
"207 240 LINE",
"176 0 LINE",
"366 0 LINE"
);
},
{
closed = 1;
nodes = (
"241 950 LINE",
"290 840 LINE",
"472 840 LINE",
"434 950 LINE"
);
}
);
width = 640;
},
{
layerId = "77865E0F-7A14-4552-9F9F-E712627EBCD5";
name = Light;
paths = (
{
closed = 1;
nodes = (
"248 253 LINE",
"89 780 LINE",
"68 780 LINE",
"236 230 LINE",
"206 0 LINE",
"226 0 LINE",
"256 230 LINE",
"568 780 LINE",
"545 780 LINE"
);
},
{
closed = 1;
nodes = (
"268 950 LINE",
"315 840 LINE",
"337 840 LINE",
"290 950 LINE"
);
}
);
width = 540;
}
);
unicode = 1EF2;
},
{
glyphname = Z;
lastChange = "2015-06-21 14:11:14 +0000";
layers = (
{
layerId = "B9198381-BC0C-4069-9423-397854D57297";
name = Bold;
paths = (
{
closed = 1;
nodes = (
"7 130 LINE",
"-10 0 LINE",
"520 0 LINE",
"541 164 LINE",
"391 164 LINE",
"243 160 LINE",
"595 650 LINE",
"612 780 LINE",
"102 780 LINE",
"81 616 LINE",
"211 616 LINE",
"359 620 LINE"
);
}
);
width = 610;
},
{
layerId = "77865E0F-7A14-4552-9F9F-E712627EBCD5";
name = Light;
paths = (
{
closed = 1;
nodes = (
"-7 14 LINE",
"-9 0 LINE",
"461 0 LINE",
"464 20 LINE",
"133 20 LINE",
"21 19 LINE",
"551 766 LINE",
"553 780 LINE",
"103 780 LINE",
"100 760 LINE",
"411 760 LINE",
"523 761 LINE"
);
}
);
width = 550;
}
);
unicode = 005A;
},
{
glyphname = Zacute;
lastChange = "2015-06-21 14:11:14 +0000";
layers = (
{
layerId = "B9198381-BC0C-4069-9423-397854D57297";
name = Bold;
paths = (
{
closed = 1;
nodes = (
"342 950 LINE",
"274 840 LINE",
"456 840 LINE",
"535 950 LINE"
);
},
{
closed = 1;
nodes = (
"7 130 LINE",
"-10 0 LINE",
"520 0 LINE",
"541 164 LINE",
"391 164 LINE",
"243 160 LINE",
"595 650 LINE",
"612 780 LINE",
"102 780 LINE",
"81 616 LINE",
"211 616 LINE",
"359 620 LINE"
);
}
);
width = 610;
},
{
layerId = "77865E0F-7A14-4552-9F9F-E712627EBCD5";
name = Light;
paths = (
{
closed = 1;
nodes = (
"-7 14 LINE",
"-9 0 LINE",
"461 0 LINE",
"464 20 LINE",
"133 20 LINE",
"21 19 LINE",
"551 766 LINE",
"553 780 LINE",
"103 780 LINE",
"100 760 LINE",
"411 760 LINE",
"523 761 LINE"
);
},
{
closed = 1;
nodes = (
"402 950 LINE",
"325 840 LINE",
"347 840 LINE",
"424 950 LINE"
);
}
);
width = 536;
}
);
unicode = 0179;
},
{
glyphname = Zdotaccent;
lastChange = "2015-06-21 14:11:14 +0000";
layers = (
{
layerId = "B9198381-BC0C-4069-9423-397854D57297";
name = Bold;
paths = (
{
closed = 1;
nodes = (
"455 950 LINE",
"305 950 LINE",
"290 840 LINE",
"440 840 LINE"
);
},
{
closed = 1;
nodes = (
"7 130 LINE",
"-10 0 LINE",
"520 0 LINE",
"541 164 LINE",
"391 164 LINE",
"243 160 LINE",
"595 650 LINE",
"612 780 LINE",
"102 780 LINE",
"81 616 LINE",
"211 616 LINE",
"359 620 LINE"
);
}
);
width = 610;
},
{
layerId = "77865E0F-7A14-4552-9F9F-E712627EBCD5";
name = Light;
paths = (
{
closed = 1;
nodes = (
"-7 14 LINE",
"-9 0 LINE",
"461 0 LINE",
"464 20 LINE",
"133 20 LINE",
"21 19 LINE",
"551 766 LINE",
"553 780 LINE",
"103 780 LINE",
"100 760 LINE",
"411 760 LINE",
"523 761 LINE"
);
},
{
closed = 1;
nodes = (
"366 915 LINE",
"326 915 LINE",
"321 875 LINE",
"361 875 LINE"
);
}
);
width = 536;
}
);
unicode = 017B;
},
{
glyphname = Zcaron;
lastChange = "2015-06-21 14:11:14 +0000";
layers = (
{
layerId = "B9198381-BC0C-4069-9423-397854D57297";
name = Bold;
paths = (
{
closed = 1;
nodes = (
"155 950 LINE",
"270 840 LINE",
"460 840 LINE",
"605 950 LINE",
"440 950 LINE",
"374 910 LINE",
"320 950 LINE"
);
},
{
closed = 1;
nodes = (
"7 130 LINE",
"-10 0 LINE",
"520 0 LINE",
"541 164 LINE",
"391 164 LINE",
"243 160 LINE",
"595 650 LINE",
"612 780 LINE",
"102 780 LINE",
"81 616 LINE",
"211 616 LINE",
"359 620 LINE"
);
}
);
width = 610;
},
{
layerId = "77865E0F-7A14-4552-9F9F-E712627EBCD5";
name = Light;
paths = (
{
closed = 1;
nodes = (
"-7 14 LINE",
"-9 0 LINE",
"461 0 LINE",
"464 20 LINE",
"133 20 LINE",
"21 19 LINE",
"551 766 LINE",
"553 780 LINE",
"103 780 LINE",
"100 760 LINE",
"411 760 LINE",
"523 761 LINE"
);
},
{
closed = 1;
nodes = (
"436 950 LINE",
"337 855 LINE",
"264 950 LINE",
"241 950 LINE",
"326 840 LINE",
"346 840 LINE",
"461 950 LINE"
);
}
);
width = 536;
}
);
unicode = 017D;
},
{
glyphname = AE;
lastChange = "2015-06-21 14:11:14 +0000";
layers = (
{
layerId = "B9198381-BC0C-4069-9423-397854D57297";
name = Bold;
paths = (
{
closed = 1;
nodes = (
"324 780 LINE",
"-45 0 LINE",
"159 0 LINE",
"227 158 LINE",
"388 158 LINE",
"384 0 LINE",
"811 0 LINE",
"832 164 LINE",
"586 164 LINE",
"585 316 LINE",
"802 316 LINE",
"824 480 LINE",
"585 480 LINE",
"585 616 LINE",
"892 616 LINE",
"913 780 LINE"
);
},
{
closed = 1;
nodes = (
"402 560 LINE",
"394 322 LINE",
"299 322 LINE"
);
}
);
width = 900;
},
{
layerId = "77865E0F-7A14-4552-9F9F-E712627EBCD5";
name = Light;
paths = (
{
closed = 1;
nodes = (
"378 780 LINE",
"-19 0 LINE",
"2 0 LINE",
"119 230 LINE",
"402 230 LINE",
"409 0 LINE",
"721 0 LINE",
"723 20 LINE",
"429 20 LINE",
"418 388 LINE",
"722 388 LINE",
"724 408 LINE",
"417 408 LINE",
"406 760 LINE",
"821 760 LINE",
"823 780 LINE"
);
},
{
closed = 1;
nodes = (
"387 758 LINE",
"401 250 LINE",
"129 250 LINE"
);
}
);
width = 820;
}
);
unicode = 00C6;
},
{
glyphname = Eth;
lastChange = "2015-06-21 14:11:14 +0000";
layers = (
{
layerId = "B9198381-BC0C-4069-9423-397854D57297";
name = Bold;
paths = (
{
closed = 1;
nodes = (
"700 410 LINE SMOOTH",
"736 680 OFFCURVE",
"652 780 OFFCURVE",
"407 780 CURVE SMOOTH",
"162 780 LINE",
"121 470 LINE",
"22 470 LINE",
"4 330 LINE",
"103 330 LINE",
"60 0 LINE",
"315 0 LINE SMOOTH",
"560 0 OFFCURVE",
"659 102 OFFCURVE",
"695 372 CURVE SMOOTH"
);
},
{
closed = 1;
nodes = (
"271 164 LINE",
"293 330 LINE",
"444 330 LINE",
"462 470 LINE",
"311 470 LINE",
"331 616 LINE",
"376 616 LINE SMOOTH",
"506 616 OFFCURVE",
"525 545 OFFCURVE",
"507 410 CURVE SMOOTH",
"502 372 LINE SMOOTH",
"484 237 OFFCURVE",
"456 164 OFFCURVE",
"326 164 CURVE SMOOTH"
);
}
);
width = 730;
},
{
layerId = "77865E0F-7A14-4552-9F9F-E712627EBCD5";
name = Light;
paths = (
{
closed = 1;
nodes = (
"27 388 LINE",
"137 388 LINE",
"86 0 LINE",
"270 0 LINE SMOOTH",
"435 0 OFFCURVE",
"575 98 OFFCURVE",
"610 378 CURVE SMOOTH",
"613 402 LINE SMOOTH",
"648 683 OFFCURVE",
"541 780 OFFCURVE",
"376 780 CURVE SMOOTH",
"188 780 LINE",
"139 408 LINE",
"30 408 LINE"
);
},
{
closed = 1;
nodes = (
"109 20 LINE",
"157 388 LINE",
"387 388 LINE",
"390 408 LINE",
"160 408 LINE",
"206 760 LINE",
"376 760 LINE SMOOTH",
"536 760 OFFCURVE",
"625 664 OFFCURVE",
"592 402 CURVE SMOOTH",
"589 378 LINE SMOOTH",
"556 115 OFFCURVE",
"430 20 OFFCURVE",
"270 20 CURVE SMOOTH"
);
}
);
width = 670;
}
);
unicode = 00D0;
},
{
glyphname = Oslash;
lastChange = "2015-06-21 14:11:14 +0000";
layers = (
{
layerId = "B9198381-BC0C-4069-9423-397854D57297";
name = Bold;
paths = (
{
closed = 1;
nodes = (
"385 794 CURVE SMOOTH",
"175 794 OFFCURVE",
"73 678 OFFCURVE",
"37 408 CURVE SMOOTH",
"32 370 LINE SMOOTH",
"16 249 OFFCURVE",
"25 160 OFFCURVE",
"60 98 CURVE",
"-16 0 LINE",
"94 0 LINE",
"119 32 LINE",
"164 0 OFFCURVE",
"224 -14 OFFCURVE",
"300 -14 CURVE SMOOTH",
"510 -14 OFFCURVE",
"611 102 OFFCURVE",
"647 372 CURVE SMOOTH",
"652 410 LINE SMOOTH",
"668 531 OFFCURVE",
"658 620 OFFCURVE",
"624 682 CURVE",
"700 780 LINE",
"590 780 LINE",
"565 748 LINE",
"521 779 OFFCURVE",
"460 794 OFFCURVE"
);
},
{
closed = 1;
nodes = (
"225 370 CURVE SMOOTH",
"230 408 LINE SMOOTH",
"248 544 OFFCURVE",
"278 630 OFFCURVE",
"368 630 CURVE SMOOTH",
"379 630 LINE SMOOTH",
"412 630 OFFCURVE",
"434 618 OFFCURVE",
"448 597 CURVE",
"218 301 LINE",
"219 322 OFFCURVE",
"221 345 OFFCURVE"
);
},
{
closed = 1;
nodes = (
"305 150 LINE SMOOTH",
"271 150 OFFCURVE",
"249 161 OFFCURVE",
"236 183 CURVE",
"466 479 LINE",
"465 458 OFFCURVE",
"462 435 OFFCURVE",
"459 410 CURVE SMOOTH",
"454 372 LINE SMOOTH",
"436 236 OFFCURVE",
"406 150 OFFCURVE",
"316 150 CURVE SMOOTH"
);
}
);
width = 680;
},
{
layerId = "77865E0F-7A14-4552-9F9F-E712627EBCD5";
name = Light;
paths = (
{
closed = 1;
nodes = (
"86 378 CURVE SMOOTH",
"89 402 LINE SMOOTH",
"122 666 OFFCURVE",
"207 766 OFFCURVE",
"358 766 CURVE SMOOTH",
"364 766 LINE SMOOTH",
"438 766 OFFCURVE",
"492 740 OFFCURVE",
"523 684 CURVE",
"101 115 LINE",
"76 174 OFFCURVE",
"71 259 OFFCURVE"
);
},
{
closed = 1;
nodes = (
"39 0 LINE",
"97 78 LINE",
"133 21 OFFCURVE",
"192 -6 OFFCURVE",
"272 -6 CURVE SMOOTH",
"437 -6 OFFCURVE",
"530 100 OFFCURVE",
"565 378 CURVE SMOOTH",
"568 402 LINE SMOOTH",
"584 530 OFFCURVE",
"576 622 OFFCURVE",
"546 684 CURVE",
"617 780 LINE",
"594 780 LINE",
"536 702 LINE",
"500 759 OFFCURVE",
"441 786 OFFCURVE",
"361 786 CURVE SMOOTH",
"196 786 OFFCURVE",
"103 680 OFFCURVE",
"68 402 CURVE SMOOTH",
"65 378 LINE SMOOTH",
"49 250 OFFCURVE",
"57 158 OFFCURVE",
"87 96 CURVE",
"16 0 LINE"
);
},
{
closed = 1;
nodes = (
"544 378 LINE SMOOTH",
"511 114 OFFCURVE",
"426 14 OFFCURVE",
"275 14 CURVE SMOOTH",
"269 14 LINE SMOOTH",
"195 14 OFFCURVE",
"141 40 OFFCURVE",
"110 96 CURVE",
"532 665 LINE",
"557 606 OFFCURVE",
"562 521 OFFCURVE",
"547 402 CURVE SMOOTH"
);
}
);
width = 626;
}
);
unicode = 00D8;
},
{
glyphname = Thorn;
lastChange = "2015-06-21 14:11:14 +0000";
layers = (
{
layerId = "B9198381-BC0C-4069-9423-397854D57297";
name = Bold;
paths = (
{
closed = 1;
nodes = (
"293 780 LINE",
"103 780 LINE",
"1 0 LINE",
"191 0 LINE",
"208 134 LINE",
"287 134 LINE SMOOTH",
"419 134 OFFCURVE",
"571 164 OFFCURVE",
"600 380 CURVE SMOOTH",
"603 402 LINE SMOOTH",
"632 618 OFFCURVE",
"486 646 OFFCURVE",
"354 646 CURVE SMOOTH",
"276 646 LINE"
);
},
{
closed = 1;
nodes = (
"229 298 LINE",
"254 482 LINE",
"341 482 LINE SMOOTH",
"378 482 OFFCURVE",
"417 470 OFFCURVE",
"410 396 CURVE SMOOTH",
"409 385 LINE SMOOTH",
"402 313 OFFCURVE",
"353 298 OFFCURVE",
"316 298 CURVE SMOOTH"
);
}
);
width = 620;
},
{
layerId = "77865E0F-7A14-4552-9F9F-E712627EBCD5";
name = Light;
paths = (
{
closed = 1;
nodes = (
"76 190 LINE",
"128 590 LINE",
"298 590 LINE SMOOTH",
"380 590 OFFCURVE",
"497 560 OFFCURVE",
"477 399 CURVE SMOOTH",
"474 375 LINE SMOOTH",
"454 212 OFFCURVE",
"330 190 OFFCURVE",
"248 190 CURVE SMOOTH"
);
},
{
closed = 1;
nodes = (
"153 780 LINE",
"133 780 LINE",
"31 0 LINE",
"51 0 LINE",
"73 170 LINE",
"248 170 LINE SMOOTH",
"354 170 OFFCURVE",
"474 208 OFFCURVE",
"495 375 CURVE SMOOTH",
"498 399 LINE SMOOTH",
"518 561 OFFCURVE",
"410 610 OFFCURVE",
"298 610 CURVE SMOOTH",
"131 610 LINE"
);
}
);
width = 544;
}
);
unicode = 00DE;
},
{
glyphname = Dcroat;
lastChange = "2015-06-21 14:11:14 +0000";
layers = (
{
layerId = "B9198381-BC0C-4069-9423-397854D57297";
name = Bold;
paths = (
{
closed = 1;
nodes = (
"700 410 LINE SMOOTH",
"736 680 OFFCURVE",
"652 780 OFFCURVE",
"407 780 CURVE SMOOTH",
"162 780 LINE",
"121 470 LINE",
"22 470 LINE",
"4 330 LINE",
"103 330 LINE",
"60 0 LINE",
"315 0 LINE SMOOTH",
"560 0 OFFCURVE",
"659 102 OFFCURVE",
"695 372 CURVE SMOOTH"
);
},
{
closed = 1;
nodes = (
"271 164 LINE",
"293 330 LINE",
"444 330 LINE",
"462 470 LINE",
"311 470 LINE",
"331 616 LINE",
"376 616 LINE SMOOTH",
"506 616 OFFCURVE",
"525 545 OFFCURVE",
"507 410 CURVE SMOOTH",
"502 372 LINE SMOOTH",
"484 237 OFFCURVE",
"456 164 OFFCURVE",
"326 164 CURVE SMOOTH"
);
}
);
width = 730;
},
{
layerId = "77865E0F-7A14-4552-9F9F-E712627EBCD5";
name = Light;
paths = (
{
closed = 1;
nodes = (
"27 388 LINE",
"137 388 LINE",
"86 0 LINE",
"270 0 LINE SMOOTH",
"435 0 OFFCURVE",
"575 98 OFFCURVE",
"610 378 CURVE SMOOTH",
"613 402 LINE SMOOTH",
"648 683 OFFCURVE",
"541 780 OFFCURVE",
"376 780 CURVE SMOOTH",
"188 780 LINE",
"139 408 LINE",
"30 408 LINE"
);
},
{
closed = 1;
nodes = (
"109 20 LINE",
"157 388 LINE",
"387 388 LINE",
"390 408 LINE",
"160 408 LINE",
"206 760 LINE",
"376 760 LINE SMOOTH",
"536 760 OFFCURVE",
"625 664 OFFCURVE",
"592 402 CURVE SMOOTH",
"589 378 LINE SMOOTH",
"556 115 OFFCURVE",
"430 20 OFFCURVE",
"270 20 CURVE SMOOTH"
);
}
);
width = 670;
}
);
unicode = 0110;
},
{
glyphname = Hbar;
lastChange = "2015-06-21 14:11:14 +0000";
layers = (
{
layerId = "B9198381-BC0C-4069-9423-397854D57297";
name = Bold;
paths = (
{
closed = 1;
nodes = (
"483 780 LINE",
"473 700 LINE",
"283 700 LINE",
"293 780 LINE",
"103 780 LINE",
"1 0 LINE",
"191 0 LINE",
"232 316 LINE",
"422 316 LINE",
"381 0 LINE",
"571 0 LINE",
"673 780 LINE"
);
},
{
closed = 1;
nodes = (
"254 480 LINE",
"264 560 LINE",
"454 560 LINE",
"444 480 LINE"
);
}
);
width = 670;
},
{
layerId = "77865E0F-7A14-4552-9F9F-E712627EBCD5";
name = Light;
paths = (
{
closed = 1;
nodes = (
"573 780 LINE",
"550 604 LINE",
"130 604 LINE",
"153 780 LINE",
"133 780 LINE",
"31 0 LINE",
"51 0 LINE",
"102 388 LINE",
"522 388 LINE",
"471 0 LINE",
"491 0 LINE",
"593 780 LINE"
);
},
{
closed = 1;
nodes = (
"104 408 LINE",
"127 584 LINE",
"547 584 LINE",
"524 408 LINE"
);
}
);
width = 620;
}
);
unicode = 0126;
},
{
glyphname = IJ;
lastChange = "2015-06-21 14:11:14 +0000";
layers = (
{
layerId = "B9198381-BC0C-4069-9423-397854D57297";
name = Bold;
paths = (
{
closed = 1;
nodes = (
"386 223 LINE SMOOTH",
"378 161 OFFCURVE",
"348 150 OFFCURVE",
"305 150 CURVE SMOOTH",
"288 150 OFFCURVE",
"263 155 OFFCURVE",
"256 158 CURVE",
"236 3 LINE",
"246 -4 OFFCURVE",
"279 -14 OFFCURVE",
"334 -14 CURVE SMOOTH",
"457 -14 OFFCURVE",
"552 42 OFFCURVE",
"573 202 CURVE SMOOTH",
"649 780 LINE",
"459 780 LINE"
);
},
{
closed = 1;
nodes = (
"298 780 LINE",
"108 780 LINE",
"6 0 LINE",
"196 0 LINE"
);
}
);
width = 641;
},
{
layerId = "77865E0F-7A14-4552-9F9F-E712627EBCD5";
name = Light;
paths = (
{
closed = 1;
nodes = (
"158 780 LINE",
"138 780 LINE",
"36 0 LINE",
"56 0 LINE"
);
},
{
closed = 1;
nodes = (
"322 142 LINE SMOOTH",
"309 40 OFFCURVE",
"258 14 OFFCURVE",
"191 14 CURVE SMOOTH",
"166 14 OFFCURVE",
"140 20 OFFCURVE",
"132 24 CURVE",
"130 4 LINE",
"134 2 OFFCURVE",
"155 -6 OFFCURVE",
"192 -6 CURVE SMOOTH",
"261 -6 OFFCURVE",
"326 24 OFFCURVE",
"341 136 CURVE SMOOTH",
"426 780 LINE",
"406 780 LINE"
);
}
);
width = 450;
}
);
unicode = 0132;
},
{
glyphname = Ldot;
lastChange = "2015-06-21 14:11:14 +0000";
layers = (
{
layerId = "B9198381-BC0C-4069-9423-397854D57297";
name = Bold;
paths = (
{
closed = 1;
nodes = (
"466 0 LINE",
"487 164 LINE",
"212 164 LINE",
"293 780 LINE",
"103 780 LINE",
"1 0 LINE"
);
},
{
closed = 1;
nodes = (
"520 493 LINE",
"330 493 LINE",
"305 303 LINE",
"495 303 LINE"
);
}
);
width = 530;
},
{
layerId = "77865E0F-7A14-4552-9F9F-E712627EBCD5";
name = Light;
paths = (
{
closed = 1;
nodes = (
"401 0 LINE",
"404 20 LINE",
"54 20 LINE",
"154 780 LINE",
"133 780 LINE",
"31 0 LINE"
);
},
{
closed = 1;
nodes = (
"347 418 LINE",
"307 418 LINE",
"302 378 LINE",
"342 378 LINE"
);
}
);
width = 464;
}
);
unicode = 013F;
},
{
glyphname = Lslash;
lastChange = "2015-06-21 14:11:14 +0000";
layers = (
{
layerId = "B9198381-BC0C-4069-9423-397854D57297";
name = Bold;
paths = (
{
closed = 1;
nodes = (
"-18 164 LINE",
"88 212 LINE",
"61 0 LINE",
"526 0 LINE",
"547 164 LINE",
"272 164 LINE",
"291 305 LINE",
"472 388 LINE",
"492 544 LINE",
"311 461 LINE",
"353 780 LINE",
"163 780 LINE",
"109 368 LINE",
"3 320 LINE"
);
}
);
width = 590;
},
{
layerId = "77865E0F-7A14-4552-9F9F-E712627EBCD5";
name = Light;
paths = (
{
closed = 1;
nodes = (
"17 306 LINE",
"13 282 LINE",
"131 345 LINE",
"86 0 LINE",
"456 0 LINE",
"458 20 LINE",
"109 20 LINE",
"153 357 LINE",
"400 490 LINE",
"404 514 LINE",
"156 381 LINE",
"209 780 LINE",
"188 780 LINE",
"134 369 LINE"
);
}
);
width = 519;
}
);
unicode = 0141;
},
{
glyphname = Eng;
lastChange = "2015-06-21 14:11:14 +0000";
layers = (
{
layerId = "B9198381-BC0C-4069-9423-397854D57297";
name = Bold;
paths = (
{
closed = 1;
nodes = (
"693 780 LINE",
"513 780 LINE",
"476 500 LINE",
"462 350 LINE",
"303 780 LINE",
"103 780 LINE",
"1 0 LINE",
"181 0 LINE",
"217 280 LINE",
"232 430 LINE",
"399 -22 LINE",
"385 -50 OFFCURVE",
"359 -56 OFFCURVE",
"328 -56 CURVE SMOOTH",
"312 -56 OFFCURVE",
"288 -52 OFFCURVE",
"283 -50 CURVE",
"263 -200 LINE",
"272 -205 OFFCURVE",
"300 -214 OFFCURVE",
"350 -214 CURVE SMOOTH",
"477 -214 OFFCURVE",
"569 -160 OFFCURVE",
"590 -5 CURVE SMOOTH"
);
}
);
width = 690;
},
{
layerId = "77865E0F-7A14-4552-9F9F-E712627EBCD5";
name = Light;
paths = (
{
closed = 1;
nodes = (
"491 -4 LINE",
"483 -63 LINE SMOOTH",
"470 -162 OFFCURVE",
"419 -186 OFFCURVE",
"352 -186 CURVE SMOOTH",
"327 -186 OFFCURVE",
"301 -180 OFFCURVE",
"293 -176 CURVE",
"291 -196 LINE",
"295 -198 OFFCURVE",
"316 -206 OFFCURVE",
"353 -206 CURVE SMOOTH",
"422 -206 OFFCURVE",
"488 -177 OFFCURVE",
"502 -69 CURVE SMOOTH",
"613 780 LINE",
"593 780 LINE",
"514 175 LINE",
"496 32 LINE",
"155 780 LINE",
"133 780 LINE",
"31 0 LINE",
"51 0 LINE",
"130 605 LINE",
"148 748 LINE"
);
}
);
width = 640;
}
);
unicode = 014A;
},
{
glyphname = OE;
lastChange = "2015-06-21 14:11:14 +0000";
layers = (
{
layerId = "B9198381-BC0C-4069-9423-397854D57297";
name = Bold;
paths = (
{
closed = 1;
nodes = (
"32 370 LINE SMOOTH",
"-4 100 OFFCURVE",
"80 0 OFFCURVE",
"325 0 CURVE SMOOTH",
"851 0 LINE",
"872 164 LINE",
"572 164 LINE",
"592 316 LINE",
"842 316 LINE",
"864 480 LINE",
"614 480 LINE",
"632 616 LINE",
"932 616 LINE",
"953 780 LINE",
"417 780 LINE SMOOTH",
"172 780 OFFCURVE",
"73 678 OFFCURVE",
"37 408 CURVE SMOOTH"
);
},
{
closed = 1;
nodes = (
"230 408 LINE SMOOTH",
"248 543 OFFCURVE",
"276 616 OFFCURVE",
"406 616 CURVE SMOOTH",
"441 616 LINE",
"382 164 LINE",
"356 164 LINE SMOOTH",
"226 164 OFFCURVE",
"207 235 OFFCURVE",
"225 370 CURVE SMOOTH"
);
}
);
width = 940;
},
{
layerId = "77865E0F-7A14-4552-9F9F-E712627EBCD5";
name = Light;
paths = (
{
closed = 1;
nodes = (
"531 760 LINE",
"434 20 LINE",
"297 20 LINE SMOOTH",
"137 20 OFFCURVE",
"48 116 OFFCURVE",
"81 378 CURVE SMOOTH",
"84 402 LINE SMOOTH",
"117 665 OFFCURVE",
"243 760 OFFCURVE",
"403 760 CURVE SMOOTH"
);
},
{
closed = 1;
nodes = (
"841 0 LINE",
"844 20 LINE",
"454 20 LINE",
"502 388 LINE",
"841 388 LINE",
"844 408 LINE",
"505 408 LINE",
"551 760 LINE",
"940 760 LINE",
"943 780 LINE",
"403 780 LINE SMOOTH",
"238 780 OFFCURVE",
"98 682 OFFCURVE",
"63 402 CURVE SMOOTH",
"60 378 LINE SMOOTH",
"25 97 OFFCURVE",
"132 0 OFFCURVE",
"297 0 CURVE SMOOTH"
);
}
);
width = 940;
}
);
unicode = 0152;
},
{
glyphname = Tbar;
lastChange = "2015-06-21 14:11:14 +0000";
layers = (
{
layerId = "B9198381-BC0C-4069-9423-397854D57297";
name = Bold;
paths = (
{
closed = 1;
nodes = (
"412 616 LINE",
"587 616 LINE",
"608 780 LINE",
"68 780 LINE",
"47 616 LINE",
"222 616 LINE",
"203 473 LINE",
"93 473 LINE",
"73 323 LINE",
"183 323 LINE",
"141 0 LINE",
"331 0 LINE",
"373 323 LINE",
"483 323 LINE",
"503 473 LINE",
"393 473 LINE"
);
}
);
width = 570;
},
{
layerId = "77865E0F-7A14-4552-9F9F-E712627EBCD5";
name = Light;
paths = (
{
closed = 1;
nodes = (
"117 388 LINE",
"235 388 LINE",
"185 0 LINE",
"205 0 LINE",
"256 388 LINE",
"377 388 LINE",
"380 408 LINE",
"258 408 LINE",
"305 760 LINE",
"514 760 LINE",
"517 780 LINE",
"78 780 LINE",
"75 760 LINE",
"284 760 LINE",
"238 408 LINE",
"120 408 LINE"
);
}
);
width = 490;
}
);
unicode = 0166;
},
{
glyphname = Eszett;
lastChange = "2015-06-21 14:11:14 +0000";
layers = (
{
layerId = "B9198381-BC0C-4069-9423-397854D57297";
name = Bold;
paths = (
{
closed = 1;
nodes = (
"315 464 LINE",
"297 334 LINE",
"500 310 LINE SMOOTH",
"573 302 OFFCURVE",
"592 268 OFFCURVE",
"588 230 CURVE SMOOTH",
"587 220 LINE SMOOTH",
"583 180 OFFCURVE",
"553 150 OFFCURVE",
"518 150 CURVE SMOOTH",
"508 150 LINE SMOOTH",
"473 150 OFFCURVE",
"444 176 OFFCURVE",
"456 270 CURVE",
"266 270 LINE",
"264 257 LINE SMOOTH",
"233 57 OFFCURVE",
"310 -14 OFFCURVE",
"485 -14 CURVE SMOOTH",
"668 -14 OFFCURVE",
"763 66 OFFCURVE",
"779 211 CURVE SMOOTH",
"781 229 LINE SMOOTH",
"798 380 OFFCURVE",
"720 444 OFFCURVE",
"553 468 CURVE SMOOTH",
"539 470 LINE",
"661 627 LINE",
"678 757 LINE",
"618 780 OFFCURVE",
"539 794 OFFCURVE",
"450 794 CURVE SMOOTH",
"200 794 OFFCURVE",
"87 696 OFFCURVE",
"66 532 CURVE SMOOTH",
"-4 0 LINE",
"186 0 LINE",
"255 527 LINE SMOOTH",
"263 589 OFFCURVE",
"318 630 OFFCURVE",
"428 630 CURVE SMOOTH",
"443 630 LINE"
);
}
);
width = 820;
},
{
layerId = "77865E0F-7A14-4552-9F9F-E712627EBCD5";
name = Light;
paths = (
{
closed = 1;
nodes = (
"315 424 LINE",
"313 410 LINE",
"429 395 LINE SMOOTH",
"559 378 OFFCURVE",
"631 324 OFFCURVE",
"617 210 CURVE SMOOTH",
"614 186 LINE SMOOTH",
"600 70 OFFCURVE",
"516 14 OFFCURVE",
"404 14 CURVE SMOOTH",
"398 14 LINE SMOOTH",
"283 14 OFFCURVE",
"204 62 OFFCURVE",
"233 250 CURVE",
"213 250 LINE",
"210 226 LINE SMOOTH",
"189 61 OFFCURVE",
"263 -6 OFFCURVE",
"401 -6 CURVE SMOOTH",
"523 -6 OFFCURVE",
"618 51 OFFCURVE",
"635 186 CURVE SMOOTH",
"638 210 LINE SMOOTH",
"652 321 OFFCURVE",
"586 394 OFFCURVE",
"442 413 CURVE SMOOTH",
"341 426 LINE",
"555 728 LINE",
"557 743 LINE",
"516 772 OFFCURVE",
"465 786 OFFCURVE",
"392 786 CURVE SMOOTH",
"252 786 OFFCURVE",
"124 734 OFFCURVE",
"99 541 CURVE SMOOTH",
"28 0 LINE",
"48 0 LINE",
"118 535 LINE SMOOTH",
"142 716 OFFCURVE",
"257 766 OFFCURVE",
"392 766 CURVE SMOOTH",
"458 766 OFFCURVE",
"499 756 OFFCURVE",
"535 734 CURVE"
);
}
);
width = 700;
}
);
unicode = 1E9E;
},
{
glyphname = a;
lastChange = "2015-06-21 14:11:14 +0000";
layers = (
{
layerId = "B9198381-BC0C-4069-9423-397854D57297";
name = Bold;
paths = (
{
closed = 1;
nodes = (
"311 0 LINE",
"477 0 LINE",
"486 150 LINE",
"511 340 LINE SMOOTH",
"527 464 OFFCURVE",
"460 544 OFFCURVE",
"286 544 CURVE SMOOTH",
"111 544 OFFCURVE",
"52 465 OFFCURVE",
"43 366 CURVE SMOOTH",
"42 355 LINE",
"215 355 LINE",
"217 382 OFFCURVE",
"235 406 OFFCURVE",
"277 406 CURVE SMOOTH",
"320 406 OFFCURVE",
"333 388 OFFCURVE",
"329 350 CURVE",
"207 331 LINE SMOOTH",
"87 312 OFFCURVE",
"12 280 OFFCURVE",
"-3 166 CURVE SMOOTH",
"-5 151 LINE SMOOTH",
"-16 67 OFFCURVE",
"20 -14 OFFCURVE",
"145 -14 CURVE SMOOTH",
"215 -14 OFFCURVE",
"266 11 OFFCURVE",
"311 54 CURVE"
);
},
{
closed = 1;
nodes = (
"225 134 CURVE SMOOTH",
"191 134 OFFCURVE",
"180 155 OFFCURVE",
"182 176 CURVE SMOOTH",
"183 185 LINE SMOOTH",
"186 209 OFFCURVE",
"203 227 OFFCURVE",
"238 232 CURVE SMOOTH",
"315 244 LINE",
"304 165 LINE",
"287 148 OFFCURVE",
"256 134 OFFCURVE"
);
}
);
width = 560;
},
{
layerId = "77865E0F-7A14-4552-9F9F-E712627EBCD5";
name = Light;
paths = (
{
closed = 1;
nodes = (
"18 128 LINE SMOOTH",
"7 38 OFFCURVE",
"73 -6 OFFCURVE",
"158 -6 CURVE SMOOTH",
"272 -6 OFFCURVE",
"328 46 OFFCURVE",
"360 86 CURVE",
"355 0 LINE",
"371 0 LINE",
"381 118 LINE",
"413 364 LINE SMOOTH",
"425 458 OFFCURVE",
"401 536 OFFCURVE",
"263 536 CURVE SMOOTH",
"121 536 OFFCURVE",
"85 453 OFFCURVE",
"74 366 CURVE SMOOTH",
"72 350 LINE",
"92 350 LINE",
"104 445 OFFCURVE",
"133 516 OFFCURVE",
"263 516 CURVE SMOOTH",
"390 516 OFFCURVE",
"404 443 OFFCURVE",
"392 354 CURVE SMOOTH",
"387 316 LINE",
"203 288 LINE SMOOTH",
"113 274 OFFCURVE",
"34 254 OFFCURVE",
"20 144 CURVE SMOOTH"
);
},
{
closed = 1;
nodes = (
"158 14 CURVE SMOOTH",
"71 14 OFFCURVE",
"30 63 OFFCURVE",
"38 128 CURVE SMOOTH",
"40 144 LINE SMOOTH",
"52 238 OFFCURVE",
"117 255 OFFCURVE",
"193 267 CURVE SMOOTH",
"384 296 LINE",
"360 111 LINE",
"335 79 OFFCURVE",
"284 14 OFFCURVE"
);
}
);
width = 485;
}
);
unicode = 0061;
},
{
glyphname = agrave;
lastChange = "2015-06-21 14:11:14 +0000";
layers = (
{
layerId = "B9198381-BC0C-4069-9423-397854D57297";
name = Bold;
paths = (
{
closed = 1;
nodes = (
"131 780 LINE",
"217 590 LINE",
"399 590 LINE",
"333 780 LINE"
);
},
{
closed = 1;
nodes = (
"311 0 LINE",
"477 0 LINE",
"486 150 LINE",
"511 340 LINE SMOOTH",
"527 464 OFFCURVE",
"460 544 OFFCURVE",
"286 544 CURVE SMOOTH",
"111 544 OFFCURVE",
"52 465 OFFCURVE",
"43 366 CURVE SMOOTH",
"42 355 LINE",
"215 355 LINE",
"217 382 OFFCURVE",
"235 406 OFFCURVE",
"277 406 CURVE SMOOTH",
"320 406 OFFCURVE",
"333 388 OFFCURVE",
"329 350 CURVE",
"207 331 LINE SMOOTH",
"87 312 OFFCURVE",
"12 280 OFFCURVE",
"-3 166 CURVE SMOOTH",
"-5 151 LINE SMOOTH",
"-16 67 OFFCURVE",
"20 -14 OFFCURVE",
"145 -14 CURVE SMOOTH",
"215 -14 OFFCURVE",
"266 11 OFFCURVE",
"311 54 CURVE"
);
},
{
closed = 1;
nodes = (
"225 134 CURVE SMOOTH",
"191 134 OFFCURVE",
"180 155 OFFCURVE",
"182 176 CURVE SMOOTH",
"183 185 LINE SMOOTH",
"186 209 OFFCURVE",
"203 227 OFFCURVE",
"238 232 CURVE SMOOTH",
"315 244 LINE",
"304 165 LINE",
"287 148 OFFCURVE",
"256 134 OFFCURVE"
);
}
);
width = 560;
},
{
layerId = "77865E0F-7A14-4552-9F9F-E712627EBCD5";
name = Light;
paths = (
{
closed = 1;
nodes = (
"18 128 LINE SMOOTH",
"7 38 OFFCURVE",
"73 -6 OFFCURVE",
"158 -6 CURVE SMOOTH",
"272 -6 OFFCURVE",
"328 46 OFFCURVE",
"360 86 CURVE",
"355 0 LINE",
"371 0 LINE",
"381 118 LINE",
"413 364 LINE SMOOTH",
"425 458 OFFCURVE",
"401 536 OFFCURVE",
"263 536 CURVE SMOOTH",
"121 536 OFFCURVE",
"85 453 OFFCURVE",
"74 366 CURVE SMOOTH",
"72 350 LINE",
"92 350 LINE",
"104 445 OFFCURVE",
"133 516 OFFCURVE",
"263 516 CURVE SMOOTH",
"390 516 OFFCURVE",
"404 443 OFFCURVE",
"392 354 CURVE SMOOTH",
"387 316 LINE",
"203 288 LINE SMOOTH",
"113 274 OFFCURVE",
"34 254 OFFCURVE",
"20 144 CURVE SMOOTH"
);
},
{
closed = 1;
nodes = (
"158 14 CURVE SMOOTH",
"71 14 OFFCURVE",
"30 63 OFFCURVE",
"38 128 CURVE SMOOTH",
"40 144 LINE SMOOTH",
"52 238 OFFCURVE",
"117 255 OFFCURVE",
"193 267 CURVE SMOOTH",
"384 296 LINE",
"360 111 LINE",
"335 79 OFFCURVE",
"284 14 OFFCURVE"
);
},
{
closed = 1;
nodes = (
"197 780 LINE",
"266 620 LINE",
"288 620 LINE",
"219 780 LINE"
);
}
);
width = 485;
}
);
unicode = 00E0;
},
{
glyphname = aacute;
lastChange = "2015-06-21 14:11:14 +0000";
layers = (
{
layerId = "B9198381-BC0C-4069-9423-397854D57297";
name = Bold;
paths = (
{
closed = 1;
nodes = (
"333 780 LINE",
"217 590 LINE",
"399 590 LINE",
"535 780 LINE"
);
},
{
closed = 1;
nodes = (
"311 0 LINE",
"477 0 LINE",
"486 150 LINE",
"511 340 LINE SMOOTH",
"527 464 OFFCURVE",
"460 544 OFFCURVE",
"286 544 CURVE SMOOTH",
"111 544 OFFCURVE",
"52 465 OFFCURVE",
"43 366 CURVE SMOOTH",
"42 355 LINE",
"215 355 LINE",
"217 382 OFFCURVE",
"235 406 OFFCURVE",
"277 406 CURVE SMOOTH",
"320 406 OFFCURVE",
"333 388 OFFCURVE",
"329 350 CURVE",
"207 331 LINE SMOOTH",
"87 312 OFFCURVE",
"12 280 OFFCURVE",
"-3 166 CURVE SMOOTH",
"-5 151 LINE SMOOTH",
"-16 67 OFFCURVE",
"20 -14 OFFCURVE",
"145 -14 CURVE SMOOTH",
"215 -14 OFFCURVE",
"266 11 OFFCURVE",
"311 54 CURVE"
);
},
{
closed = 1;
nodes = (
"225 134 CURVE SMOOTH",
"191 134 OFFCURVE",
"180 155 OFFCURVE",
"182 176 CURVE SMOOTH",
"183 185 LINE SMOOTH",
"186 209 OFFCURVE",
"203 227 OFFCURVE",
"238 232 CURVE SMOOTH",
"315 244 LINE",
"304 165 LINE",
"287 148 OFFCURVE",
"256 134 OFFCURVE"
);
}
);
width = 560;
},
{
layerId = "77865E0F-7A14-4552-9F9F-E712627EBCD5";
name = Light;
paths = (
{
closed = 1;
nodes = (
"18 128 LINE SMOOTH",
"7 38 OFFCURVE",
"73 -6 OFFCURVE",
"158 -6 CURVE SMOOTH",
"272 -6 OFFCURVE",
"328 46 OFFCURVE",
"360 86 CURVE",
"355 0 LINE",
"371 0 LINE",
"381 118 LINE",
"413 364 LINE SMOOTH",
"425 458 OFFCURVE",
"401 536 OFFCURVE",
"263 536 CURVE SMOOTH",
"121 536 OFFCURVE",
"85 453 OFFCURVE",
"74 366 CURVE SMOOTH",
"72 350 LINE",
"92 350 LINE",
"104 445 OFFCURVE",
"133 516 OFFCURVE",
"263 516 CURVE SMOOTH",
"390 516 OFFCURVE",
"404 443 OFFCURVE",
"392 354 CURVE SMOOTH",
"387 316 LINE",
"203 288 LINE SMOOTH",
"113 274 OFFCURVE",
"34 254 OFFCURVE",
"20 144 CURVE SMOOTH"
);
},
{
closed = 1;
nodes = (
"158 14 CURVE SMOOTH",
"71 14 OFFCURVE",
"30 63 OFFCURVE",
"38 128 CURVE SMOOTH",
"40 144 LINE SMOOTH",
"52 238 OFFCURVE",
"117 255 OFFCURVE",
"193 267 CURVE SMOOTH",
"384 296 LINE",
"360 111 LINE",
"335 79 OFFCURVE",
"284 14 OFFCURVE"
);
},
{
closed = 1;
nodes = (
"377 780 LINE",
"266 620 LINE",
"288 620 LINE",
"399 780 LINE"
);
}
);
width = 485;
}
);
unicode = 00E1;
},
{
glyphname = acircumflex;
lastChange = "2015-06-21 14:11:14 +0000";
layers = (
{
layerId = "B9198381-BC0C-4069-9423-397854D57297";
name = Bold;
paths = (
{
closed = 1;
nodes = (
"243 590 LINE",
"318 663 LINE",
"373 590 LINE",
"533 590 LINE",
"423 780 LINE",
"243 780 LINE",
"83 590 LINE"
);
},
{
closed = 1;
nodes = (
"311 0 LINE",
"477 0 LINE",
"486 150 LINE",
"511 340 LINE SMOOTH",
"527 464 OFFCURVE",
"460 544 OFFCURVE",
"286 544 CURVE SMOOTH",
"111 544 OFFCURVE",
"52 465 OFFCURVE",
"43 366 CURVE SMOOTH",
"42 355 LINE",
"215 355 LINE",
"217 382 OFFCURVE",
"235 406 OFFCURVE",
"277 406 CURVE SMOOTH",
"320 406 OFFCURVE",
"333 388 OFFCURVE",
"329 350 CURVE",
"207 331 LINE SMOOTH",
"87 312 OFFCURVE",
"12 280 OFFCURVE",
"-3 166 CURVE SMOOTH",
"-5 151 LINE SMOOTH",
"-16 67 OFFCURVE",
"20 -14 OFFCURVE",
"145 -14 CURVE SMOOTH",
"215 -14 OFFCURVE",
"266 11 OFFCURVE",
"311 54 CURVE"
);
},
{
closed = 1;
nodes = (
"225 134 CURVE SMOOTH",
"191 134 OFFCURVE",
"180 155 OFFCURVE",
"182 176 CURVE SMOOTH",
"183 185 LINE SMOOTH",
"186 209 OFFCURVE",
"203 227 OFFCURVE",
"238 232 CURVE SMOOTH",
"315 244 LINE",
"304 165 LINE",
"287 148 OFFCURVE",
"256 134 OFFCURVE"
);
}
);
width = 560;
},
{
layerId = "77865E0F-7A14-4552-9F9F-E712627EBCD5";
name = Light;
paths = (
{
closed = 1;
nodes = (
"18 128 LINE SMOOTH",
"7 38 OFFCURVE",
"73 -6 OFFCURVE",
"158 -6 CURVE SMOOTH",
"272 -6 OFFCURVE",
"328 46 OFFCURVE",
"360 86 CURVE",
"355 0 LINE",
"371 0 LINE",
"381 118 LINE",
"413 364 LINE SMOOTH",
"425 458 OFFCURVE",
"401 536 OFFCURVE",
"263 536 CURVE SMOOTH",
"121 536 OFFCURVE",
"85 453 OFFCURVE",
"74 366 CURVE SMOOTH",
"72 350 LINE",
"92 350 LINE",
"104 445 OFFCURVE",
"133 516 OFFCURVE",
"263 516 CURVE SMOOTH",
"390 516 OFFCURVE",
"404 443 OFFCURVE",
"392 354 CURVE SMOOTH",
"387 316 LINE",
"203 288 LINE SMOOTH",
"113 274 OFFCURVE",
"34 254 OFFCURVE",
"20 144 CURVE SMOOTH"
);
},
{
closed = 1;
nodes = (
"158 14 CURVE SMOOTH",
"71 14 OFFCURVE",
"30 63 OFFCURVE",
"38 128 CURVE SMOOTH",
"40 144 LINE SMOOTH",
"52 238 OFFCURVE",
"117 255 OFFCURVE",
"193 267 CURVE SMOOTH",
"384 296 LINE",
"360 111 LINE",
"335 79 OFFCURVE",
"284 14 OFFCURVE"
);
},
{
closed = 1;
nodes = (
"412 620 LINE",
"308 780 LINE",
"288 780 LINE",
"142 620 LINE",
"168 620 LINE",
"297 762 LINE",
"388 620 LINE"
);
}
);
width = 485;
}
);
unicode = 00E2;
},
{
glyphname = atilde;
lastChange = "2015-06-21 14:11:14 +0000";
layers = (
{
layerId = "B9198381-BC0C-4069-9423-397854D57297";
name = Bold;
paths = (
{
closed = 1;
nodes = (
"428 780 LINE",
"425 755 OFFCURVE",
"412 745 OFFCURVE",
"394 745 CURVE SMOOTH",
"354 745 OFFCURVE",
"305 796 OFFCURVE",
"240 796 CURVE SMOOTH",
"174 796 OFFCURVE",
"114 745 OFFCURVE",
"97 620 CURVE",
"217 620 LINE",
"220 645 OFFCURVE",
"234 655 OFFCURVE",
"252 655 CURVE SMOOTH",
"292 655 OFFCURVE",
"340 604 OFFCURVE",
"405 604 CURVE SMOOTH",
"471 604 OFFCURVE",
"532 655 OFFCURVE",
"548 780 CURVE"
);
},
{
closed = 1;
nodes = (
"311 0 LINE",
"477 0 LINE",
"486 150 LINE",
"511 340 LINE SMOOTH",
"527 464 OFFCURVE",
"460 544 OFFCURVE",
"286 544 CURVE SMOOTH",
"111 544 OFFCURVE",
"52 465 OFFCURVE",
"43 366 CURVE SMOOTH",
"42 355 LINE",
"215 355 LINE",
"217 382 OFFCURVE",
"235 406 OFFCURVE",
"277 406 CURVE SMOOTH",
"320 406 OFFCURVE",
"333 388 OFFCURVE",
"329 350 CURVE",
"207 331 LINE SMOOTH",
"87 312 OFFCURVE",
"12 280 OFFCURVE",
"-3 166 CURVE SMOOTH",
"-5 151 LINE SMOOTH",
"-16 67 OFFCURVE",
"20 -14 OFFCURVE",
"145 -14 CURVE SMOOTH",
"215 -14 OFFCURVE",
"266 11 OFFCURVE",
"311 54 CURVE"
);
},
{
closed = 1;
nodes = (
"225 134 CURVE SMOOTH",
"191 134 OFFCURVE",
"180 155 OFFCURVE",
"182 176 CURVE SMOOTH",
"183 185 LINE SMOOTH",
"186 209 OFFCURVE",
"203 227 OFFCURVE",
"238 232 CURVE SMOOTH",
"315 244 LINE",
"304 165 LINE",
"287 148 OFFCURVE",
"256 134 OFFCURVE"
);
}
);
width = 560;
},
{
layerId = "77865E0F-7A14-4552-9F9F-E712627EBCD5";
name = Light;
paths = (
{
closed = 1;
nodes = (
"18 128 LINE SMOOTH",
"7 38 OFFCURVE",
"73 -6 OFFCURVE",
"158 -6 CURVE SMOOTH",
"272 -6 OFFCURVE",
"328 46 OFFCURVE",
"360 86 CURVE",
"355 0 LINE",
"371 0 LINE",
"381 118 LINE",
"413 364 LINE SMOOTH",
"425 458 OFFCURVE",
"401 536 OFFCURVE",
"263 536 CURVE SMOOTH",
"121 536 OFFCURVE",
"85 453 OFFCURVE",
"74 366 CURVE SMOOTH",
"72 350 LINE",
"92 350 LINE",
"104 445 OFFCURVE",
"133 516 OFFCURVE",
"263 516 CURVE SMOOTH",
"390 516 OFFCURVE",
"404 443 OFFCURVE",
"392 354 CURVE SMOOTH",
"387 316 LINE",
"203 288 LINE SMOOTH",
"113 274 OFFCURVE",
"34 254 OFFCURVE",
"20 144 CURVE SMOOTH"
);
},
{
closed = 1;
nodes = (
"158 14 CURVE SMOOTH",
"71 14 OFFCURVE",
"30 63 OFFCURVE",
"38 128 CURVE SMOOTH",
"40 144 LINE SMOOTH",
"52 238 OFFCURVE",
"117 255 OFFCURVE",
"193 267 CURVE SMOOTH",
"384 296 LINE",
"360 111 LINE",
"335 79 OFFCURVE",
"284 14 OFFCURVE"
);
},
{
closed = 1;
nodes = (
"409 732 LINE",
"403 687 OFFCURVE",
"378 680 OFFCURVE",
"355 680 CURVE SMOOTH",
"308 680 OFFCURVE",
"272 738 OFFCURVE",
"220 738 CURVE SMOOTH",
"190 738 OFFCURVE",
"155 723 OFFCURVE",
"148 668 CURVE",
"166 668 LINE",
"172 713 OFFCURVE",
"197 720 OFFCURVE",
"220 720 CURVE SMOOTH",
"267 720 OFFCURVE",
"303 662 OFFCURVE",
"355 662 CURVE SMOOTH",
"385 662 OFFCURVE",
"420 677 OFFCURVE",
"427 732 CURVE"
);
}
);
width = 485;
}
);
unicode = 00E3;
},
{
glyphname = adieresis;
lastChange = "2015-06-21 14:11:14 +0000";
layers = (
{
layerId = "B9198381-BC0C-4069-9423-397854D57297";
name = Bold;
paths = (
{
closed = 1;
nodes = (
"313 780 LINE",
"123 780 LINE",
"98 590 LINE",
"288 590 LINE"
);
},
{
closed = 1;
nodes = (
"543 780 LINE",
"353 780 LINE",
"328 590 LINE",
"518 590 LINE"
);
},
{
closed = 1;
nodes = (
"311 0 LINE",
"477 0 LINE",
"486 150 LINE",
"511 340 LINE SMOOTH",
"527 464 OFFCURVE",
"460 544 OFFCURVE",
"286 544 CURVE SMOOTH",
"111 544 OFFCURVE",
"52 465 OFFCURVE",
"43 366 CURVE SMOOTH",
"42 355 LINE",
"215 355 LINE",
"217 382 OFFCURVE",
"235 406 OFFCURVE",
"277 406 CURVE SMOOTH",
"320 406 OFFCURVE",
"333 388 OFFCURVE",
"329 350 CURVE",
"207 331 LINE SMOOTH",
"87 312 OFFCURVE",
"12 280 OFFCURVE",
"-3 166 CURVE SMOOTH",
"-5 151 LINE SMOOTH",
"-16 67 OFFCURVE",
"20 -14 OFFCURVE",
"145 -14 CURVE SMOOTH",
"215 -14 OFFCURVE",
"266 11 OFFCURVE",
"311 54 CURVE"
);
},
{
closed = 1;
nodes = (
"225 134 CURVE SMOOTH",
"191 134 OFFCURVE",
"180 155 OFFCURVE",
"182 176 CURVE SMOOTH",
"183 185 LINE SMOOTH",
"186 209 OFFCURVE",
"203 227 OFFCURVE",
"238 232 CURVE SMOOTH",
"315 244 LINE",
"304 165 LINE",
"287 148 OFFCURVE",
"256 134 OFFCURVE"
);
}
);
width = 560;
},
{
layerId = "77865E0F-7A14-4552-9F9F-E712627EBCD5";
name = Light;
paths = (
{
closed = 1;
nodes = (
"18 128 LINE SMOOTH",
"7 38 OFFCURVE",
"73 -6 OFFCURVE",
"158 -6 CURVE SMOOTH",
"272 -6 OFFCURVE",
"328 46 OFFCURVE",
"360 86 CURVE",
"355 0 LINE",
"371 0 LINE",
"381 118 LINE",
"413 364 LINE SMOOTH",
"425 458 OFFCURVE",
"401 536 OFFCURVE",
"263 536 CURVE SMOOTH",
"121 536 OFFCURVE",
"85 453 OFFCURVE",
"74 366 CURVE SMOOTH",
"72 350 LINE",
"92 350 LINE",
"104 445 OFFCURVE",
"133 516 OFFCURVE",
"263 516 CURVE SMOOTH",
"390 516 OFFCURVE",
"404 443 OFFCURVE",
"392 354 CURVE SMOOTH",
"387 316 LINE",
"203 288 LINE SMOOTH",
"113 274 OFFCURVE",
"34 254 OFFCURVE",
"20 144 CURVE SMOOTH"
);
},
{
closed = 1;
nodes = (
"158 14 CURVE SMOOTH",
"71 14 OFFCURVE",
"30 63 OFFCURVE",
"38 128 CURVE SMOOTH",
"40 144 LINE SMOOTH",
"52 238 OFFCURVE",
"117 255 OFFCURVE",
"193 267 CURVE SMOOTH",
"384 296 LINE",
"360 111 LINE",
"335 79 OFFCURVE",
"284 14 OFFCURVE"
);
},
{
closed = 1;
nodes = (
"240 720 LINE",
"200 720 LINE",
"195 680 LINE",
"235 680 LINE"
);
},
{
closed = 1;
nodes = (
"380 720 LINE",
"340 720 LINE",
"335 680 LINE",
"375 680 LINE"
);
}
);
width = 485;
}
);
unicode = 00E4;
},
{
glyphname = aring;
lastChange = "2015-06-21 14:11:14 +0000";
layers = (
{
layerId = "B9198381-BC0C-4069-9423-397854D57297";
name = Bold;
paths = (
{
closed = 1;
nodes = (
"308 576 CURVE SMOOTH",
"375 576 OFFCURVE",
"431 628 OFFCURVE",
"431 698 CURVE SMOOTH",
"431 753 OFFCURVE",
"390 794 OFFCURVE",
"333 794 CURVE SMOOTH",
"266 794 OFFCURVE",
"210 742 OFFCURVE",
"210 672 CURVE SMOOTH",
"210 617 OFFCURVE",
"251 576 OFFCURVE"
);
},
{
closed = 1;
nodes = (
"327 734 CURVE SMOOTH",
"352 734 OFFCURVE",
"370 716 OFFCURVE",
"370 690 CURVE SMOOTH",
"370 658 OFFCURVE",
"345 636 OFFCURVE",
"314 636 CURVE SMOOTH",
"289 636 OFFCURVE",
"271 654 OFFCURVE",
"271 680 CURVE SMOOTH",
"271 712 OFFCURVE",
"296 734 OFFCURVE"
);
},
{
closed = 1;
nodes = (
"311 0 LINE",
"477 0 LINE",
"486 150 LINE",
"511 340 LINE SMOOTH",
"527 464 OFFCURVE",
"460 544 OFFCURVE",
"286 544 CURVE SMOOTH",
"111 544 OFFCURVE",
"52 465 OFFCURVE",
"43 366 CURVE SMOOTH",
"42 355 LINE",
"215 355 LINE",
"217 382 OFFCURVE",
"235 406 OFFCURVE",
"277 406 CURVE SMOOTH",
"320 406 OFFCURVE",
"333 388 OFFCURVE",
"329 350 CURVE",
"207 331 LINE SMOOTH",
"87 312 OFFCURVE",
"12 280 OFFCURVE",
"-3 166 CURVE SMOOTH",
"-5 151 LINE SMOOTH",
"-16 67 OFFCURVE",
"20 -14 OFFCURVE",
"145 -14 CURVE SMOOTH",
"215 -14 OFFCURVE",
"266 11 OFFCURVE",
"311 54 CURVE"
);
},
{
closed = 1;
nodes = (
"225 134 CURVE SMOOTH",
"191 134 OFFCURVE",
"180 155 OFFCURVE",
"182 176 CURVE SMOOTH",
"183 185 LINE SMOOTH",
"186 209 OFFCURVE",
"203 227 OFFCURVE",
"238 232 CURVE SMOOTH",
"315 244 LINE",
"304 165 LINE",
"287 148 OFFCURVE",
"256 134 OFFCURVE"
);
}
);
width = 560;
},
{
layerId = "77865E0F-7A14-4552-9F9F-E712627EBCD5";
name = Light;
paths = (
{
closed = 1;
nodes = (
"18 128 LINE SMOOTH",
"7 38 OFFCURVE",
"73 -6 OFFCURVE",
"158 -6 CURVE SMOOTH",
"272 -6 OFFCURVE",
"328 46 OFFCURVE",
"360 86 CURVE",
"355 0 LINE",
"371 0 LINE",
"381 118 LINE",
"413 364 LINE SMOOTH",
"425 458 OFFCURVE",
"401 536 OFFCURVE",
"263 536 CURVE SMOOTH",
"121 536 OFFCURVE",
"85 453 OFFCURVE",
"74 366 CURVE SMOOTH",
"72 350 LINE",
"92 350 LINE",
"104 445 OFFCURVE",
"133 516 OFFCURVE",
"263 516 CURVE SMOOTH",
"390 516 OFFCURVE",
"404 443 OFFCURVE",
"392 354 CURVE SMOOTH",
"387 316 LINE",
"203 288 LINE SMOOTH",
"113 274 OFFCURVE",
"34 254 OFFCURVE",
"20 144 CURVE SMOOTH"
);
},
{
closed = 1;
nodes = (
"158 14 CURVE SMOOTH",
"71 14 OFFCURVE",
"30 63 OFFCURVE",
"38 128 CURVE SMOOTH",
"40 144 LINE SMOOTH",
"52 238 OFFCURVE",
"117 255 OFFCURVE",
"193 267 CURVE SMOOTH",
"384 296 LINE",
"360 111 LINE",
"335 79 OFFCURVE",
"284 14 OFFCURVE"
);
},
{
closed = 1;
nodes = (
"295 768 CURVE SMOOTH",
"332 768 OFFCURVE",
"356 747 OFFCURVE",
"356 708 CURVE SMOOTH",
"356 663 OFFCURVE",
"323 632 OFFCURVE",
"280 632 CURVE SMOOTH",
"243 632 OFFCURVE",
"219 653 OFFCURVE",
"219 692 CURVE SMOOTH",
"219 737 OFFCURVE",
"252 768 OFFCURVE"
);
},
{
closed = 1;
nodes = (
"295 786 CURVE SMOOTH",
"245 786 OFFCURVE",
"200 744 OFFCURVE",
"200 692 CURVE SMOOTH",
"200 644 OFFCURVE",
"231 614 OFFCURVE",
"280 614 CURVE SMOOTH",
"330 614 OFFCURVE",
"375 656 OFFCURVE",
"375 708 CURVE SMOOTH",
"375 756 OFFCURVE",
"344 786 OFFCURVE"
);
}
);
width = 485;
}
);
unicode = 00E5;
},
{
glyphname = amacron;
lastChange = "2015-06-21 14:11:14 +0000";
layers = (
{
layerId = "B9198381-BC0C-4069-9423-397854D57297";
name = Bold;
paths = (
{
closed = 1;
nodes = (
"150 605 LINE",
"470 605 LINE",
"491 765 LINE",
"171 765 LINE"
);
},
{
closed = 1;
nodes = (
"311 0 LINE",
"477 0 LINE",
"486 150 LINE",
"511 340 LINE SMOOTH",
"527 464 OFFCURVE",
"460 544 OFFCURVE",
"286 544 CURVE SMOOTH",
"111 544 OFFCURVE",
"52 465 OFFCURVE",
"43 366 CURVE SMOOTH",
"42 355 LINE",
"215 355 LINE",
"217 382 OFFCURVE",
"235 406 OFFCURVE",
"277 406 CURVE SMOOTH",
"320 406 OFFCURVE",
"333 388 OFFCURVE",
"329 350 CURVE",
"207 331 LINE SMOOTH",
"87 312 OFFCURVE",
"12 280 OFFCURVE",
"-3 166 CURVE SMOOTH",
"-5 151 LINE SMOOTH",
"-16 67 OFFCURVE",
"20 -14 OFFCURVE",
"145 -14 CURVE SMOOTH",
"215 -14 OFFCURVE",
"266 11 OFFCURVE",
"311 54 CURVE"
);
},
{
closed = 1;
nodes = (
"225 134 CURVE SMOOTH",
"191 134 OFFCURVE",
"180 155 OFFCURVE",
"182 176 CURVE SMOOTH",
"183 185 LINE SMOOTH",
"186 209 OFFCURVE",
"203 227 OFFCURVE",
"238 232 CURVE SMOOTH",
"315 244 LINE",
"304 165 LINE",
"287 148 OFFCURVE",
"256 134 OFFCURVE"
);
}
);
width = 560;
},
{
layerId = "77865E0F-7A14-4552-9F9F-E712627EBCD5";
name = Light;
paths = (
{
closed = 1;
nodes = (
"18 128 LINE SMOOTH",
"7 38 OFFCURVE",
"73 -6 OFFCURVE",
"158 -6 CURVE SMOOTH",
"272 -6 OFFCURVE",
"328 46 OFFCURVE",
"360 86 CURVE",
"355 0 LINE",
"371 0 LINE",
"381 118 LINE",
"413 364 LINE SMOOTH",
"425 458 OFFCURVE",
"401 536 OFFCURVE",
"263 536 CURVE SMOOTH",
"121 536 OFFCURVE",
"85 453 OFFCURVE",
"74 366 CURVE SMOOTH",
"72 350 LINE",
"92 350 LINE",
"104 445 OFFCURVE",
"133 516 OFFCURVE",
"263 516 CURVE SMOOTH",
"390 516 OFFCURVE",
"404 443 OFFCURVE",
"392 354 CURVE SMOOTH",
"387 316 LINE",
"203 288 LINE SMOOTH",
"113 274 OFFCURVE",
"34 254 OFFCURVE",
"20 144 CURVE SMOOTH"
);
},
{
closed = 1;
nodes = (
"158 14 CURVE SMOOTH",
"71 14 OFFCURVE",
"30 63 OFFCURVE",
"38 128 CURVE SMOOTH",
"40 144 LINE SMOOTH",
"52 238 OFFCURVE",
"117 255 OFFCURVE",
"193 267 CURVE SMOOTH",
"384 296 LINE",
"360 111 LINE",
"335 79 OFFCURVE",
"284 14 OFFCURVE"
);
},
{
closed = 1;
nodes = (
"186 690 LINE",
"386 690 LINE",
"389 710 LINE",
"189 710 LINE"
);
}
);
width = 485;
}
);
unicode = 0101;
},
{
glyphname = abreve;
lastChange = "2015-06-21 14:11:14 +0000";
layers = (
{
layerId = "B9198381-BC0C-4069-9423-397854D57297";
name = Bold;
paths = (
{
closed = 1;
nodes = (
"306 576 CURVE SMOOTH",
"454 576 OFFCURVE",
"516 663 OFFCURVE",
"528 780 CURVE",
"398 780 LINE",
"391 725 OFFCURVE",
"357 714 OFFCURVE",
"324 714 CURVE SMOOTH",
"291 714 OFFCURVE",
"261 725 OFFCURVE",
"268 780 CURVE",
"138 780 LINE",
"120 663 OFFCURVE",
"158 576 OFFCURVE"
);
},
{
closed = 1;
nodes = (
"311 0 LINE",
"477 0 LINE",
"486 150 LINE",
"511 340 LINE SMOOTH",
"527 464 OFFCURVE",
"460 544 OFFCURVE",
"286 544 CURVE SMOOTH",
"111 544 OFFCURVE",
"52 465 OFFCURVE",
"43 366 CURVE SMOOTH",
"42 355 LINE",
"215 355 LINE",
"217 382 OFFCURVE",
"235 406 OFFCURVE",
"277 406 CURVE SMOOTH",
"320 406 OFFCURVE",
"333 388 OFFCURVE",
"329 350 CURVE",
"207 331 LINE SMOOTH",
"87 312 OFFCURVE",
"12 280 OFFCURVE",
"-3 166 CURVE SMOOTH",
"-5 151 LINE SMOOTH",
"-16 67 OFFCURVE",
"20 -14 OFFCURVE",
"145 -14 CURVE SMOOTH",
"215 -14 OFFCURVE",
"266 11 OFFCURVE",
"311 54 CURVE"
);
},
{
closed = 1;
nodes = (
"225 134 CURVE SMOOTH",
"191 134 OFFCURVE",
"180 155 OFFCURVE",
"182 176 CURVE SMOOTH",
"183 185 LINE SMOOTH",
"186 209 OFFCURVE",
"203 227 OFFCURVE",
"238 232 CURVE SMOOTH",
"315 244 LINE",
"304 165 LINE",
"287 148 OFFCURVE",
"256 134 OFFCURVE"
);
}
);
width = 560;
},
{
layerId = "77865E0F-7A14-4552-9F9F-E712627EBCD5";
name = Light;
paths = (
{
closed = 1;
nodes = (
"18 128 LINE SMOOTH",
"7 38 OFFCURVE",
"73 -6 OFFCURVE",
"158 -6 CURVE SMOOTH",
"272 -6 OFFCURVE",
"328 46 OFFCURVE",
"360 86 CURVE",
"355 0 LINE",
"371 0 LINE",
"381 118 LINE",
"413 364 LINE SMOOTH",
"425 458 OFFCURVE",
"401 536 OFFCURVE",
"263 536 CURVE SMOOTH",
"121 536 OFFCURVE",
"85 453 OFFCURVE",
"74 366 CURVE SMOOTH",
"72 350 LINE",
"92 350 LINE",
"104 445 OFFCURVE",
"133 516 OFFCURVE",
"263 516 CURVE SMOOTH",
"390 516 OFFCURVE",
"404 443 OFFCURVE",
"392 354 CURVE SMOOTH",
"387 316 LINE",
"203 288 LINE SMOOTH",
"113 274 OFFCURVE",
"34 254 OFFCURVE",
"20 144 CURVE SMOOTH"
);
},
{
closed = 1;
nodes = (
"158 14 CURVE SMOOTH",
"71 14 OFFCURVE",
"30 63 OFFCURVE",
"38 128 CURVE SMOOTH",
"40 144 LINE SMOOTH",
"52 238 OFFCURVE",
"117 255 OFFCURVE",
"193 267 CURVE SMOOTH",
"384 296 LINE",
"360 111 LINE",
"335 79 OFFCURVE",
"284 14 OFFCURVE"
);
},
{
closed = 1;
nodes = (
"277 614 CURVE SMOOTH",
"380 614 OFFCURVE",
"436 690 OFFCURVE",
"448 780 CURVE",
"429 780 LINE",
"419 700 OFFCURVE",
"370 632 OFFCURVE",
"277 632 CURVE SMOOTH",
"185 632 OFFCURVE",
"155 700 OFFCURVE",
"165 780 CURVE",
"148 780 LINE",
"136 690 OFFCURVE",
"175 614 OFFCURVE"
);
}
);
width = 485;
}
);
unicode = 0103;
},
